<?xml version="1.0" encoding="UTF-8" standalone="no"?>
<svg
   xmlns:dc="http://purl.org/dc/elements/1.1/"
   xmlns:cc="http://creativecommons.org/ns#"
   xmlns:rdf="http://www.w3.org/1999/02/22-rdf-syntax-ns#"
   xmlns:svg="http://www.w3.org/2000/svg"
   xmlns="http://www.w3.org/2000/svg"
   xmlns:xlink="http://www.w3.org/1999/xlink"
   xmlns:sodipodi="http://sodipodi.sourceforge.net/DTD/sodipodi-0.dtd"
   xmlns:inkscape="http://www.inkscape.org/namespaces/inkscape"
   viewBox="0 0 164 70"
   version="1.1"
   id="svg31270"
   sodipodi:docname="banner_senap-5.svg"
   width="164"
   height="70"
   inkscape:version="1.0.2 (e86c870, 2021-01-15)">
  <metadata
     id="metadata31274">
    <rdf:RDF>
      <cc:Work
         rdf:about="">
        <dc:format>image/svg+xml</dc:format>
        <dc:type
           rdf:resource="http://purl.org/dc/dcmitype/StillImage" />
        <dc:title>Cintillo SENAP</dc:title>
      </cc:Work>
    </rdf:RDF>
  </metadata>
  <sodipodi:namedview
     pagecolor="#ffffff"
     bordercolor="#666666"
     borderopacity="1"
     objecttolerance="10"
     gridtolerance="10"
     guidetolerance="10"
     inkscape:pageopacity="0"
     inkscape:pageshadow="2"
     inkscape:window-width="1307"
     inkscape:window-height="609"
     id="namedview31272"
     showgrid="false"
     inkscape:zoom="2.8"
     inkscape:cx="124.10525"
     inkscape:cy="35"
     inkscape:window-x="3079"
     inkscape:window-y="573"
     inkscape:window-maximized="0"
     inkscape:current-layer="svg31270"
     inkscape:document-rotation="0" />
  <defs
     id="defs29205">
    <style
       id="style28980">.cls-1{fill:none;}.cls-2{isolation:isolate;}.cls-3{fill:#0f70af;}.cls-4{fill:#002e50;}.cls-5{fill:#091821;}.cls-6{fill:#646467;}.cls-7{fill:#656567;}.cls-8{fill:url(#Degradado_sin_nombre_13);}.cls-9{fill:url(#Degradado_sin_nombre_13-2);}.cls-10{fill:url(#Degradado_sin_nombre_13-3);}.cls-11{fill:url(#Degradado_sin_nombre_13-4);}.cls-12{fill:#f2f1f1;}.cls-13{fill:#1a171a;}.cls-14{fill:url(#Degradado_sin_nombre_35);}.cls-15{fill:url(#Degradado_sin_nombre_37);}.cls-16{fill:url(#Degradado_sin_nombre_35-2);}.cls-17{fill:url(#Degradado_sin_nombre_44);}.cls-18{clip-path:url(#clip-path);}.cls-19{fill:#010101;}.cls-20{fill:#020202;}.cls-21{fill:#030303;}.cls-22{fill:#040404;}.cls-23{fill:#050505;}.cls-24{fill:#060606;}.cls-25{fill:#070707;}.cls-26{fill:#080808;}.cls-27{fill:#090909;}.cls-28{fill:#0a0a0a;}.cls-29{fill:#0b0b0b;}.cls-30{fill:#0c0c0c;}.cls-31{fill:#0d0d0d;}.cls-32{fill:#0e0e0e;}.cls-33{fill:#0f0f0f;}.cls-34{fill:#101010;}.cls-35{fill:#111;}.cls-36{fill:#121212;}.cls-37{fill:#131313;}.cls-38{fill:#141414;}.cls-39{fill:#151515;}.cls-40{fill:#161616;}.cls-41{fill:#171717;}.cls-42{fill:#181818;}.cls-43{fill:#191919;}.cls-44{fill:#1a1a1a;}.cls-45{fill:#1b1b1b;}.cls-46{fill:#1c1c1c;}.cls-47{fill:#1d1d1d;}.cls-48{fill:#1e1e1e;}.cls-49{fill:#1f1f1f;}.cls-50{fill:#202020;}.cls-51{fill:#212121;}.cls-52{fill:#222;}.cls-53{fill:#232323;}.cls-54{fill:#242424;}.cls-55{fill:#252525;}.cls-56{fill:#262626;}.cls-57{fill:#272727;}.cls-58{fill:#282828;}.cls-59{fill:#292929;}.cls-60{fill:#2a2a2a;}.cls-61{fill:#2b2b2b;}.cls-62{fill:#2c2c2c;}.cls-63{fill:#2d2d2d;}.cls-64{fill:#2e2e2e;}.cls-65{fill:#2f2f2f;}.cls-66{fill:#303030;}.cls-67{fill:#313131;}.cls-68{fill:#323232;}.cls-69{fill:#333;}.cls-70{fill:#343434;}.cls-71{fill:#353535;}.cls-72{fill:#363636;}.cls-73{fill:#373737;}.cls-74{fill:#383838;}.cls-75{fill:#393939;}.cls-76{fill:#3a3a3a;}.cls-77{fill:#3b3b3b;}.cls-78{fill:#3c3c3c;}.cls-79{fill:#3d3d3d;}.cls-80{fill:#3e3e3e;}.cls-81{fill:#3f3f3f;}.cls-82{fill:#404040;}.cls-83{fill:#414141;}.cls-84{fill:#424242;}.cls-85{fill:#434343;}.cls-86{fill:#444;}.cls-87{fill:#454545;}.cls-88{fill:#464646;}.cls-89{fill:#474747;}.cls-90{fill:#484848;}.cls-91{fill:#494949;}.cls-92{fill:#4a4a4a;}.cls-93{fill:#4b4b4b;}.cls-94{fill:#4c4c4c;}.cls-95{fill:#4d4d4d;}.cls-96{fill:#4e4e4e;}.cls-97{fill:#4f4f4f;}.cls-98{fill:#505050;}.cls-99{fill:#515151;}.cls-100{fill:#525252;}.cls-101{fill:#535353;}.cls-102{fill:#545454;}.cls-103{fill:#555;}.cls-104{fill:#565656;}.cls-105{fill:#575757;}.cls-106{fill:#585858;}.cls-107{fill:#595959;}.cls-108{fill:#5a5a5a;}.cls-109{fill:#5b5b5b;}.cls-110{fill:#5c5c5c;}.cls-111{fill:#5d5d5d;}.cls-112{fill:#5f5f5f;}.cls-113{fill:#606060;}.cls-114{fill:#616161;}.cls-115{fill:#626262;}.cls-116{fill:#636363;}.cls-117{fill:#646464;}.cls-118{fill:#656565;}.cls-119{fill:#666;}.cls-120{fill:#676767;}.cls-121{fill:#686868;}.cls-122{fill:#696969;}.cls-123{fill:#6a6a6a;}.cls-124{fill:#6c6c6c;}.cls-125{fill:#6d6d6d;}.cls-126{fill:#6e6e6e;}.cls-127{fill:#6f6f6f;}.cls-128{fill:#707070;}.cls-129{fill:#717171;}.cls-130{fill:#727272;}.cls-131{fill:#737373;}.cls-132{fill:#747474;}.cls-133{fill:#767676;}.cls-134{fill:#777;}.cls-135{fill:#787878;}.cls-136{fill:#797979;}.cls-137{fill:#7a7a7a;}.cls-138{fill:#7b7b7b;}.cls-139{fill:#7c7c7c;}.cls-140{fill:#7d7d7d;}.cls-141{fill:#7f7f7f;}.cls-142{fill:gray;}.cls-143{fill:#818181;}.cls-144{fill:#828282;}.cls-145{fill:#838383;}.cls-146{fill:#848484;}.cls-147{fill:#868686;}.cls-148{fill:#878787;}.cls-149{fill:#888;}.cls-150{fill:#898989;}.cls-151{fill:#8a8a8a;}.cls-152{fill:#8b8b8b;}.cls-153{fill:#8d8d8d;}.cls-154{fill:#8e8e8e;}.cls-155{fill:#8f8f8f;}.cls-156{fill:#909090;}.cls-157{fill:#919191;}.cls-158{fill:#929292;}.cls-159{fill:#949494;}.cls-160{fill:#959595;}.cls-161{fill:#969696;}.cls-162{fill:#979797;}.cls-163{fill:#989898;}.cls-164{fill:#9a9a9a;}.cls-165{fill:#9b9b9b;}.cls-166{fill:#9c9c9c;}.cls-167{fill:#9d9d9d;}.cls-168{fill:#9e9e9e;}.cls-169{fill:#a0a0a0;}.cls-170{fill:#a1a1a1;}.cls-171{fill:#a2a2a2;}.cls-172{fill:#a3a3a3;}.cls-173{fill:#a4a4a4;}.cls-174{fill:#a6a6a6;}.cls-175{fill:#a7a7a7;}.cls-176{fill:#a8a8a8;}.cls-177{fill:#a9a9a9;}.cls-178{fill:#ababab;}.cls-179{fill:#acacac;}.cls-180{fill:#adadad;}.cls-181{fill:#aeaeae;}.cls-182{fill:#afafaf;}.cls-183{fill:#b1b1b1;}.cls-184{fill:#b2b2b2;}.cls-185{fill:#b3b3b3;}.cls-186{fill:#b4b4b4;}.cls-187{fill:#b6b6b6;}.cls-188{fill:#b7b7b7;}.cls-189{fill:#b8b8b8;}.cls-190{fill:#b9b9b9;}.cls-191{fill:#bbb;}.cls-192{fill:#bcbcbc;}.cls-193{fill:#bdbdbd;}.cls-194{fill:#bebebe;}.cls-195{fill:silver;}.cls-196{fill:#c1c1c1;}.cls-197{fill:#c2c2c2;}.cls-198{fill:#c3c3c3;}.cls-199{fill:#c5c5c5;}.cls-200{fill:#c6c6c6;}.cls-201{fill:#c7c7c7;}.cls-202{fill:#c8c8c8;}.cls-203{fill:#cacaca;}.cls-204{fill:#cbcbcb;}.cls-205{fill:#ccc;}.cls-206{fill:#cecece;}.cls-207{fill:#cfcfcf;}.cls-208{fill:#d0d0d0;}.cls-209{fill:#d1d1d1;}.cls-210{fill:#d3d3d3;}.cls-211{fill:#d4d4d4;}.cls-212{fill:#d5d5d5;}.cls-213{fill:#d7d7d7;}.cls-214{fill:#d8d8d8;}.cls-215{fill:#d9d9d9;}.cls-216{fill:#dadada;}.cls-217{fill:#dcdcdc;}.cls-218{fill:#ddd;}.cls-219{fill:#dedede;}.cls-220{fill:#e0e0e0;}.cls-221{fill:#e1e1e1;}.cls-222{fill:url(#Degradado_sin_nombre_63);}.cls-223{clip-path:url(#clip-path-2);}.cls-224{fill:url(#Degradado_sin_nombre_63-2);}.cls-225{fill:url(#Degradado_sin_nombre_63-3);}.cls-226{fill:url(#Degradado_sin_nombre_75);}.cls-227{fill:#de051e;}.cls-228{fill:url(#Degradado_sin_nombre_120);}.cls-229{fill:#e01029;}.cls-230{fill:url(#Degradado_sin_nombre_75-2);}.cls-231{fill:url(#Degradado_sin_nombre_95);}.cls-232{fill:url(#Degradado_sin_nombre_91);}.cls-233{fill:url(#Degradado_sin_nombre_86);}.cls-234{fill:url(#Degradado_sin_nombre_105);}.cls-235{fill:url(#Degradado_sin_nombre_109);}.cls-236{fill:#05633a;}.cls-237{fill:url(#Degradado_sin_nombre_109-2);}.cls-238{fill:url(#Degradado_sin_nombre_31);}.cls-239{fill:url(#Degradado_sin_nombre_25);}.cls-240{fill:#1d3969;}.cls-241{fill:url(#Degradado_sin_nombre_6);}.cls-242{fill:url(#Degradado_sin_nombre_6-2);}.cls-243{fill:url(#Degradado_sin_nombre_6-3);}.cls-244{fill:#fff;}.cls-245{fill:#2bafcb;}.cls-246{fill:url(#_ÂÁ_Ï_ÌÌ_È_ËÂÌÚ_95);}.cls-247{fill:url(#_ÂÁ_Ï_ÌÌ_È_ËÂÌÚ_49);}.cls-248{fill:url(#_ÂÁ_Ï_ÌÌ_È_ËÂÌÚ_95-2);}.cls-249,.cls-250{fill:#7e7f7f;}.cls-249,.cls-251{mix-blend-mode:color-dodge;}.cls-251,.cls-252{fill:#a5a5a5;}.cls-253{fill:url(#_ÂÁ_Ï_ÌÌ_È_ËÂÌÚ_79);}.cls-254{fill:url(#_ÂÁ_Ï_ÌÌ_È_ËÂÌÚ_95-3);}.cls-255{fill:url(#_ÂÁ_Ï_ÌÌ_È_ËÂÌÚ_95-4);}.cls-256{fill:url(#_ÂÁ_Ï_ÌÌ_È_ËÂÌÚ_95-5);}.cls-257{fill:url(#_ÂÁ_Ï_ÌÌ_È_ËÂÌÚ_79-2);}</style>
    <linearGradient
       id="Degradado_sin_nombre_13"
       x1="301.64999"
       y1="24.9"
       x2="307.98001"
       y2="24.9"
       gradientUnits="userSpaceOnUse">
      <stop
         offset="0"
         stop-color="#fff"
         id="stop28982" />
      <stop
         offset="0.22"
         stop-color="#e1e1e1"
         id="stop28984" />
      <stop
         offset="0.66"
         stop-color="#a3a4a4"
         id="stop28986" />
      <stop
         offset="1"
         stop-color="#e1e1e1"
         id="stop28988" />
    </linearGradient>
    <linearGradient
       id="Degradado_sin_nombre_13-2"
       x1="298.73999"
       y1="25.809999"
       x2="302.39999"
       y2="25.809999"
       xlink:href="#Degradado_sin_nombre_13" />
    <linearGradient
       id="Degradado_sin_nombre_13-3"
       x1="297.67001"
       y1="24.299999"
       x2="301.35001"
       y2="24.299999"
       xlink:href="#Degradado_sin_nombre_13" />
    <linearGradient
       id="Degradado_sin_nombre_13-4"
       x1="296.95999"
       y1="23.139999"
       x2="299.87"
       y2="23.139999"
       xlink:href="#Degradado_sin_nombre_13" />
    <linearGradient
       id="Degradado_sin_nombre_35"
       x1="277.75"
       y1="34.119999"
       x2="296.09"
       y2="34.119999"
       gradientUnits="userSpaceOnUse">
      <stop
         offset="0.49"
         stop-color="#a3a4a4"
         id="stop28994" />
      <stop
         offset="0.5"
         stop-color="#a5a6a6"
         id="stop28996" />
      <stop
         offset="0.71"
         stop-color="#c6c6c6"
         id="stop28998" />
      <stop
         offset="0.88"
         stop-color="#dadada"
         id="stop29000" />
      <stop
         offset="1"
         stop-color="#e1e1e1"
         id="stop29002" />
    </linearGradient>
    <linearGradient
       id="Degradado_sin_nombre_37"
       x1="273.73999"
       y1="23.139999"
       x2="286.19"
       y2="23.139999"
       gradientUnits="userSpaceOnUse">
      <stop
         offset="0.02"
         stop-color="#e1e1e1"
         id="stop29005" />
      <stop
         offset="0.67"
         stop-color="#a3a4a4"
         id="stop29007" />
      <stop
         offset="0.68"
         stop-color="#a5a6a6"
         id="stop29009" />
      <stop
         offset="0.81"
         stop-color="#c6c6c6"
         id="stop29011" />
      <stop
         offset="0.92"
         stop-color="#dadada"
         id="stop29013" />
      <stop
         offset="1"
         stop-color="#e1e1e1"
         id="stop29015" />
    </linearGradient>
    <linearGradient
       id="Degradado_sin_nombre_35-2"
       x1="266.45999"
       y1="24.530001"
       x2="280.53"
       y2="24.530001"
       xlink:href="#Degradado_sin_nombre_35" />
    <linearGradient
       id="Degradado_sin_nombre_44"
       x1="294.23001"
       y1="31.01"
       x2="294.35999"
       y2="42.48"
       gradientUnits="userSpaceOnUse">
      <stop
         offset="0"
         stop-color="#f2f1f1"
         id="stop29019" />
      <stop
         offset="0.17"
         stop-color="#e8e8e8"
         id="stop29021" />
      <stop
         offset="0.38"
         stop-color="#e1e1e1"
         id="stop29023" />
      <stop
         offset="1"
         stop-color="#a3a4a4"
         id="stop29025" />
    </linearGradient>
    <clipPath
       id="clip-path">
      <path
         class="cls-1"
         d="m 267.77,52.79 a 2,2 0 1 1 -4,0 z"
         id="path29028" />
    </clipPath>
    <radialGradient
       id="Degradado_sin_nombre_63"
       cx="265.79999"
       cy="49.610001"
       r="2.72"
       gradientUnits="userSpaceOnUse">
      <stop
         offset="0"
         stop-color="#e1e1e1"
         id="stop29031" />
      <stop
         offset="0.28"
         stop-color="#939393"
         id="stop29033" />
      <stop
         offset="0.53"
         stop-color="#545454"
         id="stop29035" />
      <stop
         offset="0.74"
         stop-color="#262626"
         id="stop29037" />
      <stop
         offset="0.91"
         stop-color="#0a0a0a"
         id="stop29039" />
      <stop
         offset="1"
         id="stop29041" />
    </radialGradient>
    <clipPath
       id="clip-path-2">
      <path
         class="cls-1"
         d="m 302.61,52.79 a 2,2 0 1 1 -4,0 z"
         id="path29044" />
    </clipPath>
    <radialGradient
       id="Degradado_sin_nombre_63-2"
       cx="300.64999"
       cy="49.610001"
       r="2.72"
       xlink:href="#Degradado_sin_nombre_63" />
    <radialGradient
       id="Degradado_sin_nombre_63-3"
       cx="283.26001"
       cy="46.330002"
       r="12.3"
       xlink:href="#Degradado_sin_nombre_63" />
    <radialGradient
       id="Degradado_sin_nombre_75"
       cx="305.72"
       cy="43.029999"
       r="8.3400002"
       gradientUnits="userSpaceOnUse">
      <stop
         offset="0"
         stop-color="#a31f24"
         id="stop29049" />
      <stop
         offset="0.24"
         stop-color="#b61622"
         id="stop29051" />
      <stop
         offset="0.48"
         stop-color="#ce0c1f"
         id="stop29053" />
      <stop
         offset="0.8"
         stop-color="#b01923"
         id="stop29055" />
      <stop
         offset="1"
         stop-color="#a31f24"
         id="stop29057" />
    </radialGradient>
    <linearGradient
       id="Degradado_sin_nombre_120"
       x1="305.17001"
       y1="35.220001"
       x2="308.51001"
       y2="35.220001"
       gradientUnits="userSpaceOnUse">
      <stop
         offset="0"
         stop-color="#a31f24"
         id="stop29060" />
      <stop
         offset="0.04"
         stop-color="#b61622"
         id="stop29062" />
      <stop
         offset="0.08"
         stop-color="#ce0c1f"
         id="stop29064" />
      <stop
         offset="0.19"
         stop-color="#da3e4f"
         id="stop29066" />
      <stop
         offset="0.31"
         stop-color="#e67483"
         id="stop29068" />
      <stop
         offset="0.41"
         stop-color="#ee95a4"
         id="stop29070" />
      <stop
         offset="0.46"
         stop-color="#f1a2b0"
         id="stop29072" />
      <stop
         offset="0.89"
         stop-color="#ce0c1f"
         id="stop29074" />
      <stop
         offset="0.96"
         stop-color="#b01923"
         id="stop29076" />
      <stop
         offset="1"
         stop-color="#a31f24"
         id="stop29078" />
    </linearGradient>
    <radialGradient
       id="Degradado_sin_nombre_75-2"
       cx="283.76001"
       cy="59.029999"
       r="13.39"
       xlink:href="#Degradado_sin_nombre_75" />
    <linearGradient
       id="Degradado_sin_nombre_95"
       x1="296.34"
       y1="56.259998"
       x2="301.95999"
       y2="56.259998"
       gradientUnits="userSpaceOnUse">
      <stop
         offset="0"
         stop-color="#a31f24"
         id="stop29082" />
      <stop
         offset="0.19"
         stop-color="#b62521"
         id="stop29084" />
      <stop
         offset="0.49"
         stop-color="#dc321a"
         id="stop29086" />
      <stop
         offset="1"
         stop-color="#a31f24"
         id="stop29088" />
    </linearGradient>
    <linearGradient
       id="Degradado_sin_nombre_91"
       x1="265.56"
       y1="55.790001"
       x2="270.57001"
       y2="55.790001"
       gradientUnits="userSpaceOnUse">
      <stop
         offset="0.01"
         stop-color="#e1162e"
         id="stop29091" />
      <stop
         offset="0.06"
         stop-color="#e83851"
         id="stop29093" />
      <stop
         offset="0.12"
         stop-color="#f2657e"
         id="stop29095" />
      <stop
         offset="0.18"
         stop-color="#f985a0"
         id="stop29097" />
      <stop
         offset="0.23"
         stop-color="#fd99b4"
         id="stop29099" />
      <stop
         offset="0.27"
         stop-color="#ffa0bb"
         id="stop29101" />
      <stop
         offset="0.4"
         stop-color="#f694a9"
         id="stop29103" />
      <stop
         offset="0.53"
         stop-color="#ef8c9c"
         id="stop29105" />
      <stop
         offset="0.57"
         stop-color="#ee8697"
         id="stop29107" />
      <stop
         offset="0.85"
         stop-color="#ea6578"
         id="stop29109" />
      <stop
         offset="1"
         stop-color="#e9586c"
         id="stop29111" />
    </linearGradient>
    <linearGradient
       id="Degradado_sin_nombre_86"
       x1="269.23001"
       y1="57.91"
       x2="298.39001"
       y2="57.91"
       gradientUnits="userSpaceOnUse">
      <stop
         offset="0.01"
         stop-color="#e1162e"
         id="stop29114" />
      <stop
         offset="0.05"
         stop-color="#e22239"
         id="stop29116" />
      <stop
         offset="0.2"
         stop-color="#e84f64"
         id="stop29118" />
      <stop
         offset="0.34"
         stop-color="#ec7182"
         id="stop29120" />
      <stop
         offset="0.45"
         stop-color="#ee8595"
         id="stop29122" />
      <stop
         offset="0.53"
         stop-color="#ef8c9c"
         id="stop29124" />
      <stop
         offset="0.57"
         stop-color="#ee8697"
         id="stop29126" />
      <stop
         offset="0.85"
         stop-color="#ea6578"
         id="stop29128" />
      <stop
         offset="1"
         stop-color="#e9586c"
         id="stop29130" />
    </linearGradient>
    <linearGradient
       id="Degradado_sin_nombre_105"
       x1="258.88"
       y1="32.419998"
       x2="301.89001"
       y2="32.419998"
       gradientUnits="userSpaceOnUse">
      <stop
         offset="0.18"
         stop-color="#01743a"
         id="stop29133" />
      <stop
         offset="0.44"
         stop-color="#1b9936"
         id="stop29135" />
    </linearGradient>
    <linearGradient
       id="Degradado_sin_nombre_109"
       x1="260.95999"
       y1="31.27"
       x2="298"
       y2="31.27"
       gradientUnits="userSpaceOnUse">
      <stop
         offset="0"
         stop-color="#0a4a3a"
         id="stop29138" />
      <stop
         offset="0.44"
         stop-color="#1b9936"
         id="stop29140" />
      <stop
         offset="1"
         stop-color="#0a4a3a"
         id="stop29142" />
    </linearGradient>
    <linearGradient
       id="Degradado_sin_nombre_109-2"
       x1="262.60001"
       y1="49.580002"
       x2="264.70001"
       y2="49.580002"
       xlink:href="#Degradado_sin_nombre_109" />
    <linearGradient
       id="Degradado_sin_nombre_31"
       x1="302.51999"
       y1="31.459999"
       x2="305.70999"
       y2="31.459999"
       gradientUnits="userSpaceOnUse">
      <stop
         offset="0.52"
         stop-color="#a3a4a4"
         id="stop29146" />
      <stop
         offset="0.65"
         stop-color="#afafaf"
         id="stop29148" />
      <stop
         offset="0.88"
         stop-color="#cdcece"
         id="stop29150" />
      <stop
         offset="1"
         stop-color="#e1e1e1"
         id="stop29152" />
    </linearGradient>
    <linearGradient
       id="Degradado_sin_nombre_25"
       x1="266.70001"
       y1="44.380001"
       x2="308.16"
       y2="44.380001"
       gradientUnits="userSpaceOnUse">
      <stop
         offset="0"
         stop-color="#e1e1e1"
         id="stop29155" />
      <stop
         offset="0.13"
         stop-color="#ddd"
         id="stop29157" />
      <stop
         offset="0.25"
         stop-color="#d1d2d2"
         id="stop29159" />
      <stop
         offset="0.37"
         stop-color="#bebfbf"
         id="stop29161" />
      <stop
         offset="0.49"
         stop-color="#a3a4a4"
         id="stop29163" />
      <stop
         offset="0.53"
         stop-color="#b1b1b1"
         id="stop29165" />
      <stop
         offset="0.62"
         stop-color="#c6c6c6"
         id="stop29167" />
      <stop
         offset="0.72"
         stop-color="#d5d5d5"
         id="stop29169" />
      <stop
         offset="0.83"
         stop-color="#dedede"
         id="stop29171" />
      <stop
         offset="1"
         stop-color="#e1e1e1"
         id="stop29173" />
    </linearGradient>
    <linearGradient
       id="Degradado_sin_nombre_6"
       x1="538.44"
       y1="10.82"
       x2="538.44"
       y2="39.860001"
       gradientUnits="userSpaceOnUse">
      <stop
         offset="0.04"
         stop-color="#6eebf5"
         id="stop29176" />
      <stop
         offset="0.47"
         stop-color="#2862bf"
         id="stop29178" />
      <stop
         offset="0.89"
         stop-color="#133799"
         id="stop29180" />
    </linearGradient>
    <linearGradient
       id="Degradado_sin_nombre_6-2"
       x1="548.71002"
       y1="6.96"
       x2="548.71002"
       y2="39.860001"
       xlink:href="#Degradado_sin_nombre_6" />
    <linearGradient
       id="Degradado_sin_nombre_6-3"
       x1="559.08002"
       y1="3.4300001"
       x2="559.08002"
       y2="39.860001"
       xlink:href="#Degradado_sin_nombre_6" />
    <radialGradient
       id="_ÂÁ_Ï_ÌÌ_È_ËÂÌÚ_95"
       cx="458.09"
       cy="31.15"
       r="6.4299998"
       gradientTransform="matrix(1.04,0,0,1.05,-32.39,-18.42)"
       gradientUnits="userSpaceOnUse">
      <stop
         offset="0"
         stop-color="#ae2c75"
         id="stop29185" />
      <stop
         offset="1"
         stop-color="#800c59"
         id="stop29187" />
    </radialGradient>
    <radialGradient
       id="_ÂÁ_Ï_ÌÌ_È_ËÂÌÚ_49"
       cx="439.69"
       cy="35.110001"
       r="3.8699999"
       gradientTransform="matrix(1.04,0,0,1.05,-32.39,-18.42)"
       gradientUnits="userSpaceOnUse">
      <stop
         offset="0"
         stop-color="#c8a6d1"
         id="stop29190" />
      <stop
         offset="1"
         stop-color="#8973b5"
         id="stop29192" />
    </radialGradient>
    <radialGradient
       id="_ÂÁ_Ï_ÌÌ_È_ËÂÌÚ_95-2"
       cx="353.25"
       cy="49.080002"
       r="3.95"
       xlink:href="#_%C3%82%C3%81_%C3%8F_%C3%8C%C3%8C_%C3%88_%C3%8B%C3%82%C3%8C%C3%9A_95" />
    <radialGradient
       id="_ÂÁ_Ï_ÌÌ_È_ËÂÌÚ_79"
       cx="439.60001"
       cy="72.18"
       r="2.51"
       gradientTransform="matrix(1.04,0,0,1.05,-32.39,-18.42)"
       gradientUnits="userSpaceOnUse">
      <stop
         offset="0"
         stop-color="#86cfb9"
         id="stop29196" />
      <stop
         offset="1"
         stop-color="#5b8bbf"
         id="stop29198" />
    </radialGradient>
    <radialGradient
       id="_ÂÁ_Ï_ÌÌ_È_ËÂÌÚ_95-3"
       cx="394.5"
       cy="59.049999"
       r="7.8000002"
       xlink:href="#_%C3%82%C3%81_%C3%8F_%C3%8C%C3%8C_%C3%88_%C3%8B%C3%82%C3%8C%C3%9A_95" />
    <radialGradient
       id="_ÂÁ_Ï_ÌÌ_È_ËÂÌÚ_95-4"
       cx="402.91"
       cy="39.700001"
       r="7.8600001"
       xlink:href="#_%C3%82%C3%81_%C3%8F_%C3%8C%C3%8C_%C3%88_%C3%8B%C3%82%C3%8C%C3%9A_95" />
    <radialGradient
       id="_ÂÁ_Ï_ÌÌ_È_ËÂÌÚ_95-5"
       cx="363.17999"
       cy="59.419998"
       r="7.8000002"
       xlink:href="#_%C3%82%C3%81_%C3%8F_%C3%8C%C3%8C_%C3%88_%C3%8B%C3%82%C3%8C%C3%9A_95" />
    <radialGradient
       id="_ÂÁ_Ï_ÌÌ_È_ËÂÌÚ_79-2"
       cx="386.62"
       cy="72.18"
       r="2.51"
       xlink:href="#_%C3%82%C3%81_%C3%8F_%C3%8C%C3%8C_%C3%88_%C3%8B%C3%82%C3%8C%C3%9A_79" />
    <linearGradient
       inkscape:collect="always"
       xlink:href="#Degradado_sin_nombre_6"
       id="linearGradient31286"
       gradientUnits="userSpaceOnUse"
       x1="538.44"
       y1="10.82"
       x2="538.44"
       y2="39.860001" />
    <radialGradient
       inkscape:collect="always"
       xlink:href="#_%C3%82%C3%81_%C3%8F_%C3%8C%C3%8C_%C3%88_%C3%8B%C3%82%C3%8C%C3%9A_95"
       id="radialGradient31288"
       gradientUnits="userSpaceOnUse"
       gradientTransform="matrix(1.04,0,0,1.05,-32.39,-18.42)"
       cx="470.10922"
       cy="26.728231"
       r="6.4299998"
       fx="364193.59"
       fy="2176.0789" />
  </defs>
  <title
     id="title29207">Cintillo SENAP</title>
  <path
     class="cls-240"
     d="m 31.39,17 a 4.58,4.58 0 0 0 -1,-0.69 18.21,18.21 0 0 0 -2.06,-1.05 20,20 0 0 0 -2.7,-1 10.76,10.76 0 0 0 -2.92,-0.41 q -4,0 -4,2.7 a 2.13,2.13 0 0 0 0.43,1.37 3.79,3.79 0 0 0 1.28,1 11.7,11.7 0 0 0 2.12,0.8 l 3,0.82 a 39.07,39.07 0 0 1 4.2,1.39 11.36,11.36 0 0 1 3.18,1.87 7.63,7.63 0 0 1 2,2.72 9.47,9.47 0 0 1 0.71,3.84 9.61,9.61 0 0 1 -1,4.64 8.64,8.64 0 0 1 -2.72,3.06 A 11.47,11.47 0 0 1 28,39.79 19.41,19.41 0 0 1 23.48,40.31 25.29,25.29 0 0 1 19.82,40.04 26.55,26.55 0 0 1 16.17,39.24 29,29 0 0 1 12.72,38 19.2,19.2 0 0 1 9.64,36.31 l 3.29,-6.53 a 6.32,6.32 0 0 0 1.19,0.87 17.72,17.72 0 0 0 2.49,1.28 25.2,25.2 0 0 0 3.31,1.07 13.82,13.82 0 0 0 3.7,0.5 q 4,0 4,-2.42 A 2,2 0 0 0 27.03,29.57 5.59,5.59 0 0 0 25.39,28.5 18,18 0 0 0 22.9,27.61 L 19.77,26.7 a 26.93,26.93 0 0 1 -3.88,-1.48 10.23,10.23 0 0 1 -2.72,-1.85 6.73,6.73 0 0 1 -1.6,-2.42 8.94,8.94 0 0 1 -0.52,-3.2 10.19,10.19 0 0 1 1,-4.52 9.81,9.81 0 0 1 2.61,-3.31 11.36,11.36 0 0 1 3.82,-2 15.16,15.16 0 0 1 4.52,-0.69 17.4,17.4 0 0 1 3.33,0.32 25.16,25.16 0 0 1 3.15,0.82 22.79,22.79 0 0 1 2.81,1.14 q 1.3,0.64 2.4,1.28 z"
     id="path30933"
     style="isolation:isolate" />
  <path
     class="cls-240"
     d="m 62.82,33.37 v 6.58 H 40 V 7.51 h 22.39 v 6.58 H 47.52 v 6.31 h 12.79 v 6.08 H 47.52 v 6.9 z"
     id="path30935"
     style="isolation:isolate" />
  <path
     class="cls-240"
     d="m 110.93,7.51 h 6.76 l 11.83,32.44 h -7.68 l -2.51,-7.26 h -10.1 l -2.47,7.26 h -7.68 z m 7.17,20 -3.79,-11.51 -3.88,11.47 z"
     id="path30937"
     style="isolation:isolate" />
  <path
     class="cls-240"
     d="M 132.72,39.95 V 7.51 h 13.85 a 9.51,9.51 0 0 1 4.27,1 10.93,10.93 0 0 1 3.33,2.49 12,12 0 0 1 2.19,3.52 10.46,10.46 0 0 1 0.8,4 11.36,11.36 0 0 1 -0.75,4.11 11.73,11.73 0 0 1 -2.1,3.52 9.91,9.91 0 0 1 -3.31,2.42 9.75,9.75 0 0 1 -4.25,0.91 h -6.58 v 10.47 z m 7.49,-17 h 6.12 a 2.9,2.9 0 0 0 2.29,-1.14 5.06,5.06 0 0 0 1,-3.33 5.79,5.79 0 0 0 -0.3,-2 4.06,4.06 0 0 0 -0.8,-1.37 3.08,3.08 0 0 0 -1.14,-0.8 3.5,3.5 0 0 0 -1.28,-0.25 h -5.85 z"
     id="path30939"
     style="isolation:isolate" />
  <polygon
     class="cls-241"
     points="542.84,39.87 534.04,39.87 534.04,10.82 542.84,15.48 "
     id="polygon30941"
     style="isolation:isolate;fill:url(#linearGradient31286)"
     transform="translate(-466)" />
  <polygon
     class="cls-242"
     points="553.12,39.87 544.31,39.87 544.31,6.96 553.12,10.86 "
     id="polygon30943"
     style="isolation:isolate;fill:url(#Degradado_sin_nombre_6-2)"
     transform="translate(-466)" />
  <polygon
     class="cls-243"
     points="563.48,39.87 554.67,39.87 554.67,3.43 563.48,8.23 "
     id="polygon30945"
     style="isolation:isolate;fill:url(#Degradado_sin_nombre_6-3)"
     transform="translate(-466)" />
  <polygon
     class="cls-244"
     points="559.04,4.64 561.87,5.66 551.51,34.58 541.19,23.84 535.85,42.54 532.96,41.72 539.73,18 550.32,29.01 "
     id="polygon30947"
     style="isolation:isolate"
     transform="translate(-466)" />
  <path
     class="cls-240"
     d="m 13.32,49.1 a 1.83,1.83 0 0 0 -0.27,-0.2 3.35,3.35 0 0 0 -0.47,-0.25 4.12,4.12 0 0 0 -0.6,-0.2 2.63,2.63 0 0 0 -0.66,-0.08 1.49,1.49 0 0 0 -0.89,0.22 0.73,0.73 0 0 0 -0.29,0.62 0.63,0.63 0 0 0 0.11,0.38 1,1 0 0 0 0.32,0.27 2.68,2.68 0 0 0 0.53,0.21 l 0.74,0.2 q 0.55,0.15 1,0.31 a 2.71,2.71 0 0 1 0.76,0.42 1.75,1.75 0 0 1 0.48,0.6 2,2 0 0 1 0.17,0.87 2.16,2.16 0 0 1 -0.23,1 1.89,1.89 0 0 1 -0.61,0.69 2.66,2.66 0 0 1 -0.88,0.38 4.43,4.43 0 0 1 -1,0.12 A 5.61,5.61 0 0 1 9.87,54.41 5.14,5.14 0 0 1 8.4,53.7 l 0.64,-1.25 a 2,2 0 0 0 0.34,0.25 5.42,5.42 0 0 0 0.58,0.3 4.6,4.6 0 0 0 0.75,0.26 3.38,3.38 0 0 0 0.84,0.1 q 1.2,0 1.2,-0.77 a 0.63,0.63 0 0 0 -0.14,-0.41 1.16,1.16 0 0 0 -0.39,-0.29 3.76,3.76 0 0 0 -0.61,-0.23 l -0.8,-0.23 A 6.81,6.81 0 0 1 9.88,51.11 2.45,2.45 0 0 1 9.22,50.7 1.55,1.55 0 0 1 8.83,50.15 1.9,1.9 0 0 1 8.7,49.41 a 2.31,2.31 0 0 1 0.21,-1 2,2 0 0 1 0.58,-0.73 2.64,2.64 0 0 1 0.87,-0.45 3.56,3.56 0 0 1 1.06,-0.15 4.12,4.12 0 0 1 1.45,0.25 5.4,5.4 0 0 1 1.15,0.58 z"
     id="path30949"
     style="isolation:isolate" />
  <path
     class="cls-240"
     d="m 15.18,48.33 v -1.4 h 1.41 v 1.4 z m 0,6.27 v -5.5 h 1.41 v 5.5 z"
     id="path30951"
     style="isolation:isolate" />
  <path
     class="cls-240"
     d="M 19.93,54.7 A 4.27,4.27 0 0 1 18.58,54.48 3.31,3.31 0 0 1 17.45,53.85 L 18,53 a 4.5,4.5 0 0 0 1,0.54 2.62,2.62 0 0 0 1,0.18 1.2,1.2 0 0 0 0.66,-0.16 0.51,0.51 0 0 0 0.24,-0.45 0.45,0.45 0 0 0 -0.28,-0.43 6.13,6.13 0 0 0 -0.92,-0.32 q -0.54,-0.15 -0.91,-0.28 a 2.34,2.34 0 0 1 -0.61,-0.31 1.06,1.06 0 0 1 -0.34,-0.4 1.27,1.27 0 0 1 -0.1,-0.54 1.71,1.71 0 0 1 0.16,-0.76 1.64,1.64 0 0 1 0.46,-0.57 2.1,2.1 0 0 1 0.69,-0.36 2.78,2.78 0 0 1 0.86,-0.13 3.67,3.67 0 0 1 1.16,0.18 2.83,2.83 0 0 1 1,0.58 l -0.57,0.85 a 3.31,3.31 0 0 0 -0.81,-0.46 2.23,2.23 0 0 0 -0.78,-0.15 1.13,1.13 0 0 0 -0.6,0.15 0.51,0.51 0 0 0 -0.24,0.47 0.45,0.45 0 0 0 0.06,0.24 0.51,0.51 0 0 0 0.18,0.17 1.8,1.8 0 0 0 0.33,0.14 l 0.51,0.14 q 0.57,0.15 1,0.29 a 2.64,2.64 0 0 1 0.66,0.34 1.2,1.2 0 0 1 0.38,0.44 1.34,1.34 0 0 1 0.12,0.59 1.53,1.53 0 0 1 -0.6,1.27 2.57,2.57 0 0 1 -1.78,0.45 z"
     id="path30953"
     style="isolation:isolate" />
  <path
     class="cls-240"
     d="m 26.36,54.31 a 6.46,6.46 0 0 1 -0.69,0.25 2.92,2.92 0 0 1 -0.86,0.13 2,2 0 0 1 -0.55,-0.07 1.21,1.21 0 0 1 -0.45,-0.24 1.16,1.16 0 0 1 -0.31,-0.42 1.52,1.52 0 0 1 -0.12,-0.62 V 50.18 H 22.66 V 49.1 h 0.72 v -1.79 h 1.41 v 1.79 h 1.15 v 1.08 h -1.15 v 2.69 a 0.5,0.5 0 0 0 0.15,0.41 0.58,0.58 0 0 0 0.37,0.12 1.28,1.28 0 0 0 0.43,-0.07 l 0.34,-0.13 z"
     id="path30955"
     style="isolation:isolate" />
  <path
     class="cls-240"
     d="m 29.51,54.7 a 3,3 0 0 1 -1.2,-0.23 2.7,2.7 0 0 1 -1.5,-1.52 2.91,2.91 0 0 1 -0.2,-1.08 3.06,3.06 0 0 1 0.2,-1.11 2.68,2.68 0 0 1 0.58,-0.91 2.74,2.74 0 0 1 0.92,-0.62 3,3 0 0 1 1.21,-0.23 3,3 0 0 1 1.2,0.23 2.75,2.75 0 0 1 0.9,0.62 2.64,2.64 0 0 1 0.57,0.9 3,3 0 0 1 0.19,1.07 q 0,0.14 0,0.26 a 1,1 0 0 1 0,0.21 h -4.25 a 1.61,1.61 0 0 0 0.16,0.58 1.42,1.42 0 0 0 0.78,0.7 1.48,1.48 0 0 0 0.52,0.09 1.62,1.62 0 0 0 0.79,-0.2 1.08,1.08 0 0 0 0.51,-0.54 l 1.21,0.34 a 2.44,2.44 0 0 1 -1,1 3,3 0 0 1 -1.59,0.44 z m 1.43,-3.32 a 1.47,1.47 0 0 0 -0.46,-1 1.43,1.43 0 0 0 -1.95,0 1.45,1.45 0 0 0 -0.31,0.43 1.51,1.51 0 0 0 -0.14,0.56 z"
     id="path30957"
     style="isolation:isolate" />
  <path
     class="cls-240"
     d="m 41.79,54.59 h -1.41 v -3.08 a 1.64,1.64 0 0 0 -0.22,-1 0.74,0.74 0 0 0 -0.62,-0.3 1.18,1.18 0 0 0 -0.79,0.32 1.76,1.76 0 0 0 -0.53,0.83 v 3.2 h -1.41 v -3.05 a 1.64,1.64 0 0 0 -0.22,-1 0.74,0.74 0 0 0 -0.63,-0.3 1.19,1.19 0 0 0 -0.78,0.32 1.71,1.71 0 0 0 -0.53,0.83 v 3.21 H 33.24 V 49.1 h 1.27 v 1 a 2.11,2.11 0 0 1 0.83,-0.82 2.5,2.5 0 0 1 1.21,-0.29 1.56,1.56 0 0 1 1.07,0.34 1.5,1.5 0 0 1 0.48,0.83 2.37,2.37 0 0 1 0.85,-0.87 2.29,2.29 0 0 1 1.17,-0.3 1.64,1.64 0 0 1 0.83,0.19 1.37,1.37 0 0 1 0.5,0.49 2.07,2.07 0 0 1 0.25,0.69 4.53,4.53 0 0 1 0.07,0.79 z"
     id="path30959"
     style="isolation:isolate" />
  <path
     class="cls-240"
     d="m 44.52,54.7 a 2.09,2.09 0 0 1 -0.75,-0.13 1.79,1.79 0 0 1 -0.6,-0.37 1.71,1.71 0 0 1 -0.39,-0.55 1.66,1.66 0 0 1 -0.14,-0.69 1.53,1.53 0 0 1 0.17,-0.72 1.65,1.65 0 0 1 0.48,-0.56 2.41,2.41 0 0 1 0.74,-0.36 3.23,3.23 0 0 1 0.94,-0.13 4.1,4.1 0 0 1 0.72,0.06 3,3 0 0 1 0.62,0.18 V 51.12 A 1.1,1.1 0 0 0 46,50.28 a 1.29,1.29 0 0 0 -0.92,-0.29 2.42,2.42 0 0 0 -0.86,0.16 4,4 0 0 0 -0.86,0.46 l -0.43,-0.89 a 4.06,4.06 0 0 1 2.29,-0.7 2.68,2.68 0 0 1 1.84,0.58 2.14,2.14 0 0 1 0.66,1.68 V 53 a 0.5,0.5 0 0 0 0.08,0.32 0.35,0.35 0 0 0 0.26,0.1 v 1.2 a 3.17,3.17 0 0 1 -0.62,0.07 0.94,0.94 0 0 1 -0.61,-0.18 0.77,0.77 0 0 1 -0.27,-0.47 v -0.3 a 2.42,2.42 0 0 1 -0.89,0.73 2.55,2.55 0 0 1 -1.15,0.23 z m 0.4,-1 a 1.82,1.82 0 0 0 0.68,-0.13 1.23,1.23 0 0 0 0.5,-0.34 0.51,0.51 0 0 0 0.23,-0.4 V 52.2 a 3.47,3.47 0 0 0 -0.55,-0.15 2.92,2.92 0 0 0 -0.57,-0.06 1.5,1.5 0 0 0 -0.89,0.25 0.74,0.74 0 0 0 -0.35,0.62 0.75,0.75 0 0 0 0.27,0.59 1,1 0 0 0 0.68,0.22 z"
     id="path30961"
     style="isolation:isolate" />
  <path
     class="cls-240"
     d="m 56.88,53.32 v 1.27 H 51.7 v -7.45 h 5.08 v 1.27 h -3.63 v 1.8 h 3.14 v 1.17 h -3.14 v 1.94 z"
     id="path30963"
     style="isolation:isolate" />
  <path
     class="cls-240"
     d="m 59.89,54.7 a 4.27,4.27 0 0 1 -1.35,-0.22 3.31,3.31 0 0 1 -1.13,-0.63 l 0.53,-0.88 a 4.5,4.5 0 0 0 1,0.54 2.62,2.62 0 0 0 1,0.18 1.2,1.2 0 0 0 0.66,-0.16 0.51,0.51 0 0 0 0.24,-0.45 0.45,0.45 0 0 0 -0.28,-0.43 6.13,6.13 0 0 0 -0.92,-0.32 Q 59.1,52.18 58.73,52.05 a 2.34,2.34 0 0 1 -0.61,-0.31 1.06,1.06 0 0 1 -0.34,-0.4 1.27,1.27 0 0 1 -0.1,-0.54 1.71,1.71 0 0 1 0.16,-0.76 1.64,1.64 0 0 1 0.46,-0.57 2.1,2.1 0 0 1 0.69,-0.36 2.78,2.78 0 0 1 0.86,-0.13 3.67,3.67 0 0 1 1.16,0.18 2.83,2.83 0 0 1 1,0.58 l -0.57,0.85 a 3.31,3.31 0 0 0 -0.81,-0.46 2.23,2.23 0 0 0 -0.78,-0.15 1.13,1.13 0 0 0 -0.6,0.15 0.51,0.51 0 0 0 -0.24,0.47 0.45,0.45 0 0 0 0.06,0.24 0.51,0.51 0 0 0 0.18,0.17 1.8,1.8 0 0 0 0.33,0.14 l 0.51,0.14 q 0.57,0.15 1,0.29 a 2.64,2.64 0 0 1 0.66,0.34 1.2,1.2 0 0 1 0.38,0.44 1.34,1.34 0 0 1 0.12,0.59 1.53,1.53 0 0 1 -0.6,1.27 2.57,2.57 0 0 1 -1.76,0.48 z"
     id="path30965"
     style="isolation:isolate" />
  <path
     class="cls-240"
     d="m 66.32,54.31 a 6.46,6.46 0 0 1 -0.69,0.25 2.92,2.92 0 0 1 -0.86,0.13 2,2 0 0 1 -0.55,-0.07 1.21,1.21 0 0 1 -0.45,-0.24 1.16,1.16 0 0 1 -0.31,-0.42 1.52,1.52 0 0 1 -0.12,-0.62 V 50.18 H 62.62 V 49.1 h 0.72 v -1.79 h 1.41 v 1.79 h 1.15 v 1.08 h -1.15 v 2.69 a 0.5,0.5 0 0 0 0.15,0.41 0.58,0.58 0 0 0 0.37,0.12 1.28,1.28 0 0 0 0.43,-0.07 l 0.34,-0.13 z"
     id="path30967"
     style="isolation:isolate" />
  <path
     class="cls-240"
     d="m 68.56,54.7 a 2.09,2.09 0 0 1 -0.75,-0.13 1.79,1.79 0 0 1 -0.6,-0.37 1.71,1.71 0 0 1 -0.39,-0.55 1.66,1.66 0 0 1 -0.14,-0.69 1.53,1.53 0 0 1 0.17,-0.72 1.65,1.65 0 0 1 0.48,-0.56 2.41,2.41 0 0 1 0.74,-0.36 3.23,3.23 0 0 1 0.94,-0.13 4.1,4.1 0 0 1 0.72,0.06 3,3 0 0 1 0.62,0.18 v -0.31 a 1.1,1.1 0 0 0 -0.31,-0.84 1.29,1.29 0 0 0 -0.92,-0.29 2.42,2.42 0 0 0 -0.86,0.16 4,4 0 0 0 -0.86,0.46 L 67,49.7 a 4.06,4.06 0 0 1 2.29,-0.7 2.68,2.68 0 0 1 1.84,0.58 2.14,2.14 0 0 1 0.66,1.68 V 53 a 0.5,0.5 0 0 0 0.08,0.32 0.35,0.35 0 0 0 0.26,0.1 v 1.2 a 3.17,3.17 0 0 1 -0.62,0.07 0.94,0.94 0 0 1 -0.61,-0.18 0.77,0.77 0 0 1 -0.27,-0.47 v -0.3 a 2.42,2.42 0 0 1 -0.89,0.73 2.55,2.55 0 0 1 -1.18,0.23 z m 0.4,-1 a 1.82,1.82 0 0 0 0.68,-0.13 1.23,1.23 0 0 0 0.5,-0.34 0.51,0.51 0 0 0 0.23,-0.4 V 52.2 a 3.47,3.47 0 0 0 -0.55,-0.15 2.92,2.92 0 0 0 -0.57,-0.06 1.5,1.5 0 0 0 -0.89,0.25 0.74,0.74 0 0 0 -0.35,0.62 0.75,0.75 0 0 0 0.27,0.59 1,1 0 0 0 0.72,0.22 z"
     id="path30969"
     style="isolation:isolate" />
  <path
     class="cls-240"
     d="m 75.36,54.7 a 2.51,2.51 0 0 1 -1,-0.22 2.48,2.48 0 0 1 -0.83,-0.61 2.85,2.85 0 0 1 -0.54,-0.91 3.18,3.18 0 0 1 -0.19,-1.12 3.29,3.29 0 0 1 0.18,-1.11 2.93,2.93 0 0 1 0.51,-0.9 2.33,2.33 0 0 1 0.78,-0.61 2.21,2.21 0 0 1 1,-0.22 2.09,2.09 0 0 1 1.1,0.29 2.13,2.13 0 0 1 0.76,0.77 v -3.13 h 1.41 v 6 a 0.53,0.53 0 0 0 0.07,0.32 0.33,0.33 0 0 0 0.25,0.1 v 1.2 a 3.23,3.23 0 0 1 -0.6,0.07 1,1 0 0 1 -0.62,-0.19 0.69,0.69 0 0 1 -0.27,-0.49 v -0.35 a 2,2 0 0 1 -0.82,0.79 2.34,2.34 0 0 1 -1.19,0.32 z m 0.37,-1.2 a 1.32,1.32 0 0 0 0.41,-0.07 1.45,1.45 0 0 0 0.39,-0.19 1.7,1.7 0 0 0 0.32,-0.29 1.24,1.24 0 0 0 0.22,-0.37 v -1.31 a 1.52,1.52 0 0 0 -0.24,-0.42 1.77,1.77 0 0 0 -0.35,-0.34 1.86,1.86 0 0 0 -0.41,-0.23 1.18,1.18 0 0 0 -0.43,-0.08 1.28,1.28 0 0 0 -0.58,0.14 1.38,1.38 0 0 0 -0.46,0.37 1.78,1.78 0 0 0 -0.29,0.54 1.93,1.93 0 0 0 -0.1,0.63 1.72,1.72 0 0 0 0.12,0.64 1.67,1.67 0 0 0 0.32,0.51 1.43,1.43 0 0 0 0.48,0.35 1.47,1.47 0 0 0 0.59,0.12 z"
     id="path30971"
     style="isolation:isolate" />
  <path
     class="cls-240"
     d="M 79.85,54.59 V 49.1 h 1.41 v 5.5 z m 1.06,-6.14 -0.9,-0.27 0.57,-1.25 h 1.31 z"
     id="path30973"
     style="isolation:isolate" />
  <path
     class="cls-240"
     d="m 84.6,54.7 a 4.27,4.27 0 0 1 -1.35,-0.22 3.31,3.31 0 0 1 -1.13,-0.63 l 0.53,-0.88 a 4.5,4.5 0 0 0 1,0.54 2.62,2.62 0 0 0 1,0.18 1.2,1.2 0 0 0 0.66,-0.16 0.51,0.51 0 0 0 0.24,-0.45 0.45,0.45 0 0 0 -0.28,-0.43 6.13,6.13 0 0 0 -0.92,-0.32 q -0.54,-0.15 -0.91,-0.28 a 2.34,2.34 0 0 1 -0.61,-0.31 1.06,1.06 0 0 1 -0.34,-0.4 1.27,1.27 0 0 1 -0.1,-0.54 1.71,1.71 0 0 1 0.16,-0.76 1.64,1.64 0 0 1 0.46,-0.57 2.1,2.1 0 0 1 0.69,-0.36 2.78,2.78 0 0 1 0.86,-0.13 3.67,3.67 0 0 1 1.16,0.18 2.83,2.83 0 0 1 1,0.58 l -0.57,0.85 a 3.31,3.31 0 0 0 -0.81,-0.46 2.23,2.23 0 0 0 -0.78,-0.15 1.13,1.13 0 0 0 -0.6,0.15 0.51,0.51 0 0 0 -0.24,0.47 0.45,0.45 0 0 0 0.06,0.24 0.51,0.51 0 0 0 0.18,0.17 1.8,1.8 0 0 0 0.33,0.14 l 0.51,0.14 q 0.57,0.15 1,0.29 a 2.64,2.64 0 0 1 0.66,0.34 1.2,1.2 0 0 1 0.38,0.44 1.34,1.34 0 0 1 0.12,0.59 1.53,1.53 0 0 1 -0.6,1.27 2.57,2.57 0 0 1 -1.76,0.48 z"
     id="path30975"
     style="isolation:isolate" />
  <path
     class="cls-240"
     d="m 91,54.31 a 6.46,6.46 0 0 1 -0.69,0.25 2.92,2.92 0 0 1 -0.86,0.13 2,2 0 0 1 -0.55,-0.07 1.21,1.21 0 0 1 -0.45,-0.24 1.16,1.16 0 0 1 -0.31,-0.42 1.52,1.52 0 0 1 -0.12,-0.62 V 50.18 H 87.3 V 49.1 h 0.72 v -1.79 h 1.41 v 1.79 h 1.15 v 1.08 h -1.15 v 2.69 a 0.5,0.5 0 0 0 0.15,0.41 0.58,0.58 0 0 0 0.37,0.12 1.28,1.28 0 0 0 0.43,-0.07 l 0.34,-0.13 z"
     id="path30977"
     style="isolation:isolate" />
  <path
     class="cls-240"
     d="m 91.77,48.33 v -1.4 h 1.41 v 1.4 z m 0,6.27 v -5.5 h 1.41 v 5.5 z"
     id="path30979"
     style="isolation:isolate" />
  <path
     class="cls-240"
     d="m 94.1,51.84 a 3,3 0 0 1 0.2,-1.09 2.67,2.67 0 0 1 0.58,-0.9 2.8,2.8 0 0 1 0.91,-0.62 A 3,3 0 0 1 97,49 a 2.89,2.89 0 0 1 1.54,0.39 2.47,2.47 0 0 1 1,1 l -1.37,0.42 a 1.24,1.24 0 0 0 -0.47,-0.47 1.39,1.39 0 0 0 -1.22,0 1.38,1.38 0 0 0 -0.46,0.34 1.55,1.55 0 0 0 -0.3,0.52 2,2 0 0 0 -0.11,0.67 1.89,1.89 0 0 0 0.12,0.67 1.7,1.7 0 0 0 0.27,0.46 1.36,1.36 0 0 0 0.46,0.34 1.31,1.31 0 0 0 0.56,0.12 1.35,1.35 0 0 0 0.7,-0.19 1.07,1.07 0 0 0 0.45,-0.46 l 1.37,0.42 a 2.31,2.31 0 0 1 -0.93,1 2.94,2.94 0 0 1 -1.56,0.4 3,3 0 0 1 -1.21,-0.23 2.73,2.73 0 0 1 -1.5,-1.54 3,3 0 0 1 -0.24,-1.02 z"
     id="path30981"
     style="isolation:isolate" />
  <path
     class="cls-240"
     d="m 102.85,54.7 a 3,3 0 0 1 -1.21,-0.23 2.71,2.71 0 0 1 -0.91,-0.62 2.76,2.76 0 0 1 -0.57,-0.91 3,3 0 0 1 -0.2,-1.08 3,3 0 0 1 0.2,-1.09 2.76,2.76 0 0 1 0.57,-0.91 2.69,2.69 0 0 1 0.91,-0.62 3,3 0 0 1 1.21,-0.23 3,3 0 0 1 1.2,0.23 2.71,2.71 0 0 1 0.9,0.62 2.76,2.76 0 0 1 0.57,0.91 3,3 0 0 1 0.2,1.09 3,3 0 0 1 -0.2,1.08 2.81,2.81 0 0 1 -0.57,0.91 2.65,2.65 0 0 1 -0.9,0.62 3,3 0 0 1 -1.2,0.23 z m -1.44,-2.84 a 1.91,1.91 0 0 0 0.11,0.67 1.64,1.64 0 0 0 0.3,0.52 1.36,1.36 0 0 0 0.46,0.34 1.4,1.4 0 0 0 1.13,0 1.38,1.38 0 0 0 0.46,-0.34 1.63,1.63 0 0 0 0.3,-0.53 2,2 0 0 0 0.11,-0.67 1.93,1.93 0 0 0 -0.11,-0.66 1.64,1.64 0 0 0 -0.3,-0.52 1.36,1.36 0 0 0 -0.46,-0.34 1.34,1.34 0 0 0 -0.57,-0.12 1.28,1.28 0 0 0 -0.57,0.13 1.4,1.4 0 0 0 -0.46,0.35 1.61,1.61 0 0 0 -0.3,0.52 1.93,1.93 0 0 0 -0.09,0.64 z"
     id="path30983"
     style="isolation:isolate" />
  <path
     class="cls-240"
     d="m 110.78,49.82 v 4.78 h -1.45 v -7.46 h 1.12 l 3.89,4.86 v -4.85 h 1.45 v 7.44 h -1.17 z"
     id="path30985"
     style="isolation:isolate" />
  <path
     class="cls-240"
     d="m 118.65,54.7 a 2.09,2.09 0 0 1 -0.75,-0.13 1.79,1.79 0 0 1 -0.6,-0.37 1.71,1.71 0 0 1 -0.39,-0.55 1.66,1.66 0 0 1 -0.14,-0.69 1.53,1.53 0 0 1 0.17,-0.72 1.65,1.65 0 0 1 0.48,-0.56 2.41,2.41 0 0 1 0.74,-0.36 3.23,3.23 0 0 1 0.94,-0.13 4.1,4.1 0 0 1 0.72,0.06 3,3 0 0 1 0.62,0.18 v -0.31 a 1.1,1.1 0 0 0 -0.31,-0.84 1.29,1.29 0 0 0 -0.92,-0.29 2.42,2.42 0 0 0 -0.86,0.16 4,4 0 0 0 -0.86,0.46 l -0.43,-0.89 a 4.06,4.06 0 0 1 2.29,-0.7 2.68,2.68 0 0 1 1.84,0.58 2.14,2.14 0 0 1 0.66,1.68 V 53 a 0.5,0.5 0 0 0 0.08,0.32 0.35,0.35 0 0 0 0.26,0.1 v 1.2 a 3.17,3.17 0 0 1 -0.62,0.07 0.94,0.94 0 0 1 -0.61,-0.18 0.77,0.77 0 0 1 -0.27,-0.47 v -0.3 a 2.42,2.42 0 0 1 -0.89,0.73 2.55,2.55 0 0 1 -1.15,0.23 z m 0.4,-1 a 1.82,1.82 0 0 0 0.68,-0.13 1.23,1.23 0 0 0 0.5,-0.34 0.51,0.51 0 0 0 0.23,-0.4 V 52.2 a 3.47,3.47 0 0 0 -0.55,-0.15 2.92,2.92 0 0 0 -0.57,-0.06 1.5,1.5 0 0 0 -0.89,0.25 0.74,0.74 0 0 0 -0.35,0.62 0.75,0.75 0 0 0 0.27,0.59 1,1 0 0 0 0.63,0.22 z"
     id="path30987"
     style="isolation:isolate" />
  <path
     class="cls-240"
     d="m 122.83,51.84 a 3,3 0 0 1 0.2,-1.09 2.67,2.67 0 0 1 0.58,-0.9 2.8,2.8 0 0 1 0.91,-0.62 3,3 0 0 1 1.21,-0.23 2.89,2.89 0 0 1 1.54,0.39 2.47,2.47 0 0 1 1,1 l -1.37,0.42 a 1.24,1.24 0 0 0 -0.47,-0.47 1.39,1.39 0 0 0 -1.22,0 1.38,1.38 0 0 0 -0.46,0.34 1.55,1.55 0 0 0 -0.3,0.52 2,2 0 0 0 -0.11,0.67 1.89,1.89 0 0 0 0.12,0.67 1.7,1.7 0 0 0 0.31,0.53 1.36,1.36 0 0 0 0.46,0.34 1.31,1.31 0 0 0 0.56,0.12 1.35,1.35 0 0 0 0.7,-0.19 1.07,1.07 0 0 0 0.45,-0.46 l 1.37,0.42 a 2.31,2.31 0 0 1 -0.93,1 2.94,2.94 0 0 1 -1.56,0.4 3,3 0 0 1 -1.21,-0.23 2.73,2.73 0 0 1 -1.5,-1.54 3,3 0 0 1 -0.28,-1.09 z"
     id="path30989"
     style="isolation:isolate" />
  <path
     class="cls-240"
     d="m 129.09,48.33 v -1.4 h 1.41 v 1.4 z m 0,6.27 v -5.5 h 1.41 v 5.5 z"
     id="path30991"
     style="isolation:isolate" />
  <path
     class="cls-240"
     d="m 134.31,54.7 a 3,3 0 0 1 -1.21,-0.23 2.71,2.71 0 0 1 -0.91,-0.62 2.76,2.76 0 0 1 -0.57,-0.91 3,3 0 0 1 -0.2,-1.08 3,3 0 0 1 0.2,-1.09 2.76,2.76 0 0 1 0.57,-0.91 2.69,2.69 0 0 1 0.91,-0.62 3,3 0 0 1 1.21,-0.23 3,3 0 0 1 1.2,0.23 2.71,2.71 0 0 1 0.9,0.62 2.76,2.76 0 0 1 0.57,0.91 3,3 0 0 1 0.2,1.09 3,3 0 0 1 -0.2,1.08 2.81,2.81 0 0 1 -0.57,0.91 2.65,2.65 0 0 1 -0.9,0.62 3,3 0 0 1 -1.2,0.23 z m -1.44,-2.84 a 1.91,1.91 0 0 0 0.11,0.67 1.64,1.64 0 0 0 0.3,0.52 1.36,1.36 0 0 0 0.46,0.34 1.4,1.4 0 0 0 1.13,0 1.38,1.38 0 0 0 0.46,-0.34 1.63,1.63 0 0 0 0.3,-0.53 2,2 0 0 0 0.11,-0.67 1.93,1.93 0 0 0 -0.11,-0.66 1.64,1.64 0 0 0 -0.3,-0.52 1.36,1.36 0 0 0 -0.46,-0.34 1.34,1.34 0 0 0 -0.57,-0.12 1.28,1.28 0 0 0 -0.57,0.13 1.4,1.4 0 0 0 -0.46,0.35 1.61,1.61 0 0 0 -0.3,0.52 1.93,1.93 0 0 0 -0.1,0.64 z"
     id="path30993"
     style="isolation:isolate" />
  <path
     class="cls-240"
     d="m 143.24,54.59 h -1.41 v -3.08 a 1.6,1.6 0 0 0 -0.23,-1 0.76,0.76 0 0 0 -0.64,-0.3 1.2,1.2 0 0 0 -0.43,0.08 1.58,1.58 0 0 0 -0.41,0.24 1.92,1.92 0 0 0 -0.35,0.36 1.44,1.44 0 0 0 -0.23,0.46 v 3.21 h -1.41 V 49.1 h 1.27 v 1 a 2.09,2.09 0 0 1 0.88,-0.82 2.83,2.83 0 0 1 1.3,-0.29 1.65,1.65 0 0 1 0.84,0.19 1.37,1.37 0 0 1 0.5,0.49 2.07,2.07 0 0 1 0.25,0.69 4.63,4.63 0 0 1 0.07,0.79 z"
     id="path30995"
     style="isolation:isolate" />
  <path
     class="cls-240"
     d="m 146,54.7 a 2.09,2.09 0 0 1 -0.75,-0.13 1.79,1.79 0 0 1 -0.6,-0.37 1.71,1.71 0 0 1 -0.39,-0.55 1.66,1.66 0 0 1 -0.14,-0.69 1.53,1.53 0 0 1 0.17,-0.72 1.65,1.65 0 0 1 0.48,-0.56 2.41,2.41 0 0 1 0.74,-0.36 3.23,3.23 0 0 1 0.94,-0.13 4.1,4.1 0 0 1 0.72,0.06 3,3 0 0 1 0.62,0.18 v -0.31 a 1.1,1.1 0 0 0 -0.31,-0.84 1.29,1.29 0 0 0 -0.92,-0.29 2.42,2.42 0 0 0 -0.86,0.16 4,4 0 0 0 -0.86,0.46 l -0.43,-0.89 a 4.06,4.06 0 0 1 2.29,-0.7 2.68,2.68 0 0 1 1.84,0.58 2.14,2.14 0 0 1 0.66,1.68 V 53 a 0.5,0.5 0 0 0 0.08,0.32 0.35,0.35 0 0 0 0.26,0.1 v 1.2 a 3.17,3.17 0 0 1 -0.62,0.07 0.94,0.94 0 0 1 -0.61,-0.18 A 0.77,0.77 0 0 1 148,54 v -0.3 a 2.42,2.42 0 0 1 -0.89,0.73 2.55,2.55 0 0 1 -1.11,0.27 z m 0.4,-1 a 1.82,1.82 0 0 0 0.68,-0.13 1.23,1.23 0 0 0 0.5,-0.34 0.51,0.51 0 0 0 0.23,-0.4 V 52.2 a 3.47,3.47 0 0 0 -0.55,-0.15 2.92,2.92 0 0 0 -0.57,-0.06 1.5,1.5 0 0 0 -0.89,0.25 0.74,0.74 0 0 0 -0.35,0.62 0.75,0.75 0 0 0 0.27,0.59 1,1 0 0 0 0.65,0.22 z"
     id="path30997"
     style="isolation:isolate" />
  <path
     class="cls-240"
     d="m 150.48,46.93 h 1.41 v 5.9 a 0.69,0.69 0 0 0 0.15,0.47 0.53,0.53 0 0 0 0.42,0.17 1.05,1.05 0 0 0 0.28,0 l 0.29,-0.1 0.19,1.07 a 2.72,2.72 0 0 1 -0.66,0.21 3.64,3.64 0 0 1 -0.68,0.07 1.41,1.41 0 0 1 -1,-0.35 1.33,1.33 0 0 1 -0.36,-1 z"
     id="path30999"
     style="isolation:isolate" />
  <path
     class="cls-240"
     d="m 17.41,66 a 2.51,2.51 0 0 1 -1,-0.22 2.48,2.48 0 0 1 -0.83,-0.61 2.85,2.85 0 0 1 -0.54,-0.91 3.18,3.18 0 0 1 -0.19,-1.12 3.29,3.29 0 0 1 0.18,-1.11 2.93,2.93 0 0 1 0.51,-0.9 2.33,2.33 0 0 1 0.78,-0.61 2.21,2.21 0 0 1 1,-0.22 2.09,2.09 0 0 1 1.1,0.29 2.13,2.13 0 0 1 0.76,0.77 v -3.08 h 1.41 v 6 a 0.53,0.53 0 0 0 0.07,0.32 0.33,0.33 0 0 0 0.25,0.1 v 1.2 a 3.23,3.23 0 0 1 -0.6,0.07 1,1 0 0 1 -0.62,-0.19 0.69,0.69 0 0 1 -0.27,-0.49 V 64.94 A 2,2 0 0 1 18.6,65.73 2.34,2.34 0 0 1 17.41,66 Z m 0.37,-1.2 a 1.32,1.32 0 0 0 0.41,-0.07 1.45,1.45 0 0 0 0.39,-0.19 1.7,1.7 0 0 0 0.32,-0.29 1.24,1.24 0 0 0 0.22,-0.37 v -1.27 a 1.52,1.52 0 0 0 -0.24,-0.42 1.77,1.77 0 0 0 -0.35,-0.34 1.86,1.86 0 0 0 -0.41,-0.23 1.18,1.18 0 0 0 -0.43,-0.08 1.28,1.28 0 0 0 -0.58,0.14 1.38,1.38 0 0 0 -0.46,0.37 1.78,1.78 0 0 0 -0.29,0.54 1.93,1.93 0 0 0 -0.1,0.63 1.72,1.72 0 0 0 0.12,0.64 1.67,1.67 0 0 0 0.32,0.51 1.43,1.43 0 0 0 0.48,0.35 1.47,1.47 0 0 0 0.6,0.13 z"
     id="path31001"
     style="isolation:isolate" />
  <path
     class="cls-240"
     d="m 24.45,66 a 3,3 0 0 1 -1.2,-0.23 2.7,2.7 0 0 1 -1.5,-1.52 2.91,2.91 0 0 1 -0.2,-1.08 3.06,3.06 0 0 1 0.2,-1.11 2.68,2.68 0 0 1 0.58,-0.91 2.74,2.74 0 0 1 0.92,-0.62 3,3 0 0 1 1.21,-0.23 3,3 0 0 1 1.2,0.23 2.75,2.75 0 0 1 0.9,0.62 2.64,2.64 0 0 1 0.57,0.9 3,3 0 0 1 0.19,1.07 q 0,0.14 0,0.26 a 1,1 0 0 1 0,0.21 H 23 a 1.61,1.61 0 0 0 0.16,0.58 1.42,1.42 0 0 0 0.78,0.7 1.48,1.48 0 0 0 0.52,0.09 1.62,1.62 0 0 0 0.79,-0.2 1.08,1.08 0 0 0 0.51,-0.54 l 1.21,0.34 a 2.44,2.44 0 0 1 -1,1 3,3 0 0 1 -1.52,0.44 z m 1.43,-3.32 a 1.47,1.47 0 0 0 -0.46,-1 1.43,1.43 0 0 0 -1.95,0 1.45,1.45 0 0 0 -0.31,0.43 1.51,1.51 0 0 0 -0.14,0.56 z"
     id="path31003"
     style="isolation:isolate" />
  <path
     class="cls-240"
     d="M 30.85,65.94 V 58.49 H 34 a 2.12,2.12 0 0 1 1,0.22 2.47,2.47 0 0 1 0.75,0.57 2.69,2.69 0 0 1 0.49,0.8 2.41,2.41 0 0 1 0.18,0.9 2.6,2.6 0 0 1 -0.17,0.92 2.55,2.55 0 0 1 -0.47,0.79 2.33,2.33 0 0 1 -0.73,0.56 2.13,2.13 0 0 1 -0.94,0.21 h -1.76 v 2.5 z M 32.3,62.17 H 34 a 0.83,0.83 0 0 0 0.67,-0.32 1.35,1.35 0 0 0 0.27,-0.88 1.44,1.44 0 0 0 -0.08,-0.51 1.22,1.22 0 0 0 -0.22,-0.38 0.89,0.89 0 0 0 -0.32,-0.24 0.94,0.94 0 0 0 -0.37,-0.08 h -1.62 z"
     id="path31005"
     style="isolation:isolate" />
  <path
     class="cls-240"
     d="m 40.52,61.66 a 2.78,2.78 0 0 0 -1.14,0.25 1.45,1.45 0 0 0 -0.72,0.71 v 3.33 h -1.41 v -5.5 h 1.29 v 1.17 a 2.56,2.56 0 0 1 0.35,-0.51 2.69,2.69 0 0 1 0.43,-0.39 2,2 0 0 1 0.47,-0.26 1.29,1.29 0 0 1 0.46,-0.09 h 0.28 z"
     id="path31007"
     style="isolation:isolate" />
  <path
     class="cls-240"
     d="m 43.58,66 a 3,3 0 0 1 -1.21,-0.23 2.71,2.71 0 0 1 -0.91,-0.62 2.76,2.76 0 0 1 -0.57,-0.91 3,3 0 0 1 -0.2,-1.08 3,3 0 0 1 0.2,-1.09 2.76,2.76 0 0 1 0.57,-0.91 2.69,2.69 0 0 1 0.91,-0.62 3,3 0 0 1 1.21,-0.23 3,3 0 0 1 1.2,0.23 2.71,2.71 0 0 1 0.9,0.62 2.76,2.76 0 0 1 0.57,0.91 3,3 0 0 1 0.2,1.09 3,3 0 0 1 -0.2,1.08 2.81,2.81 0 0 1 -0.57,0.91 2.65,2.65 0 0 1 -0.9,0.62 3,3 0 0 1 -1.2,0.23 z m -1.44,-2.84 a 1.91,1.91 0 0 0 0.11,0.67 1.64,1.64 0 0 0 0.3,0.52 1.36,1.36 0 0 0 0.46,0.34 1.4,1.4 0 0 0 1.13,0 1.38,1.38 0 0 0 0.46,-0.34 1.63,1.63 0 0 0 0.3,-0.53 2,2 0 0 0 0.11,-0.67 1.93,1.93 0 0 0 -0.11,-0.66 1.64,1.64 0 0 0 -0.3,-0.52 1.36,1.36 0 0 0 -0.46,-0.34 1.34,1.34 0 0 0 -0.57,-0.12 1.28,1.28 0 0 0 -0.57,0.13 1.4,1.4 0 0 0 -0.46,0.35 1.61,1.61 0 0 0 -0.3,0.52 1.93,1.93 0 0 0 -0.1,0.69 z"
     id="path31009"
     style="isolation:isolate" />
  <path
     class="cls-240"
     d="m 47.05,63.19 a 3,3 0 0 1 0.2,-1.09 2.67,2.67 0 0 1 0.58,-0.9 2.8,2.8 0 0 1 0.91,-0.62 3,3 0 0 1 1.21,-0.23 2.89,2.89 0 0 1 1.54,0.39 2.47,2.47 0 0 1 1,1 l -1.37,0.42 a 1.24,1.24 0 0 0 -0.47,-0.47 1.39,1.39 0 0 0 -1.22,0 1.38,1.38 0 0 0 -0.46,0.34 1.55,1.55 0 0 0 -0.3,0.52 2,2 0 0 0 -0.11,0.67 1.89,1.89 0 0 0 0.12,0.67 1.7,1.7 0 0 0 0.31,0.53 1.36,1.36 0 0 0 0.46,0.34 1.31,1.31 0 0 0 0.56,0.12 1.35,1.35 0 0 0 0.7,-0.19 1.07,1.07 0 0 0 0.45,-0.46 l 1.37,0.42 a 2.31,2.31 0 0 1 -0.93,1 A 2.94,2.94 0 0 1 50,66 3,3 0 0 1 48.79,65.77 2.73,2.73 0 0 1 47.29,64.23 3,3 0 0 1 47.05,63.19 Z"
     id="path31011"
     style="isolation:isolate" />
  <path
     class="cls-240"
     d="m 55,66 a 1.56,1.56 0 0 1 -1.29,-0.55 2.53,2.53 0 0 1 -0.44,-1.62 v -3.39 h 1.41 v 3.14 q 0,1.27 0.91,1.27 a 1.45,1.45 0 0 0 0.79,-0.25 1.78,1.78 0 0 0 0.63,-0.75 v -3.41 h 1.41 v 3.88 a 0.5,0.5 0 0 0 0.08,0.32 0.35,0.35 0 0 0 0.26,0.1 v 1.2 l -0.35,0.05 H 58.15 A 1,1 0 0 1 57.54,65.82 0.68,0.68 0 0 1 57.26,65.34 V 64.9 A 2.34,2.34 0 0 1 56.32,65.75 2.84,2.84 0 0 1 55,66 Z"
     id="path31013"
     style="isolation:isolate" />
  <path
     class="cls-240"
     d="m 63.08,61.66 a 2.78,2.78 0 0 0 -1.14,0.25 1.45,1.45 0 0 0 -0.72,0.71 v 3.33 H 59.8 v -5.5 h 1.29 v 1.17 a 2.56,2.56 0 0 1 0.35,-0.51 2.69,2.69 0 0 1 0.43,-0.39 2,2 0 0 1 0.47,-0.26 1.29,1.29 0 0 1 0.46,-0.09 h 0.28 z"
     id="path31015"
     style="isolation:isolate" />
  <path
     class="cls-240"
     d="m 65.29,66 a 2.09,2.09 0 0 1 -0.75,-0.13 1.79,1.79 0 0 1 -0.6,-0.37 1.71,1.71 0 0 1 -0.39,-0.55 1.66,1.66 0 0 1 -0.14,-0.69 1.53,1.53 0 0 1 0.17,-0.72 1.65,1.65 0 0 1 0.48,-0.56 2.41,2.41 0 0 1 0.74,-0.36 3.23,3.23 0 0 1 0.94,-0.13 4.1,4.1 0 0 1 0.72,0.06 3,3 0 0 1 0.62,0.18 v -0.31 a 1.1,1.1 0 0 0 -0.31,-0.84 1.29,1.29 0 0 0 -0.92,-0.29 2.42,2.42 0 0 0 -0.86,0.16 4,4 0 0 0 -0.86,0.46 L 63.7,61.02 a 4.06,4.06 0 0 1 2.29,-0.7 2.68,2.68 0 0 1 1.84,0.58 2.14,2.14 0 0 1 0.66,1.68 v 1.71 a 0.5,0.5 0 0 0 0.08,0.32 0.35,0.35 0 0 0 0.26,0.1 v 1.2 A 3.17,3.17 0 0 1 68.21,65.98 0.94,0.94 0 0 1 67.6,65.8 0.77,0.77 0 0 1 67.33,65.33 v -0.3 A 2.42,2.42 0 0 1 66.44,65.76 2.55,2.55 0 0 1 65.29,66 Z m 0.4,-1 a 1.82,1.82 0 0 0 0.68,-0.13 1.23,1.23 0 0 0 0.5,-0.34 0.51,0.51 0 0 0 0.23,-0.4 V 63.5 a 3.47,3.47 0 0 0 -0.55,-0.15 2.92,2.92 0 0 0 -0.57,-0.06 1.5,1.5 0 0 0 -0.89,0.25 0.74,0.74 0 0 0 -0.35,0.62 0.75,0.75 0 0 0 0.27,0.59 1,1 0 0 0 0.68,0.25 z"
     id="path31017"
     style="isolation:isolate" />
  <path
     class="cls-240"
     d="m 69.47,63.19 a 3,3 0 0 1 0.2,-1.09 2.67,2.67 0 0 1 0.58,-0.9 2.8,2.8 0 0 1 0.91,-0.62 3,3 0 0 1 1.21,-0.23 2.89,2.89 0 0 1 1.54,0.39 2.47,2.47 0 0 1 1,1 l -1.37,0.42 a 1.24,1.24 0 0 0 -0.47,-0.47 1.39,1.39 0 0 0 -1.22,0 1.38,1.38 0 0 0 -0.46,0.34 1.55,1.55 0 0 0 -0.3,0.52 2,2 0 0 0 -0.11,0.67 1.89,1.89 0 0 0 0.12,0.67 1.7,1.7 0 0 0 0.31,0.53 1.36,1.36 0 0 0 0.46,0.34 1.31,1.31 0 0 0 0.56,0.12 1.35,1.35 0 0 0 0.7,-0.19 1.07,1.07 0 0 0 0.45,-0.46 l 1.37,0.42 a 2.31,2.31 0 0 1 -0.93,1 2.94,2.94 0 0 1 -1.56,0.4 3,3 0 0 1 -1.21,-0.23 2.73,2.73 0 0 1 -1.5,-1.54 3,3 0 0 1 -0.28,-1.09 z"
     id="path31019"
     style="isolation:isolate" />
  <path
     class="cls-240"
     d="m 75.74,59.68 v -1.4 h 1.41 v 1.4 z m 0,6.27 v -5.5 h 1.41 v 5.5 z"
     id="path31021"
     style="isolation:isolate" />
  <path
     class="cls-240"
     d="m 81,66 a 3,3 0 0 1 -1.21,-0.23 2.71,2.71 0 0 1 -0.91,-0.62 2.76,2.76 0 0 1 -0.57,-0.91 3,3 0 0 1 -0.2,-1.08 3,3 0 0 1 0.2,-1.09 2.76,2.76 0 0 1 0.57,-0.91 2.69,2.69 0 0 1 0.91,-0.62 3,3 0 0 1 1.21,-0.23 3,3 0 0 1 1.2,0.23 2.71,2.71 0 0 1 0.9,0.62 2.76,2.76 0 0 1 0.57,0.91 3,3 0 0 1 0.2,1.09 3,3 0 0 1 -0.2,1.08 2.81,2.81 0 0 1 -0.57,0.91 2.65,2.65 0 0 1 -0.9,0.62 A 3,3 0 0 1 81,66 Z m -1.44,-2.84 a 1.91,1.91 0 0 0 0.11,0.67 1.64,1.64 0 0 0 0.3,0.52 1.36,1.36 0 0 0 0.46,0.34 1.4,1.4 0 0 0 1.13,0 1.38,1.38 0 0 0 0.46,-0.34 1.63,1.63 0 0 0 0.3,-0.53 2,2 0 0 0 0.11,-0.67 A 1.93,1.93 0 0 0 82.32,62.49 1.64,1.64 0 0 0 82,62 a 1.36,1.36 0 0 0 -0.46,-0.34 1.34,1.34 0 0 0 -0.57,-0.12 1.28,1.28 0 0 0 -0.57,0.13 1.4,1.4 0 0 0 -0.46,0.35 1.61,1.61 0 0 0 -0.3,0.52 1.93,1.93 0 0 0 -0.13,0.66 z m 1.8,-3.4 -0.9,-0.27 0.57,-1.25 h 1.31 z"
     id="path31023"
     style="isolation:isolate" />
  <path
     class="cls-240"
     d="m 89.88,65.94 h -1.41 v -3.08 a 1.6,1.6 0 0 0 -0.23,-1 0.76,0.76 0 0 0 -0.64,-0.3 1.2,1.2 0 0 0 -0.43,0.08 1.58,1.58 0 0 0 -0.41,0.24 1.92,1.92 0 0 0 -0.35,0.36 1.44,1.44 0 0 0 -0.23,0.46 v 3.21 h -1.41 v -5.5 H 86 v 1 a 2.09,2.09 0 0 1 0.88,-0.82 2.83,2.83 0 0 1 1.3,-0.29 1.65,1.65 0 0 1 0.84,0.19 1.37,1.37 0 0 1 0.5,0.49 2.07,2.07 0 0 1 0.25,0.69 4.63,4.63 0 0 1 0.07,0.79 z"
     id="path31025"
     style="isolation:isolate" />
  <path
     class="cls-240"
     d="m 95.91,66 a 2.51,2.51 0 0 1 -1,-0.22 2.48,2.48 0 0 1 -0.83,-0.61 2.85,2.85 0 0 1 -0.54,-0.91 3.18,3.18 0 0 1 -0.19,-1.12 3.29,3.29 0 0 1 0.18,-1.11 2.93,2.93 0 0 1 0.51,-0.9 2.33,2.33 0 0 1 0.78,-0.61 2.21,2.21 0 0 1 1,-0.22 2.09,2.09 0 0 1 1.1,0.29 2.13,2.13 0 0 1 0.76,0.77 V 58.28 H 99 v 6 a 0.53,0.53 0 0 0 0.07,0.32 0.33,0.33 0 0 0 0.25,0.1 v 1.2 a 3.23,3.23 0 0 1 -0.6,0.07 1,1 0 0 1 -0.62,-0.19 0.69,0.69 0 0 1 -0.27,-0.49 v -0.35 a 2,2 0 0 1 -0.82,0.79 2.34,2.34 0 0 1 -1.1,0.27 z m 0.37,-1.2 a 1.32,1.32 0 0 0 0.41,-0.07 1.45,1.45 0 0 0 0.39,-0.19 1.7,1.7 0 0 0 0.32,-0.29 1.24,1.24 0 0 0 0.22,-0.37 v -1.27 a 1.52,1.52 0 0 0 -0.24,-0.42 1.77,1.77 0 0 0 -0.35,-0.34 1.86,1.86 0 0 0 -0.41,-0.23 1.18,1.18 0 0 0 -0.43,-0.08 1.28,1.28 0 0 0 -0.58,0.14 1.38,1.38 0 0 0 -0.46,0.37 1.78,1.78 0 0 0 -0.29,0.54 1.93,1.93 0 0 0 -0.1,0.63 1.72,1.72 0 0 0 0.12,0.64 1.67,1.67 0 0 0 0.32,0.51 1.43,1.43 0 0 0 0.48,0.35 1.47,1.47 0 0 0 0.59,0.13 z"
     id="path31027"
     style="isolation:isolate" />
  <path
     class="cls-240"
     d="m 102.95,66 a 3,3 0 0 1 -1.2,-0.23 2.7,2.7 0 0 1 -1.5,-1.52 2.91,2.91 0 0 1 -0.2,-1.08 3.06,3.06 0 0 1 0.2,-1.11 2.68,2.68 0 0 1 0.58,-0.91 2.74,2.74 0 0 1 0.92,-0.62 3,3 0 0 1 1.21,-0.23 3,3 0 0 1 1.2,0.23 2.75,2.75 0 0 1 0.9,0.62 2.64,2.64 0 0 1 0.57,0.9 3,3 0 0 1 0.19,1.07 q 0,0.14 0,0.26 a 1,1 0 0 1 0,0.21 h -4.25 a 1.61,1.61 0 0 0 0.16,0.58 1.42,1.42 0 0 0 0.78,0.7 1.48,1.48 0 0 0 0.49,0.13 1.62,1.62 0 0 0 0.79,-0.2 1.08,1.08 0 0 0 0.51,-0.54 l 1.21,0.34 a 2.44,2.44 0 0 1 -1,1 3,3 0 0 1 -1.56,0.4 z m 1.43,-3.32 a 1.47,1.47 0 0 0 -0.46,-1 1.43,1.43 0 0 0 -1.95,0 1.45,1.45 0 0 0 -0.31,0.43 1.51,1.51 0 0 0 -0.14,0.56 z"
     id="path31029"
     style="isolation:isolate" />
  <path
     class="cls-240"
     d="m 108.68,64.42 a 2.19,2.19 0 0 0 0.49,0.23 2.32,2.32 0 0 0 0.8,0.13 1.39,1.39 0 0 0 0.7,-0.15 1,1 0 0 0 0.4,-0.47 2.55,2.55 0 0 0 0.18,-0.78 q 0,-0.47 0,-1.1 v -3.79 h 1.45 v 3.79 a 12.32,12.32 0 0 1 -0.09,1.55 3.1,3.1 0 0 1 -0.38,1.19 2,2 0 0 1 -0.83,0.77 3.33,3.33 0 0 1 -1.47,0.27 2.79,2.79 0 0 1 -1.62,-0.46 z"
     id="path31031"
     style="isolation:isolate" />
  <path
     class="cls-240"
     d="m 115.75,66 a 1.56,1.56 0 0 1 -1.29,-0.55 2.53,2.53 0 0 1 -0.44,-1.62 v -3.39 h 1.41 v 3.14 q 0,1.27 0.91,1.27 a 1.45,1.45 0 0 0 0.79,-0.25 1.78,1.78 0 0 0 0.63,-0.75 v -3.41 h 1.41 v 3.88 a 0.5,0.5 0 0 0 0.08,0.32 0.35,0.35 0 0 0 0.26,0.1 v 1.2 l -0.35,0.05 h -0.26 a 1,1 0 0 1 -0.61,-0.17 0.68,0.68 0 0 1 -0.28,-0.48 V 64.9 a 2.34,2.34 0 0 1 -0.94,0.85 2.84,2.84 0 0 1 -1.32,0.25 z"
     id="path31033"
     style="isolation:isolate" />
  <path
     class="cls-240"
     d="m 122.64,66 a 4.27,4.27 0 0 1 -1.35,-0.22 3.31,3.31 0 0 1 -1.13,-0.63 l 0.53,-0.88 a 4.5,4.5 0 0 0 1,0.54 2.62,2.62 0 0 0 1,0.18 1.2,1.2 0 0 0 0.66,-0.16 0.51,0.51 0 0 0 0.24,-0.45 0.45,0.45 0 0 0 -0.28,-0.43 6.13,6.13 0 0 0 -0.92,-0.32 q -0.54,-0.15 -0.91,-0.28 a 2.34,2.34 0 0 1 -0.61,-0.31 1.06,1.06 0 0 1 -0.34,-0.4 1.27,1.27 0 0 1 -0.1,-0.54 1.71,1.71 0 0 1 0.16,-0.76 1.64,1.64 0 0 1 0.46,-0.57 2.1,2.1 0 0 1 0.69,-0.36 2.78,2.78 0 0 1 0.86,-0.13 3.67,3.67 0 0 1 1.16,0.18 2.83,2.83 0 0 1 1,0.58 l -0.57,0.85 a 3.31,3.31 0 0 0 -0.81,-0.46 2.23,2.23 0 0 0 -0.78,-0.15 1.13,1.13 0 0 0 -0.6,0.15 0.51,0.51 0 0 0 -0.24,0.47 0.45,0.45 0 0 0 0.06,0.24 0.51,0.51 0 0 0 0.18,0.17 1.8,1.8 0 0 0 0.33,0.14 l 0.51,0.14 q 0.57,0.15 1,0.29 a 2.64,2.64 0 0 1 0.66,0.34 1.2,1.2 0 0 1 0.38,0.44 1.34,1.34 0 0 1 0.12,0.59 1.53,1.53 0 0 1 -0.6,1.27 2.57,2.57 0 0 1 -1.76,0.48 z"
     id="path31035"
     style="isolation:isolate" />
  <path
     class="cls-240"
     d="m 129.07,65.66 a 6.46,6.46 0 0 1 -0.69,0.25 2.92,2.92 0 0 1 -0.86,0.13 A 2,2 0 0 1 127,66 a 1.21,1.21 0 0 1 -0.45,-0.24 1.16,1.16 0 0 1 -0.31,-0.42 1.52,1.52 0 0 1 -0.12,-0.62 v -3.2 h -0.72 v -1.08 h 0.72 v -1.78 h 1.41 v 1.78 h 1.15 v 1.08 h -1.18 v 2.69 a 0.5,0.5 0 0 0 0.15,0.41 0.58,0.58 0 0 0 0.37,0.12 1.28,1.28 0 0 0 0.43,-0.07 l 0.34,-0.13 z"
     id="path31037"
     style="isolation:isolate" />
  <path
     class="cls-240"
     d="m 129.81,59.68 v -1.4 h 1.41 v 1.4 z m 0,6.27 v -5.5 h 1.41 v 5.5 z"
     id="path31039"
     style="isolation:isolate" />
  <path
     class="cls-240"
     d="m 132.14,63.19 a 3,3 0 0 1 0.2,-1.09 2.67,2.67 0 0 1 0.58,-0.9 2.8,2.8 0 0 1 0.91,-0.62 3,3 0 0 1 1.21,-0.23 2.89,2.89 0 0 1 1.54,0.39 2.47,2.47 0 0 1 1,1 l -1.37,0.42 a 1.24,1.24 0 0 0 -0.47,-0.47 1.39,1.39 0 0 0 -1.22,0 1.38,1.38 0 0 0 -0.52,0.31 1.55,1.55 0 0 0 -0.3,0.52 2,2 0 0 0 -0.11,0.67 1.89,1.89 0 0 0 0.12,0.67 1.7,1.7 0 0 0 0.31,0.53 1.36,1.36 0 0 0 0.46,0.34 1.31,1.31 0 0 0 0.56,0.12 1.35,1.35 0 0 0 0.7,-0.19 1.07,1.07 0 0 0 0.45,-0.46 l 1.37,0.42 a 2.31,2.31 0 0 1 -0.93,1 2.94,2.94 0 0 1 -1.63,0.38 3,3 0 0 1 -1.21,-0.23 2.73,2.73 0 0 1 -1.5,-1.54 3,3 0 0 1 -0.15,-1.04 z"
     id="path31041"
     style="isolation:isolate" />
  <path
     class="cls-240"
     d="m 138.4,59.68 v -1.4 h 1.41 v 1.4 z m 0,6.27 v -5.5 h 1.41 v 5.5 z"
     id="path31043"
     style="isolation:isolate" />
  <path
     class="cls-240"
     d="m 142.58,66 a 2.09,2.09 0 0 1 -0.75,-0.13 1.79,1.79 0 0 1 -0.6,-0.37 1.71,1.71 0 0 1 -0.39,-0.55 1.66,1.66 0 0 1 -0.14,-0.69 1.53,1.53 0 0 1 0.17,-0.72 1.65,1.65 0 0 1 0.48,-0.56 2.41,2.41 0 0 1 0.74,-0.36 3.23,3.23 0 0 1 0.94,-0.13 4.1,4.1 0 0 1 0.72,0.06 3,3 0 0 1 0.62,0.18 v -0.31 a 1.1,1.1 0 0 0 -0.31,-0.84 1.29,1.29 0 0 0 -0.92,-0.29 2.42,2.42 0 0 0 -0.86,0.16 4,4 0 0 0 -0.86,0.46 l -0.43,-0.89 a 4.06,4.06 0 0 1 2.29,-0.7 2.68,2.68 0 0 1 1.84,0.58 2.14,2.14 0 0 1 0.66,1.68 v 1.71 a 0.5,0.5 0 0 0 0.08,0.32 0.35,0.35 0 0 0 0.26,0.1 v 1.2 a 3.17,3.17 0 0 1 -0.62,0.07 0.94,0.94 0 0 1 -0.61,-0.18 0.77,0.77 0 0 1 -0.27,-0.47 v -0.3 a 2.42,2.42 0 0 1 -0.89,0.73 2.55,2.55 0 0 1 -1.15,0.24 z m 0.4,-1 a 1.82,1.82 0 0 0 0.68,-0.13 1.23,1.23 0 0 0 0.5,-0.34 0.51,0.51 0 0 0 0.23,-0.4 V 63.5 a 3.47,3.47 0 0 0 -0.55,-0.15 2.92,2.92 0 0 0 -0.57,-0.06 1.5,1.5 0 0 0 -0.89,0.25 0.74,0.74 0 0 0 -0.35,0.62 0.75,0.75 0 0 0 0.27,0.59 1,1 0 0 0 0.7,0.25 z"
     id="path31045"
     style="isolation:isolate" />
</svg>
