<svg id="Capa_4" data-name="Capa 4" xmlns="http://www.w3.org/2000/svg" xmlns:xlink="http://www.w3.org/1999/xlink" viewBox="0 0 2560 1294"><defs><style>.cls-1,.cls-4{fill:none;}.cls-2{clip-path:url(#clip-path);}.cls-3{opacity:0.25;}.cls-4{stroke:#9e9e9e;stroke-miterlimit:10;stroke-width:2px;}.cls-5{clip-path:url(#clip-path-2);}</style><clipPath id="clip-path"><rect class="cls-1" x="-2954.99" y="-3.88" width="2572.37" height="1304.93"/></clipPath><clipPath id="clip-path-2"><rect class="cls-1" x="-6.35" y="-3.88" width="2572.37" height="1304.93"/></clipPath></defs><title>VisualizacioÌn SENAP</title><g class="cls-2"><g class="cls-3"><polyline class="cls-4" points="-24.9 1.98 16.82 -79.2 43.22 -37.15 75.52 -99.95"/><polyline class="cls-4" points="-91.59 208.86 -49.88 127.69 -23.48 169.73 8.83 106.93"/><polyline class="cls-4" points="-90.28 240.75 -48.57 159.57 -22.17 201.61 10.14 138.81"/><polyline class="cls-4" points="7.47 75.14 49.18 -6.04 75.58 36.01 107.89 -26.79"/><polyline class="cls-4" points="8.78 107.03 50.49 25.85 76.89 67.89 109.2 5.09"/><polyline class="cls-4" points="-58.13 313.23 -16.42 232.05 9.98 274.1 42.29 211.3"/><polyline class="cls-4" points="-56.82 345.11 -15.11 263.94 11.29 305.98 43.6 243.18"/><polyline class="cls-4" points="40.93 179.51 82.65 98.33 109.05 140.38 141.35 77.58"/><polyline class="cls-4" points="42.24 211.39 83.96 130.22 110.36 172.26 142.66 109.46"/><polyline class="cls-4" points="-24.67 417.6 17.05 336.42 43.44 378.47 75.75 315.67"/><polyline class="cls-4" points="-23.36 449.48 18.36 368.3 44.75 410.35 77.06 347.55"/><polyline class="cls-4" points="74.39 283.88 116.11 202.7 142.51 244.75 174.81 181.94"/><polyline class="cls-4" points="75.7 315.76 117.42 234.58 143.82 276.63 176.13 213.83"/><polyline class="cls-4" points="-90.76 654.44 -49.04 573.26 -22.64 615.31 9.66 552.5"/><polyline class="cls-4" points="-89.45 686.32 -47.73 605.14 -21.33 647.19 10.97 584.38"/><polyline class="cls-4" points="8.36 520.62 50.08 439.44 76.47 481.49 108.78 418.69"/><polyline class="cls-4" points="9.67 552.5 51.39 471.32 77.78 513.37 110.09 450.57"/><polyline class="cls-4" points="107.42 386.9 149.14 305.72 175.54 347.77 207.85 284.97"/><polyline class="cls-4" points="108.73 418.78 150.45 337.61 176.85 379.65 209.16 316.85"/><polyline class="cls-4" points="-57.08 759.48 -15.37 678.3 11.03 720.35 43.34 657.54"/><polyline class="cls-4" points="-55.77 791.36 -14.05 710.18 12.34 752.23 44.65 689.43"/><polyline class="cls-4" points="42.04 625.66 83.75 544.49 110.15 586.53 142.46 523.73"/><polyline class="cls-4" points="43.35 657.55 85.06 576.37 111.46 618.41 143.77 555.61"/><polyline class="cls-4" points="141.1 491.94 182.82 410.76 209.22 452.81 241.52 390.01"/><polyline class="cls-4" points="142.41 523.83 184.13 442.65 210.53 484.69 242.84 421.89"/></g></g><g class="cls-5"><g class="cls-3"><polyline class="cls-4" points="-29.2 63.16 12.51 -18.01 38.91 24.03 71.22 -38.77"/><polyline class="cls-4" points="-27.89 95.05 13.82 13.87 40.22 55.91 72.53 -6.89"/><polyline class="cls-4" points="-94.71 301.82 -52.99 220.64 -26.59 262.69 5.72 199.89"/><polyline class="cls-4" points="-93.39 333.7 -51.68 252.52 -25.28 294.57 7.03 231.77"/><polyline class="cls-4" points="4.41 168 46.13 86.83 72.53 128.87 104.83 66.07"/><polyline class="cls-4" points="5.72 199.89 47.44 118.71 73.84 160.75 106.15 97.95"/><polyline class="cls-4" points="103.48 34.28 145.19 -46.89 171.59 -4.85 203.9 -67.65"/><polyline class="cls-4" points="104.79 66.17 146.5 -15.01 172.9 27.03 205.21 -35.77"/><polyline class="cls-4" points="-61.15 406.49 -19.43 325.31 6.97 367.36 39.27 304.55"/><polyline class="cls-4" points="-59.84 438.37 -18.12 357.19 8.28 399.24 40.59 336.44"/><polyline class="cls-4" points="37.97 272.67 79.69 191.49 106.08 233.54 138.39 170.74"/><polyline class="cls-4" points="39.28 304.56 81 223.38 107.4 265.42 139.7 202.62"/><polyline class="cls-4" points="137.04 138.95 178.75 57.77 205.15 99.82 237.46 37.02"/><polyline class="cls-4" points="138.35 170.84 180.06 89.66 206.46 131.7 238.77 68.9"/><polyline class="cls-4" points="236.15 5.14 277.86 -76.04 304.26 -33.99 336.57 -96.8"/><polyline class="cls-4" points="237.46 37.02 279.17 -44.16 305.57 -2.11 337.88 -64.91"/><polyline class="cls-4" points="-27.52 511.36 14.19 430.19 40.59 472.23 72.9 409.43"/><polyline class="cls-4" points="-26.21 543.25 15.5 462.07 41.9 504.11 74.21 441.31"/><polyline class="cls-4" points="71.6 377.55 113.31 296.37 139.71 338.41 172.02 275.61"/><polyline class="cls-4" points="72.91 409.43 114.62 328.25 141.02 370.29 173.33 307.49"/><polyline class="cls-4" points="170.66 243.83 212.38 162.65 238.77 204.69 271.08 141.89"/><polyline class="cls-4" points="171.97 275.71 213.69 194.53 240.09 236.57 272.39 173.77"/><polyline class="cls-4" points="269.77 110.01 311.49 28.84 337.88 70.88 370.19 8.08"/><polyline class="cls-4" points="271.08 141.9 312.8 60.72 339.2 102.76 371.5 39.96"/><polyline class="cls-4" points="370.15 8.18 411.86 -73 438.26 -30.96 470.57 -93.76"/><polyline class="cls-4" points="-92.64 750.97 -50.92 669.79 -24.52 711.83 7.78 649.03"/><polyline class="cls-4" points="-91.33 782.85 -49.61 701.67 -23.21 743.71 9.09 680.91"/><polyline class="cls-4" points="6.42 617.25 48.14 536.07 74.54 578.11 106.85 515.31"/><polyline class="cls-4" points="7.74 649.13 49.45 567.95 75.85 610 108.16 547.19"/><polyline class="cls-4" points="105.54 483.43 147.26 402.25 173.66 444.3 205.97 381.49"/><polyline class="cls-4" points="106.86 515.31 148.57 434.13 174.97 476.18 207.28 413.38"/><polyline class="cls-4" points="204.61 349.71 246.32 268.53 272.72 310.58 305.03 247.77"/><polyline class="cls-4" points="205.92 381.59 247.63 300.41 274.03 342.46 306.34 279.66"/><polyline class="cls-4" points="303.72 215.9 345.43 134.72 371.83 176.76 404.14 113.96"/><polyline class="cls-4" points="305.03 247.78 346.75 166.6 373.14 208.65 405.45 145.84"/><polyline class="cls-4" points="402.78 82.18 444.5 1 470.9 43.04 503.2 -19.76"/><polyline class="cls-4" points="404.09 114.06 445.81 32.88 472.21 74.92 504.52 12.12"/><polyline class="cls-4" points="-58.96 856.01 -17.25 774.83 9.15 816.88 41.46 754.07"/><polyline class="cls-4" points="-57.65 887.89 -15.94 806.71 10.46 848.76 42.77 785.95"/><polyline class="cls-4" points="40.1 722.29 81.82 641.11 108.22 683.15 140.53 620.35"/><polyline class="cls-4" points="41.41 754.17 83.13 672.99 109.53 715.04 141.84 652.23"/><polyline class="cls-4" points="139.22 588.47 180.94 507.29 207.34 549.34 239.64 486.54"/><polyline class="cls-4" points="140.53 620.35 182.25 539.17 208.65 581.22 240.96 518.42"/><polyline class="cls-4" points="238.29 454.75 280 373.57 306.4 415.62 338.71 352.82"/><polyline class="cls-4" points="239.6 486.63 281.31 405.45 307.71 447.5 340.02 384.7"/><polyline class="cls-4" points="337.4 320.94 379.11 239.76 405.51 281.81 437.82 219"/><polyline class="cls-4" points="338.71 352.82 380.42 271.64 406.82 313.69 439.13 250.88"/><polyline class="cls-4" points="436.46 187.22 478.18 106.04 504.57 148.09 536.88 85.28"/><polyline class="cls-4" points="437.77 219.1 479.49 137.92 505.89 179.97 538.19 117.17"/><polyline class="cls-4" points="535.58 53.4 577.3 -27.78 603.69 14.27 636 -48.53"/><polyline class="cls-4" points="536.89 85.28 578.61 4.11 605 46.15 637.31 -16.65"/><polyline class="cls-4" points="-25.39 960.71 16.32 879.53 42.72 921.58 75.03 858.78"/><polyline class="cls-4" points="-24.08 992.6 17.64 911.42 44.03 953.46 76.34 890.66"/><polyline class="cls-4" points="73.67 826.99 115.39 745.82 141.79 787.86 174.09 725.06"/><polyline class="cls-4" points="74.98 858.88 116.7 777.7 143.1 819.74 175.41 756.94"/><polyline class="cls-4" points="172.79 693.18 214.51 612 240.91 654.04 273.21 591.24"/><polyline class="cls-4" points="174.1 725.06 215.82 643.88 242.22 685.92 274.52 623.12"/><polyline class="cls-4" points="271.86 559.46 313.57 478.28 339.97 520.32 372.28 457.52"/><polyline class="cls-4" points="273.17 591.34 314.88 510.16 341.28 552.21 373.59 489.4"/><polyline class="cls-4" points="370.97 425.64 412.68 344.47 439.08 386.51 471.39 323.71"/><polyline class="cls-4" points="372.28 457.53 413.99 376.35 440.39 418.39 472.7 355.59"/><polyline class="cls-4" points="470.03 291.93 511.75 210.75 538.15 252.79 570.45 189.99"/><polyline class="cls-4" points="471.34 323.81 513.06 242.63 539.46 284.67 571.76 221.87"/><polyline class="cls-4" points="569.15 158.11 610.87 76.93 637.26 118.97 669.57 56.17"/><polyline class="cls-4" points="570.46 189.99 612.18 108.81 638.58 150.85 670.88 88.05"/><polyline class="cls-4" points="668.22 24.39 709.93 -56.79 736.33 -14.75 768.64 -77.55"/><polyline class="cls-4" points="669.53 56.27 711.24 -24.91 737.64 17.14 769.95 -45.67"/><polyline class="cls-4" points="-91.19 1198.38 -49.48 1117.2 -23.08 1159.25 9.23 1096.45"/><polyline class="cls-4" points="-89.88 1230.26 -48.17 1149.09 -21.77 1191.13 10.54 1128.33"/><polyline class="cls-4" points="7.91 1064.58 49.63 983.4 76.02 1025.44 108.33 962.64"/><polyline class="cls-4" points="9.22 1096.46 50.94 1015.28 77.33 1057.33 109.64 994.52"/><polyline class="cls-4" points="106.97 930.86 148.69 849.68 175.09 891.72 207.4 828.92"/><polyline class="cls-4" points="108.28 962.74 150 881.56 176.4 923.61 208.71 860.8"/><polyline class="cls-4" points="206.09 797.04 247.81 715.86 274.21 757.91 306.51 695.11"/><polyline class="cls-4" points="207.4 828.92 249.12 747.74 275.52 789.79 307.83 726.99"/><polyline class="cls-4" points="305.16 663.32 346.87 582.14 373.27 624.19 405.58 561.38"/><polyline class="cls-4" points="306.47 695.2 348.18 614.02 374.58 656.07 406.89 593.27"/><polyline class="cls-4" points="404.27 529.51 445.98 448.33 472.38 490.37 504.69 427.57"/><polyline class="cls-4" points="405.58 561.39 447.29 480.21 473.69 522.25 506 459.45"/><polyline class="cls-4" points="503.33 395.79 545.05 314.61 571.45 356.65 603.75 293.85"/><polyline class="cls-4" points="504.64 427.67 546.36 346.49 572.76 388.54 605.07 325.73"/><polyline class="cls-4" points="602.45 261.97 644.17 180.79 670.57 222.84 702.87 160.03"/><polyline class="cls-4" points="603.76 293.85 645.48 212.67 671.88 254.72 704.18 191.92"/><polyline class="cls-4" points="701.52 128.25 743.23 47.07 769.63 89.12 801.94 26.32"/><polyline class="cls-4" points="702.83 160.13 744.54 78.95 770.94 121 803.25 58.2"/><polyline class="cls-4" points="801.93 26.32 843.64 -54.86 870.04 -12.81 902.35 -75.61"/><polyline class="cls-4" points="-57.62 1303.09 -15.91 1221.91 10.49 1263.95 42.8 1201.15"/><polyline class="cls-4" points="-56.31 1334.97 -14.6 1253.79 11.8 1295.84 44.11 1233.03"/><polyline class="cls-4" points="41.48 1169.28 83.2 1088.1 109.59 1130.15 141.9 1067.35"/><polyline class="cls-4" points="42.79 1201.16 84.51 1119.98 110.91 1162.03 143.21 1099.23"/><polyline class="cls-4" points="140.54 1035.56 182.26 954.38 208.66 996.43 240.97 933.63"/><polyline class="cls-4" points="141.85 1067.44 183.57 986.26 209.97 1028.31 242.28 965.51"/><polyline class="cls-4" points="239.66 901.75 281.38 820.57 307.78 862.61 340.08 799.81"/><polyline class="cls-4" points="240.97 933.63 282.69 852.45 309.09 894.49 341.4 831.69"/><polyline class="cls-4" points="338.73 768.03 380.44 686.85 406.84 728.89 439.15 666.09"/><polyline class="cls-4" points="340.04 799.91 381.75 718.73 408.15 760.77 440.46 697.97"/><polyline class="cls-4" points="437.84 634.21 479.55 553.03 505.95 595.08 538.26 532.28"/><polyline class="cls-4" points="439.15 666.09 480.87 584.91 507.26 626.96 539.57 564.16"/><polyline class="cls-4" points="536.9 500.49 578.62 419.31 605.02 461.36 637.33 398.56"/><polyline class="cls-4" points="538.21 532.38 579.93 451.19 606.33 493.24 638.64 430.44"/><polyline class="cls-4" points="636.02 366.68 677.74 285.5 704.14 327.54 736.44 264.74"/><polyline class="cls-4" points="637.33 398.56 679.05 317.38 705.45 359.42 737.75 296.62"/><polyline class="cls-4" points="735.09 232.96 776.8 151.78 803.2 193.82 835.51 131.02"/><polyline class="cls-4" points="736.4 264.84 778.11 183.66 804.51 225.7 836.82 162.9"/><polyline class="cls-4" points="834.19 99.15 875.9 17.97 902.3 60.01 934.61 -2.79"/><polyline class="cls-4" points="835.5 131.03 877.21 49.85 903.61 91.89 935.92 29.09"/><polyline class="cls-4" points="75.19 1274.41 116.9 1193.23 143.3 1235.28 175.61 1172.47"/><polyline class="cls-4" points="76.5 1306.29 118.21 1225.11 144.61 1267.16 176.92 1204.35"/><polyline class="cls-4" points="174.25 1140.69 215.97 1059.51 242.36 1101.56 274.67 1038.75"/><polyline class="cls-4" points="175.56 1172.57 217.28 1091.39 243.67 1133.44 275.98 1070.63"/><polyline class="cls-4" points="273.37 1006.87 315.08 925.69 341.48 967.74 373.79 904.94"/><polyline class="cls-4" points="274.68 1038.75 316.39 957.57 342.79 999.62 375.1 936.82"/><polyline class="cls-4" points="372.43 873.15 414.15 791.97 440.55 834.02 472.86 771.22"/><polyline class="cls-4" points="373.74 905.03 415.46 823.85 441.86 865.9 474.17 803.1"/><polyline class="cls-4" points="471.54 739.34 513.26 658.16 539.66 700.21 571.97 637.4"/><polyline class="cls-4" points="472.86 771.22 514.57 690.04 540.97 732.09 573.28 669.28"/><polyline class="cls-4" points="570.61 605.62 612.32 524.44 638.72 566.49 671.03 503.68"/><polyline class="cls-4" points="571.92 637.5 613.63 556.32 640.03 598.37 672.34 535.56"/><polyline class="cls-4" points="669.73 471.8 711.44 390.62 737.84 432.67 770.15 369.87"/><polyline class="cls-4" points="671.04 503.68 712.75 422.5 739.15 464.55 771.46 401.75"/><polyline class="cls-4" points="768.79 338.08 810.51 256.9 836.9 298.95 869.21 236.15"/><polyline class="cls-4" points="770.1 369.96 811.82 288.79 838.22 330.83 870.52 268.03"/><polyline class="cls-4" points="867.89 204.27 909.61 123.09 936.01 165.14 968.31 102.34"/><polyline class="cls-4" points="869.2 236.15 910.92 154.97 937.32 197.02 969.63 134.22"/><polyline class="cls-4" points="966.96 70.55 1008.67 -10.63 1035.07 31.42 1067.38 -31.38"/><polyline class="cls-4" points="968.27 102.44 1009.98 21.25 1036.38 63.3 1068.69 0.5"/><polyline class="cls-4" points="108.93 1379.66 150.65 1298.48 177.05 1340.53 209.35 1277.73"/><polyline class="cls-4" points="208 1245.94 249.71 1164.76 276.11 1206.81 308.42 1144.01"/><polyline class="cls-4" points="209.31 1277.82 251.02 1196.64 277.42 1238.69 309.73 1175.89"/><polyline class="cls-4" points="307.12 1112.13 348.83 1030.95 375.23 1072.99 407.54 1010.19"/><polyline class="cls-4" points="308.43 1144.01 350.14 1062.83 376.54 1104.87 408.85 1042.07"/><polyline class="cls-4" points="406.18 978.41 447.89 897.23 474.29 939.27 506.6 876.47"/><polyline class="cls-4" points="407.49 1010.29 449.2 929.11 475.6 971.15 507.91 908.35"/><polyline class="cls-4" points="505.29 844.59 547 763.41 573.4 805.46 605.71 742.66"/><polyline class="cls-4" points="506.6 876.47 548.32 795.29 574.72 837.34 607.02 774.54"/><polyline class="cls-4" points="604.35 710.87 646.07 629.69 672.47 671.74 704.78 608.94"/><polyline class="cls-4" points="605.66 742.75 647.38 661.58 673.78 703.62 706.09 640.82"/><polyline class="cls-4" points="703.47 577.06 745.19 495.88 771.59 537.92 803.89 475.12"/><polyline class="cls-4" points="704.78 608.94 746.5 527.76 772.9 569.8 805.21 507"/><polyline class="cls-4" points="802.54 443.34 844.25 362.16 870.65 404.2 902.96 341.4"/><polyline class="cls-4" points="803.85 475.22 845.56 394.04 871.96 436.08 904.27 373.28"/><polyline class="cls-4" points="901.64 309.53 943.35 228.35 969.75 270.39 1002.06 207.59"/><polyline class="cls-4" points="902.95 341.41 944.66 260.23 971.06 302.27 1003.37 239.47"/><polyline class="cls-4" points="1000.7 175.81 1042.42 94.63 1068.82 136.67 1101.12 73.87"/><polyline class="cls-4" points="1002.01 207.69 1043.73 126.51 1070.13 168.55 1102.43 105.75"/><polyline class="cls-4" points="1099.82 41.99 1141.54 -39.19 1167.93 2.86 1200.24 -59.95"/><polyline class="cls-4" points="1101.13 73.87 1142.85 -7.31 1169.25 34.74 1201.55 -28.07"/><polyline class="cls-4" points="241.39 1350.09 283.1 1268.91 309.5 1310.95 341.81 1248.15"/><polyline class="cls-4" points="242.7 1381.97 284.41 1300.79 310.81 1342.83 343.12 1280.03"/><polyline class="cls-4" points="340.51 1216.27 382.22 1135.09 408.62 1177.13 440.93 1114.33"/><polyline class="cls-4" points="341.82 1248.15 383.53 1166.97 409.93 1209.02 442.24 1146.21"/><polyline class="cls-4" points="439.57 1082.55 481.29 1001.37 507.68 1043.42 539.99 980.61"/><polyline class="cls-4" points="440.88 1114.43 482.6 1033.25 508.99 1075.3 541.3 1012.5"/><polyline class="cls-4" points="538.68 948.74 580.4 867.56 606.79 909.6 639.1 846.8"/><polyline class="cls-4" points="539.99 980.62 581.71 899.44 608.11 941.48 640.41 878.68"/><polyline class="cls-4" points="637.75 815.02 679.46 733.84 705.86 775.88 738.17 713.08"/><polyline class="cls-4" points="639.06 846.9 680.77 765.72 707.17 807.76 739.48 744.96"/><polyline class="cls-4" points="736.86 681.2 778.58 600.02 804.98 642.07 837.29 579.26"/><polyline class="cls-4" points="738.17 713.08 779.89 631.9 806.29 673.95 838.6 611.14"/><polyline class="cls-4" points="835.93 547.48 877.64 466.3 904.04 508.35 936.35 445.54"/><polyline class="cls-4" points="837.24 579.36 878.95 498.18 905.35 540.23 937.66 477.43"/><polyline class="cls-4" points="935.03 413.67 976.74 332.49 1003.14 374.54 1035.45 311.74"/><polyline class="cls-4" points="936.34 445.55 978.05 364.37 1004.45 406.42 1036.76 343.62"/><polyline class="cls-4" points="1034.09 279.95 1075.81 198.77 1102.21 240.82 1134.52 178.01"/><polyline class="cls-4" points="1035.4 311.83 1077.12 230.65 1103.52 272.7 1135.83 209.9"/><polyline class="cls-4" points="1133.21 146.13 1174.93 64.95 1201.33 107 1233.63 44.2"/><polyline class="cls-4" points="1134.52 178.01 1176.24 96.84 1202.64 138.88 1234.94 76.08"/><polyline class="cls-4" points="1232.28 12.41 1273.99 -68.77 1300.39 -26.72 1332.7 -89.52"/><polyline class="cls-4" points="1233.59 44.3 1275.3 -36.88 1301.7 5.16 1334.01 -57.64"/><polyline class="cls-4" points="373.97 1320.64 415.68 1239.46 442.08 1281.5 474.39 1218.7"/><polyline class="cls-4" points="375.28 1352.52 416.99 1271.34 443.39 1313.38 475.7 1250.58"/><polyline class="cls-4" points="473.03 1186.92 514.75 1105.74 541.15 1147.78 573.45 1084.98"/><polyline class="cls-4" points="474.34 1218.8 516.06 1137.62 542.46 1179.66 574.76 1116.86"/><polyline class="cls-4" points="572.14 1053.11 613.86 971.93 640.26 1013.97 672.57 951.17"/><polyline class="cls-4" points="573.45 1084.99 615.17 1003.81 641.57 1045.85 673.88 983.05"/><polyline class="cls-4" points="671.21 919.38 712.92 838.21 739.32 880.25 771.63 817.45"/><polyline class="cls-4" points="672.52 951.27 714.23 870.09 740.63 912.13 772.94 849.33"/><polyline class="cls-4" points="770.33 785.57 812.04 704.39 838.44 746.43 870.75 683.63"/><polyline class="cls-4" points="771.64 817.45 813.35 736.27 839.75 778.32 872.06 715.51"/><polyline class="cls-4" points="869.39 651.85 911.11 570.67 937.5 612.72 969.81 549.91"/><polyline class="cls-4" points="870.7 683.73 912.42 602.55 938.82 644.6 971.12 581.79"/><polyline class="cls-4" points="968.49 518.04 1010.21 436.86 1036.61 478.9 1068.91 416.1"/><polyline class="cls-4" points="969.8 549.92 1011.52 468.74 1037.92 510.79 1070.22 447.98"/><polyline class="cls-4" points="1067.56 384.32 1109.27 303.14 1135.67 345.19 1167.98 282.38"/><polyline class="cls-4" points="1068.87 416.2 1110.58 335.02 1136.98 377.07 1169.29 314.26"/><polyline class="cls-4" points="1166.67 250.5 1208.39 169.32 1234.79 211.37 1267.1 148.57"/><polyline class="cls-4" points="1167.98 282.38 1209.7 201.21 1236.1 243.25 1268.41 180.45"/><polyline class="cls-4" points="1265.74 116.78 1307.45 35.6 1333.85 77.65 1366.16 14.85"/><polyline class="cls-4" points="1267.05 148.66 1308.76 67.48 1335.16 109.53 1367.47 46.73"/><polyline class="cls-4" points="1366.16 14.85 1407.88 -66.33 1434.27 -24.28 1466.58 -87.08"/><polyline class="cls-4" points="506.49 1291.29 548.21 1210.11 574.61 1252.15 606.92 1189.35"/><polyline class="cls-4" points="507.81 1323.17 549.52 1241.99 575.92 1284.03 608.23 1221.23"/><polyline class="cls-4" points="605.61 1157.47 647.32 1076.29 673.72 1118.34 706.03 1055.54"/><polyline class="cls-4" points="606.92 1189.36 648.63 1108.18 675.03 1150.22 707.34 1087.42"/><polyline class="cls-4" points="704.67 1023.75 746.38 942.58 772.78 984.62 805.09 921.82"/><polyline class="cls-4" points="705.98 1055.63 747.7 974.46 774.09 1016.5 806.4 953.7"/><polyline class="cls-4" points="803.79 889.94 845.5 808.76 871.9 850.8 904.21 788"/><polyline class="cls-4" points="805.1 921.82 846.82 840.64 873.21 882.68 905.52 819.88"/><polyline class="cls-4" points="902.85 756.22 944.57 675.04 970.97 717.08 1003.27 654.28"/><polyline class="cls-4" points="904.16 788.1 945.88 706.92 972.28 748.96 1004.59 686.16"/><polyline class="cls-4" points="1001.95 622.41 1043.67 541.23 1070.07 583.27 1102.38 520.47"/><polyline class="cls-4" points="1003.26 654.29 1044.98 573.11 1071.38 615.15 1103.69 552.35"/><polyline class="cls-4" points="1101.02 488.69 1142.73 407.51 1169.13 449.55 1201.44 386.75"/><polyline class="cls-4" points="1102.33 520.57 1144.04 439.39 1170.44 481.44 1202.75 418.63"/><polyline class="cls-4" points="1200.14 354.87 1241.85 273.69 1268.25 315.74 1300.56 252.94"/><polyline class="cls-4" points="1201.45 386.75 1243.16 305.57 1269.56 347.62 1301.87 284.82"/><polyline class="cls-4" points="1299.2 221.15 1340.92 139.97 1367.31 182.02 1399.62 119.22"/><polyline class="cls-4" points="1300.51 253.03 1342.23 171.85 1368.63 213.9 1400.93 151.1"/><polyline class="cls-4" points="1398.31 87.34 1440.03 6.16 1466.43 48.2 1498.73 -14.6"/><polyline class="cls-4" points="1399.62 119.22 1441.34 38.04 1467.74 80.09 1500.05 17.28"/><polyline class="cls-4" points="540.03 1395.88 581.74 1314.7 608.14 1356.74 640.45 1293.94"/><polyline class="cls-4" points="639.14 1262.07 680.86 1180.89 707.25 1222.93 739.56 1160.13"/><polyline class="cls-4" points="640.45 1293.95 682.17 1212.77 708.57 1254.81 740.87 1192.01"/><polyline class="cls-4" points="738.2 1128.35 779.92 1047.17 806.32 1089.21 838.63 1026.41"/><polyline class="cls-4" points="739.51 1160.23 781.23 1079.05 807.63 1121.09 839.94 1058.29"/><polyline class="cls-4" points="837.32 994.53 879.04 913.35 905.44 955.4 937.75 892.59"/><polyline class="cls-4" points="838.63 1026.41 880.35 945.23 906.75 987.28 939.06 924.48"/><polyline class="cls-4" points="936.39 860.81 978.1 779.63 1004.5 821.68 1036.81 758.87"/><polyline class="cls-4" points="937.7 892.69 979.41 811.51 1005.81 853.56 1038.12 790.75"/><polyline class="cls-4" points="1035.49 727 1077.2 645.82 1103.6 687.87 1135.91 625.06"/><polyline class="cls-4" points="1036.8 758.88 1078.51 677.7 1104.91 719.75 1137.22 656.95"/><polyline class="cls-4" points="1134.55 593.28 1176.27 512.1 1202.67 554.15 1234.97 491.35"/><polyline class="cls-4" points="1135.86 625.16 1177.58 543.98 1203.98 586.03 1236.29 523.23"/><polyline class="cls-4" points="1233.67 459.46 1275.39 378.29 1301.79 420.33 1334.09 357.53"/><polyline class="cls-4" points="1234.98 491.35 1276.7 410.17 1303.1 452.21 1335.4 389.41"/><polyline class="cls-4" points="1332.73 325.74 1374.45 244.56 1400.85 286.61 1433.16 223.81"/><polyline class="cls-4" points="1334.05 357.63 1375.76 276.45 1402.16 318.49 1434.47 255.69"/><polyline class="cls-4" points="1431.85 191.93 1473.56 110.75 1499.96 152.8 1532.27 90"/><polyline class="cls-4" points="1433.16 223.81 1474.87 142.63 1501.27 184.68 1533.58 121.88"/><polyline class="cls-4" points="1530.91 58.21 1572.63 -22.97 1599.02 19.08 1631.33 -43.73"/><polyline class="cls-4" points="1532.22 90.09 1573.94 8.91 1600.34 50.96 1632.64 -11.84"/><polyline class="cls-4" points="672.75 1366.88 714.46 1285.7 740.86 1327.75 773.17 1264.95"/><polyline class="cls-4" points="771.81 1233.16 813.52 1151.98 839.92 1194.03 872.23 1131.23"/><polyline class="cls-4" points="773.12 1265.05 814.84 1183.87 841.24 1225.91 873.54 1163.11"/><polyline class="cls-4" points="870.93 1099.35 912.64 1018.17 939.04 1060.21 971.35 997.41"/><polyline class="cls-4" points="872.24 1131.23 913.96 1050.05 940.35 1092.09 972.66 1029.29"/><polyline class="cls-4" points="969.99 965.63 1011.71 884.45 1038.11 926.49 1070.41 863.69"/><polyline class="cls-4" points="971.3 997.51 1013.02 916.33 1039.42 958.37 1071.73 895.57"/><polyline class="cls-4" points="1069.09 831.82 1110.81 750.64 1137.21 792.68 1169.52 729.88"/><polyline class="cls-4" points="1070.4 863.7 1112.12 782.52 1138.52 824.57 1170.83 761.76"/><polyline class="cls-4" points="1168.16 698.1 1209.87 616.92 1236.27 658.96 1268.58 596.16"/><polyline class="cls-4" points="1169.47 729.98 1211.18 648.8 1237.58 690.85 1269.89 628.04"/><polyline class="cls-4" points="1267.28 564.28 1308.99 483.1 1335.39 525.15 1367.7 462.35"/><polyline class="cls-4" points="1268.59 596.16 1310.3 514.98 1336.7 557.03 1369.01 494.23"/><polyline class="cls-4" points="1366.34 430.56 1408.06 349.38 1434.45 391.43 1466.76 328.63"/><polyline class="cls-4" points="1367.65 462.44 1409.37 381.26 1435.77 423.31 1468.07 360.51"/><polyline class="cls-4" points="1465.45 296.75 1507.17 215.57 1533.57 257.62 1565.87 194.81"/><polyline class="cls-4" points="1466.76 328.63 1508.48 247.45 1534.88 289.5 1567.18 226.69"/><polyline class="cls-4" points="1564.52 163.03 1606.23 81.85 1632.63 123.89 1664.94 61.09"/><polyline class="cls-4" points="1565.83 194.91 1607.54 113.73 1633.94 155.78 1666.25 92.97"/><polyline class="cls-4" points="1663.64 29.21 1705.35 -51.97 1731.75 -9.92 1764.06 -72.72"/><polyline class="cls-4" points="1664.95 61.09 1706.66 -20.09 1733.06 21.96 1765.37 -40.84"/><polyline class="cls-4" points="805.35 1337.76 847.06 1256.58 873.46 1298.62 905.77 1235.82"/><polyline class="cls-4" points="806.66 1369.64 848.37 1288.46 874.77 1330.5 907.08 1267.7"/><polyline class="cls-4" points="904.46 1203.94 946.18 1122.76 972.58 1164.81 1004.89 1102"/><polyline class="cls-4" points="905.77 1235.82 947.49 1154.64 973.89 1196.69 1006.2 1133.88"/><polyline class="cls-4" points="1003.53 1070.22 1045.24 989.04 1071.64 1031.09 1103.95 968.28"/><polyline class="cls-4" points="1004.84 1102.1 1046.55 1020.92 1072.95 1062.97 1105.26 1000.16"/><polyline class="cls-4" points="1102.63 936.41 1144.34 855.23 1170.74 897.28 1203.05 834.48"/><polyline class="cls-4" points="1103.94 968.29 1145.65 887.11 1172.05 929.16 1204.36 866.36"/><polyline class="cls-4" points="1201.69 802.69 1243.41 721.51 1269.81 763.56 1302.12 700.75"/><polyline class="cls-4" points="1203 834.57 1244.72 753.39 1271.12 795.44 1303.43 732.64"/><polyline class="cls-4" points="1300.81 668.87 1342.53 587.7 1368.93 629.74 1401.23 566.94"/><polyline class="cls-4" points="1302.12 700.75 1343.84 619.58 1370.24 661.62 1402.55 598.82"/><polyline class="cls-4" points="1399.88 535.15 1441.59 453.98 1467.99 496.02 1500.3 433.22"/><polyline class="cls-4" points="1401.19 567.03 1442.9 485.86 1469.3 527.9 1501.61 465.1"/><polyline class="cls-4" points="1498.99 401.34 1540.7 320.16 1567.1 362.21 1599.41 299.4"/><polyline class="cls-4" points="1500.3 433.22 1542.01 352.04 1568.41 394.09 1600.72 331.29"/><polyline class="cls-4" points="1598.05 267.62 1639.77 186.44 1666.16 228.49 1698.47 165.69"/><polyline class="cls-4" points="1599.36 299.5 1641.08 218.32 1667.48 260.37 1699.78 197.57"/><polyline class="cls-4" points="1697.17 133.81 1738.88 52.63 1765.28 94.67 1797.59 31.87"/><polyline class="cls-4" points="1698.48 165.69 1740.2 84.51 1766.6 126.55 1798.9 63.75"/><polyline class="cls-4" points="1796.23 0.09 1837.95 -81.09 1864.35 -39.05 1896.66 -101.85"/><polyline class="cls-4" points="1797.55 31.97 1839.26 -49.21 1865.66 -7.17 1897.97 -69.97"/><polyline class="cls-4" points="938.07 1308.76 979.78 1227.58 1006.18 1269.62 1038.49 1206.82"/><polyline class="cls-4" points="939.38 1340.64 981.1 1259.46 1007.5 1301.5 1039.8 1238.7"/><polyline class="cls-4" points="1037.13 1175.04 1078.85 1093.86 1105.25 1135.9 1137.56 1073.1"/><polyline class="cls-4" points="1038.44 1206.92 1080.16 1125.74 1106.56 1167.79 1138.87 1104.98"/><polyline class="cls-4" points="1136.23 1041.23 1177.95 960.05 1204.35 1002.09 1236.66 939.29"/><polyline class="cls-4" points="1137.55 1073.11 1179.26 991.93 1205.66 1033.97 1237.97 971.17"/><polyline class="cls-4" points="1235.3 907.51 1277.01 826.33 1303.41 868.37 1335.72 805.57"/><polyline class="cls-4" points="1236.61 939.39 1278.33 858.21 1304.72 900.26 1337.03 837.45"/><polyline class="cls-4" points="1334.42 773.69 1376.13 692.51 1402.53 734.56 1434.84 671.75"/><polyline class="cls-4" points="1335.73 805.57 1377.44 724.39 1403.84 766.44 1436.15 703.64"/><polyline class="cls-4" points="1433.48 639.97 1475.2 558.79 1501.6 600.84 1533.9 538.03"/><polyline class="cls-4" points="1434.79 671.85 1476.51 590.67 1502.91 632.72 1535.21 569.92"/><polyline class="cls-4" points="1532.59 506.16 1574.31 424.98 1600.71 467.02 1633.02 404.22"/><polyline class="cls-4" points="1533.9 538.04 1575.62 456.86 1602.02 498.91 1634.33 436.1"/><polyline class="cls-4" points="1631.66 372.44 1673.37 291.26 1699.77 333.31 1732.08 270.5"/><polyline class="cls-4" points="1632.97 404.32 1674.68 323.14 1701.08 365.19 1733.39 302.38"/><polyline class="cls-4" points="1730.78 238.62 1772.49 157.44 1798.89 199.49 1831.2 136.69"/><polyline class="cls-4" points="1732.09 270.5 1773.8 189.32 1800.2 231.37 1832.51 168.57"/><polyline class="cls-4" points="1829.84 104.9 1871.56 23.72 1897.95 65.77 1930.26 2.97"/><polyline class="cls-4" points="1831.15 136.78 1872.87 55.6 1899.27 97.65 1931.57 34.85"/><polyline class="cls-4" points="1930.26 2.98 1971.97 -78.2 1998.37 -36.16 2030.68 -98.96"/><polyline class="cls-4" points="1069.95 1277.39 1111.66 1196.21 1138.06 1238.25 1170.37 1175.45"/><polyline class="cls-4" points="1071.26 1309.27 1112.97 1228.09 1139.37 1270.13 1171.68 1207.33"/><polyline class="cls-4" points="1169.05 1143.58 1210.77 1062.4 1237.16 1104.44 1269.47 1041.64"/><polyline class="cls-4" points="1170.36 1175.46 1212.08 1094.28 1238.47 1136.32 1270.78 1073.52"/><polyline class="cls-4" points="1268.11 1009.86 1309.83 928.68 1336.23 970.72 1368.54 907.92"/><polyline class="cls-4" points="1269.42 1041.74 1311.14 960.56 1337.54 1002.6 1369.85 939.8"/><polyline class="cls-4" points="1367.23 876.04 1408.95 794.86 1435.35 836.91 1467.65 774.1"/><polyline class="cls-4" points="1368.54 907.92 1410.26 826.74 1436.66 868.79 1468.97 805.99"/><polyline class="cls-4" points="1466.3 742.32 1508.01 661.14 1534.41 703.19 1566.72 640.38"/><polyline class="cls-4" points="1467.61 774.2 1509.32 693.02 1535.72 735.07 1568.03 672.26"/><polyline class="cls-4" points="1565.41 608.51 1607.12 527.33 1633.52 569.37 1665.83 506.57"/><polyline class="cls-4" points="1566.72 640.39 1608.43 559.21 1634.83 601.25 1667.14 538.45"/><polyline class="cls-4" points="1664.47 474.79 1706.19 393.61 1732.59 435.65 1764.89 372.85"/><polyline class="cls-4" points="1665.78 506.67 1707.5 425.49 1733.9 467.54 1766.2 404.73"/><polyline class="cls-4" points="1763.59 340.97 1805.31 259.79 1831.7 301.84 1864.01 239.03"/><polyline class="cls-4" points="1764.9 372.85 1806.62 291.67 1833.02 333.72 1865.32 270.92"/><polyline class="cls-4" points="1862.65 207.25 1904.37 126.07 1930.77 168.12 1963.08 105.31"/><polyline class="cls-4" points="1863.97 239.13 1905.68 157.95 1932.08 200 1964.39 137.2"/><polyline class="cls-4" points="1961.76 73.44 2003.47 -7.73 2029.87 34.31 2062.18 -28.49"/><polyline class="cls-4" points="1963.07 105.33 2004.79 24.15 2031.18 66.19 2063.49 3.39"/><polyline class="cls-4" points="1103.41 1381.75 1145.13 1300.58 1171.53 1342.62 1203.83 1279.82"/><polyline class="cls-4" points="1202.51 1247.94 1244.23 1166.77 1270.63 1208.81 1302.93 1146.01"/><polyline class="cls-4" points="1203.82 1279.83 1245.54 1198.65 1271.94 1240.69 1304.24 1177.89"/><polyline class="cls-4" points="1301.58 1114.22 1343.29 1033.05 1369.69 1075.09 1402 1012.29"/><polyline class="cls-4" points="1302.89 1146.11 1344.6 1064.93 1371 1106.97 1403.31 1044.17"/><polyline class="cls-4" points="1400.69 980.41 1442.41 899.23 1468.81 941.27 1501.12 878.47"/><polyline class="cls-4" points="1402.01 1012.29 1443.72 931.11 1470.12 973.15 1502.43 910.35"/><polyline class="cls-4" points="1499.76 846.69 1541.47 765.51 1567.87 807.55 1600.18 744.75"/><polyline class="cls-4" points="1501.07 878.57 1542.79 797.39 1569.18 839.44 1601.49 776.63"/><polyline class="cls-4" points="1598.87 712.88 1640.59 631.7 1666.98 673.74 1699.29 610.94"/><polyline class="cls-4" points="1600.18 744.76 1641.9 663.58 1668.3 705.62 1700.6 642.82"/><polyline class="cls-4" points="1697.93 579.16 1739.65 497.98 1766.05 540.02 1798.36 477.22"/><polyline class="cls-4" points="1699.25 611.04 1740.96 529.86 1767.36 571.9 1799.67 509.1"/><polyline class="cls-4" points="1797.05 445.34 1838.77 364.16 1865.17 406.2 1897.47 343.4"/><polyline class="cls-4" points="1798.37 477.22 1840.08 396.04 1866.48 438.09 1898.79 375.28"/><polyline class="cls-4" points="1896.12 311.62 1937.83 230.44 1964.23 272.49 1996.54 209.68"/><polyline class="cls-4" points="1897.43 343.5 1939.14 262.32 1965.54 304.37 1997.85 241.56"/><polyline class="cls-4" points="1995.22 177.81 2036.94 96.63 2063.34 138.68 2095.64 75.88"/><polyline class="cls-4" points="1996.53 209.69 2038.25 128.51 2064.65 170.56 2096.95 107.76"/><polyline class="cls-4" points="2094.29 44.09 2136 -37.09 2162.4 4.96 2194.71 -57.84"/><polyline class="cls-4" points="2095.6 75.97 2137.31 -5.2 2163.71 36.84 2196.02 -25.96"/><polyline class="cls-4" points="1236.42 1353.72 1278.14 1272.54 1304.54 1314.58 1336.85 1251.78"/><polyline class="cls-4" points="1237.73 1385.6 1279.45 1304.42 1305.85 1346.46 1338.16 1283.66"/><polyline class="cls-4" points="1335.49 1220 1377.2 1138.82 1403.6 1180.86 1435.91 1118.06"/><polyline class="cls-4" points="1336.8 1251.88 1378.52 1170.7 1404.91 1212.74 1437.22 1149.94"/><polyline class="cls-4" points="1434.61 1086.18 1476.32 1005 1502.72 1047.05 1535.03 984.24"/><polyline class="cls-4" points="1435.92 1118.06 1477.63 1036.88 1504.03 1078.93 1536.34 1016.12"/><polyline class="cls-4" points="1533.67 952.46 1575.39 871.28 1601.79 913.33 1634.09 850.52"/><polyline class="cls-4" points="1534.98 984.34 1576.7 903.16 1603.1 945.21 1635.4 882.4"/><polyline class="cls-4" points="1632.78 818.65 1674.5 737.47 1700.9 779.51 1733.2 716.71"/><polyline class="cls-4" points="1634.09 850.53 1675.81 769.35 1702.21 811.39 1734.52 748.59"/><polyline class="cls-4" points="1731.85 684.93 1773.56 603.75 1799.96 645.79 1832.27 582.99"/><polyline class="cls-4" points="1733.16 716.81 1774.87 635.63 1801.27 677.67 1833.58 614.87"/><polyline class="cls-4" points="1830.97 551.11 1872.68 469.93 1899.08 511.98 1931.39 449.17"/><polyline class="cls-4" points="1832.28 582.99 1873.99 501.81 1900.39 543.86 1932.7 481.06"/><polyline class="cls-4" points="1930.03 417.39 1971.74 336.21 1998.14 378.26 2030.45 315.45"/><polyline class="cls-4" points="1931.34 449.27 1973.06 368.09 1999.45 410.14 2031.76 347.33"/><polyline class="cls-4" points="2029.13 283.58 2070.85 202.41 2097.25 244.45 2129.56 181.65"/><polyline class="cls-4" points="2030.44 315.47 2072.16 234.29 2098.56 276.33 2130.87 213.53"/><polyline class="cls-4" points="2128.2 149.87 2169.91 68.69 2196.31 110.73 2228.62 47.93"/><polyline class="cls-4" points="2129.51 181.75 2171.22 100.57 2197.62 142.61 2229.93 79.81"/><polyline class="cls-4" points="2227.32 16.05 2269.03 -65.13 2295.43 -23.09 2327.74 -85.89"/><polyline class="cls-4" points="2228.63 47.93 2270.34 -33.25 2296.74 8.79 2329.05 -54.01"/><polyline class="cls-4" points="1368.52 1323.02 1410.23 1241.84 1436.63 1283.88 1468.94 1221.08"/><polyline class="cls-4" points="1369.83 1354.9 1411.55 1273.72 1437.94 1315.77 1470.25 1252.96"/><polyline class="cls-4" points="1467.64 1189.2 1509.35 1108.02 1535.75 1150.07 1568.06 1087.27"/><polyline class="cls-4" points="1468.95 1221.08 1510.66 1139.9 1537.06 1181.95 1569.37 1119.15"/><polyline class="cls-4" points="1566.7 1055.48 1608.42 974.3 1634.82 1016.35 1667.12 953.54"/><polyline class="cls-4" points="1568.01 1087.36 1609.73 1006.18 1636.13 1048.23 1668.43 985.43"/><polyline class="cls-4" points="1665.81 921.67 1707.53 840.49 1733.93 882.53 1766.23 819.73"/><polyline class="cls-4" points="1667.12 953.55 1708.84 872.37 1735.24 914.42 1767.55 851.61"/><polyline class="cls-4" points="1764.88 787.95 1806.59 706.77 1832.99 748.82 1865.3 686.01"/><polyline class="cls-4" points="1766.19 819.83 1807.9 738.65 1834.3 780.7 1866.61 717.89"/><polyline class="cls-4" points="1864 654.13 1905.71 572.95 1932.11 615 1964.42 552.2"/><polyline class="cls-4" points="1865.31 686.01 1907.02 604.83 1933.42 646.88 1965.73 584.08"/><polyline class="cls-4" points="1963.06 520.41 2004.78 439.23 2031.17 481.28 2063.48 418.48"/><polyline class="cls-4" points="1964.37 552.29 2006.09 471.11 2032.48 513.16 2064.79 450.36"/><polyline class="cls-4" points="2062.16 386.61 2103.88 305.43 2130.28 347.47 2162.59 284.67"/><polyline class="cls-4" points="2063.47 418.49 2105.19 337.31 2131.59 379.35 2163.9 316.55"/><polyline class="cls-4" points="2161.23 252.89 2202.94 171.71 2229.34 213.75 2261.65 150.95"/><polyline class="cls-4" points="2162.54 284.77 2204.25 203.59 2230.65 245.63 2262.96 182.83"/><polyline class="cls-4" points="2260.35 119.07 2302.06 37.89 2328.46 79.94 2360.77 17.13"/><polyline class="cls-4" points="2261.66 150.95 2303.37 69.77 2329.77 111.82 2362.08 49.02"/><polyline class="cls-4" points="2360.72 17.23 2402.44 -63.95 2428.84 -21.9 2461.14 -84.7"/><polyline class="cls-4" points="1500.88 1292.9 1542.6 1211.72 1569 1253.76 1601.31 1190.96"/><polyline class="cls-4" points="1502.2 1324.78 1543.91 1243.6 1570.31 1285.64 1602.62 1222.84"/><polyline class="cls-4" points="1599.95 1159.18 1641.66 1078 1668.06 1120.04 1700.37 1057.24"/><polyline class="cls-4" points="1601.26 1191.06 1642.97 1109.88 1669.37 1151.92 1701.68 1089.12"/><polyline class="cls-4" points="1699.06 1025.36 1740.78 944.18 1767.17 986.23 1799.48 923.43"/><polyline class="cls-4" points="1700.37 1057.24 1742.09 976.07 1768.48 1018.11 1800.79 955.31"/><polyline class="cls-4" points="1798.12 891.64 1839.84 810.47 1866.24 852.51 1898.55 789.71"/><polyline class="cls-4" points="1799.43 923.52 1841.15 842.35 1867.55 884.39 1899.86 821.59"/><polyline class="cls-4" points="1897.24 757.83 1938.96 676.65 1965.36 718.69 1997.66 655.89"/><polyline class="cls-4" points="1898.55 789.71 1940.27 708.53 1966.67 750.57 1998.98 687.77"/><polyline class="cls-4" points="1996.31 624.11 2038.02 542.93 2064.42 584.97 2096.73 522.17"/><polyline class="cls-4" points="1997.62 655.99 2039.33 574.81 2065.73 616.85 2098.04 554.05"/><polyline class="cls-4" points="2095.41 490.3 2137.13 409.12 2163.53 451.17 2195.83 388.37"/><polyline class="cls-4" points="2096.72 522.18 2138.44 441 2164.84 483.05 2197.14 420.25"/><polyline class="cls-4" points="2194.47 356.58 2236.19 275.4 2262.59 317.45 2294.9 254.65"/><polyline class="cls-4" points="2195.79 388.46 2237.5 307.28 2263.9 349.33 2296.21 286.53"/><polyline class="cls-4" points="2293.59 222.76 2335.31 141.59 2361.71 183.63 2394.02 120.83"/><polyline class="cls-4" points="2294.91 254.65 2336.62 173.47 2363.02 215.51 2395.33 152.71"/><polyline class="cls-4" points="2392.66 89.05 2434.37 7.87 2460.77 49.91 2493.08 -12.89"/><polyline class="cls-4" points="2393.97 120.93 2435.68 39.75 2462.08 81.79 2494.39 18.99"/><polyline class="cls-4" points="1633.19 1262.87 1674.91 1181.69 1701.31 1223.74 1733.62 1160.93"/><polyline class="cls-4" points="1634.51 1294.75 1676.22 1213.57 1702.62 1255.62 1734.93 1192.82"/><polyline class="cls-4" points="1732.31 1129.06 1774.02 1047.88 1800.42 1089.92 1832.73 1027.12"/><polyline class="cls-4" points="1733.62 1160.94 1775.33 1079.76 1801.73 1121.81 1834.04 1059"/><polyline class="cls-4" points="1831.37 995.34 1873.09 914.16 1899.48 956.21 1931.79 893.4"/><polyline class="cls-4" points="1832.68 1027.22 1874.4 946.04 1900.8 988.09 1933.1 925.28"/><polyline class="cls-4" points="1930.49 861.52 1972.2 780.34 1998.6 822.39 2030.91 759.59"/><polyline class="cls-4" points="1931.8 893.4 1973.52 812.22 1999.91 854.27 2032.22 791.47"/><polyline class="cls-4" points="2029.55 727.8 2071.27 646.62 2097.67 688.67 2129.97 625.87"/><polyline class="cls-4" points="2030.87 759.68 2072.58 678.5 2098.98 720.55 2131.29 657.75"/><polyline class="cls-4" points="2128.66 594 2170.37 512.82 2196.77 554.86 2229.08 492.06"/><polyline class="cls-4" points="2129.97 625.88 2171.68 544.7 2198.08 586.74 2230.39 523.94"/><polyline class="cls-4" points="2227.72 460.28 2269.44 379.1 2295.84 421.14 2328.14 358.34"/><polyline class="cls-4" points="2229.03 492.16 2270.75 410.98 2297.15 453.02 2329.45 390.22"/><polyline class="cls-4" points="2326.84 326.46 2368.56 245.28 2394.95 287.33 2427.26 224.52"/><polyline class="cls-4" points="2328.15 358.34 2369.87 277.16 2396.26 319.21 2428.57 256.4"/><polyline class="cls-4" points="2425.91 192.74 2467.62 111.56 2494.02 153.61 2526.33 90.8"/><polyline class="cls-4" points="2427.22 224.62 2468.93 143.44 2495.33 185.49 2527.64 122.69"/><polyline class="cls-4" points="2525.02 58.93 2566.73 -22.25 2593.13 19.79 2625.44 -43.01"/><polyline class="cls-4" points="2526.33 90.81 2568.04 9.63 2594.44 51.67 2626.75 -11.13"/><polyline class="cls-4" points="1666.66 1367.24 1708.37 1286.06 1734.77 1328.11 1767.08 1265.3"/><polyline class="cls-4" points="1765.77 1233.43 1807.48 1152.25 1833.88 1194.29 1866.19 1131.49"/><polyline class="cls-4" points="1767.08 1265.31 1808.8 1184.13 1835.19 1226.17 1867.5 1163.37"/><polyline class="cls-4" points="1864.83 1099.71 1906.55 1018.53 1932.95 1060.57 1965.26 997.77"/><polyline class="cls-4" points="1866.14 1131.59 1907.86 1050.41 1934.26 1092.45 1966.57 1029.65"/><polyline class="cls-4" points="1963.95 965.89 2005.67 884.71 2032.07 926.76 2064.37 863.95"/><polyline class="cls-4" points="1965.26 997.77 2006.98 916.59 2033.38 958.64 2065.68 895.84"/><polyline class="cls-4" points="2063.02 832.17 2104.73 750.99 2131.13 793.04 2163.44 730.23"/><polyline class="cls-4" points="2064.33 864.05 2106.04 782.87 2132.44 824.92 2164.75 762.12"/><polyline class="cls-4" points="2162.12 698.37 2203.84 617.19 2230.23 659.23 2262.54 596.43"/><polyline class="cls-4" points="2163.43 730.25 2205.15 649.07 2231.54 691.11 2263.85 628.31"/><polyline class="cls-4" points="2261.18 564.64 2302.9 483.47 2329.3 525.51 2361.61 462.71"/><polyline class="cls-4" points="2262.49 596.53 2304.21 515.35 2330.61 557.39 2362.92 494.59"/><polyline class="cls-4" points="2360.3 430.83 2402.02 349.65 2428.42 391.69 2460.72 328.89"/><polyline class="cls-4" points="2361.61 462.71 2403.33 381.53 2429.73 423.57 2462.04 360.77"/><polyline class="cls-4" points="2459.37 297.11 2501.08 215.93 2527.48 257.97 2559.79 195.17"/><polyline class="cls-4" points="2460.68 328.99 2502.39 247.81 2528.79 289.86 2561.1 227.05"/><polyline class="cls-4" points="2558.48 163.3 2600.19 82.12 2626.59 124.16 2658.9 61.36"/><polyline class="cls-4" points="2559.79 195.18 2601.5 114 2627.9 156.04 2660.21 93.24"/><polyline class="cls-4" points="1799.02 1337.12 1840.73 1255.94 1867.13 1297.99 1899.44 1235.19"/><polyline class="cls-4" points="1800.33 1369 1842.04 1287.82 1868.44 1329.87 1900.75 1267.07"/><polyline class="cls-4" points="1898.08 1203.4 1939.8 1122.22 1966.19 1164.27 1998.5 1101.47"/><polyline class="cls-4" points="1899.39 1235.28 1941.11 1154.1 1967.5 1196.15 1999.81 1133.35"/><polyline class="cls-4" points="1997.2 1069.59 2038.91 988.41 2065.31 1030.45 2097.62 967.65"/><polyline class="cls-4" points="1998.51 1101.47 2040.22 1020.29 2066.62 1062.33 2098.93 999.53"/><polyline class="cls-4" points="2096.26 935.87 2137.98 854.69 2164.38 896.73 2196.68 833.93"/><polyline class="cls-4" points="2097.57 967.75 2139.29 886.57 2165.69 928.61 2197.99 865.81"/><polyline class="cls-4" points="2195.37 802.06 2237.08 720.88 2263.48 762.93 2295.79 700.12"/><polyline class="cls-4" points="2196.68 833.94 2238.39 752.76 2264.79 794.81 2297.1 732"/><polyline class="cls-4" points="2294.43 668.34 2336.15 587.16 2362.54 629.21 2394.85 566.4"/><polyline class="cls-4" points="2295.74 700.22 2337.46 619.04 2363.86 661.09 2396.16 598.28"/><polyline class="cls-4" points="2393.55 534.52 2435.26 453.34 2461.66 495.39 2493.97 432.59"/><polyline class="cls-4" points="2394.86 566.4 2436.58 485.23 2462.97 527.27 2495.28 464.47"/><polyline class="cls-4" points="2492.61 400.8 2534.33 319.62 2560.73 361.67 2593.03 298.87"/><polyline class="cls-4" points="2493.92 432.69 2535.64 351.5 2562.04 393.55 2594.35 330.75"/><polyline class="cls-4" points="1931.54 1307.77 1973.26 1226.59 1999.65 1268.64 2031.96 1205.84"/><polyline class="cls-4" points="1932.85 1339.65 1974.57 1258.47 2000.97 1300.52 2033.28 1237.72"/><polyline class="cls-4" points="2030.66 1173.95 2072.38 1092.78 2098.78 1134.82 2131.08 1072.02"/><polyline class="cls-4" points="2031.97 1205.84 2073.69 1124.66 2100.09 1166.7 2132.39 1103.9"/><polyline class="cls-4" points="2129.72 1040.23 2171.44 959.05 2197.84 1001.1 2230.15 938.3"/><polyline class="cls-4" points="2131.04 1072.12 2172.75 990.94 2199.15 1032.98 2231.46 970.18"/><polyline class="cls-4" points="2228.83 906.43 2270.54 825.25 2296.94 867.29 2329.25 804.49"/><polyline class="cls-4" points="2230.14 938.31 2271.86 857.13 2298.25 899.18 2330.56 836.37"/><polyline class="cls-4" points="2327.89 772.71 2369.61 691.53 2396.01 733.58 2428.32 670.77"/><polyline class="cls-4" points="2329.2 804.59 2370.92 723.41 2397.32 765.46 2429.63 702.65"/><polyline class="cls-4" points="2427.01 638.89 2468.73 557.71 2495.13 599.76 2527.43 536.96"/><polyline class="cls-4" points="2428.32 670.77 2470.04 589.59 2496.44 631.64 2528.74 568.84"/><polyline class="cls-4" points="2526.08 505.17 2567.79 423.99 2594.19 466.04 2626.5 403.24"/><polyline class="cls-4" points="2527.39 537.05 2569.1 455.87 2595.5 497.92 2627.81 435.12"/><polyline class="cls-4" points="2064.34 1279 2106.05 1197.82 2132.45 1239.86 2164.76 1177.06"/><polyline class="cls-4" points="2065.65 1310.88 2107.36 1229.7 2133.76 1271.74 2166.07 1208.94"/><polyline class="cls-4" points="2163.4 1145.28 2205.12 1064.1 2231.52 1106.14 2263.82 1043.34"/><polyline class="cls-4" points="2164.71 1177.16 2206.43 1095.98 2232.83 1138.02 2265.14 1075.22"/><polyline class="cls-4" points="2262.51 1011.47 2304.22 930.29 2330.62 972.34 2362.93 909.53"/><polyline class="cls-4" points="2263.82 1043.35 2305.53 962.17 2331.93 1004.22 2364.24 941.41"/><polyline class="cls-4" points="2361.57 877.75 2403.29 796.57 2429.68 838.62 2461.99 775.81"/><polyline class="cls-4" points="2362.88 909.63 2404.6 828.45 2431 870.5 2463.3 807.7"/><polyline class="cls-4" points="2460.69 743.93 2502.41 662.75 2528.8 704.8 2561.11 642"/><polyline class="cls-4" points="2462 775.82 2503.72 694.63 2530.11 736.68 2562.42 673.88"/><polyline class="cls-4" points="2559.75 610.21 2601.47 529.03 2627.87 571.08 2660.18 508.28"/><polyline class="cls-4" points="2097.8 1383.36 2139.52 1302.18 2165.91 1344.23 2198.22 1281.43"/><polyline class="cls-4" points="2196.87 1249.64 2238.58 1168.46 2264.98 1210.51 2297.29 1147.71"/><polyline class="cls-4" points="2198.18 1281.53 2239.89 1200.35 2266.29 1242.39 2298.6 1179.59"/><polyline class="cls-4" points="2295.97 1115.84 2337.68 1034.66 2364.08 1076.7 2396.39 1013.9"/><polyline class="cls-4" points="2297.28 1147.72 2339 1066.54 2365.39 1108.59 2397.7 1045.78"/><polyline class="cls-4" points="2395.03 982.12 2436.75 900.94 2463.15 942.99 2495.45 880.18"/><polyline class="cls-4" points="2396.34 1014 2438.06 932.82 2464.46 974.87 2496.77 912.06"/><polyline class="cls-4" points="2494.15 848.3 2535.87 767.12 2562.27 809.17 2594.57 746.37"/><polyline class="cls-4" points="2495.46 880.18 2537.18 799 2563.58 841.05 2595.89 778.25"/><polyline class="cls-4" points="2230.33 1354.01 2272.04 1272.83 2298.44 1314.88 2330.75 1252.08"/><polyline class="cls-4" points="2231.64 1385.89 2273.35 1304.71 2299.75 1346.76 2332.06 1283.96"/><polyline class="cls-4" points="2329.43 1220.21 2371.15 1139.03 2397.55 1181.07 2429.85 1118.27"/><polyline class="cls-4" points="2330.74 1252.09 2372.46 1170.91 2398.86 1212.95 2431.16 1150.15"/><polyline class="cls-4" points="2428.5 1086.49 2470.21 1005.31 2496.61 1047.35 2528.92 984.55"/><polyline class="cls-4" points="2429.81 1118.37 2471.52 1037.19 2497.92 1079.23 2530.23 1016.43"/><polyline class="cls-4" points="2527.61 952.67 2569.33 871.49 2595.73 913.54 2628.04 850.73"/><polyline class="cls-4" points="2528.93 984.55 2570.64 903.37 2597.04 945.42 2629.35 882.62"/><polyline class="cls-4" points="2362.46 1323.23 2404.18 1242.05 2430.58 1284.1 2462.88 1221.29"/><polyline class="cls-4" points="2363.77 1355.11 2405.49 1273.93 2431.89 1315.98 2464.2 1253.17"/><polyline class="cls-4" points="2461.53 1189.51 2503.24 1108.33 2529.64 1150.38 2561.95 1087.57"/><polyline class="cls-4" points="2462.84 1221.39 2504.55 1140.21 2530.95 1182.26 2563.26 1119.45"/><polyline class="cls-4" points="2560.65 1055.69 2602.36 974.51 2628.76 1016.56 2661.07 953.76"/><polyline class="cls-4" points="2495.2 1294.55 2536.92 1213.37 2563.32 1255.42 2595.63 1192.62"/><polyline class="cls-4" points="2496.52 1326.43 2538.23 1245.25 2564.63 1287.3 2596.94 1224.5"/></g></g></svg>