<svg xmlns="http://www.w3.org/2000/svg" xmlns:xlink="http://www.w3.org/1999/xlink" viewBox="0 0 304 132"><defs><style>.cls-1,.cls-4{fill:none;}.cls-2{clip-path:url(#clip-path);}.cls-3{opacity:0.25;}.cls-4{stroke:#9e9e9e;stroke-miterlimit:10;stroke-width:2px;}.cls-5{clip-path:url(#clip-path-2);}.cls-6{fill:#fff;}.cls-7{fill:url(#Degradado_sin_nombre_6);}.cls-8{fill:url(#Degradado_sin_nombre_6-2);}.cls-9{fill:url(#Degradado_sin_nombre_6-3);}</style><clipPath id="clip-path"><rect class="cls-1" x="-2962.3" y="183.77" width="2572.37" height="1304.93"/></clipPath><clipPath id="clip-path-2"><rect class="cls-1" x="-13.65" y="183.77" width="2572.37" height="1304.93"/></clipPath><linearGradient id="Degradado_sin_nombre_6" x1="132.13" y1="18.43" x2="132.13" y2="75.82" gradientUnits="userSpaceOnUse"><stop offset="0.04" stop-color="#6eebf5"/><stop offset="0.47" stop-color="#2862bf"/><stop offset="0.89" stop-color="#133799"/></linearGradient><linearGradient id="Degradado_sin_nombre_6-2" x1="152.44" y1="10.79" x2="152.44" y2="75.82" xlink:href="#Degradado_sin_nombre_6"/><linearGradient id="Degradado_sin_nombre_6-3" x1="172.92" y1="3.81" x2="172.92" y2="75.82" xlink:href="#Degradado_sin_nombre_6"/></defs><title>Visualización SENAP</title><g id="Capa_4" data-name="Capa 4"><g class="cls-2"><g class="cls-3"><polyline class="cls-4" points="-66.98 53.38 -25.27 -27.8 1.13 14.24 33.44 -48.56"/><polyline class="cls-4" points="-65.67 85.26 -23.95 4.08 2.44 46.13 34.75 -16.68"/><polyline class="cls-4" points="-33.52 157.75 8.2 76.57 34.6 118.61 66.9 55.81"/><polyline class="cls-4" points="-32.21 189.63 9.51 108.45 35.91 150.49 68.22 87.69"/></g></g><g class="cls-5"><g class="cls-3"><polyline class="cls-4" points="62.55 117.09 104.27 35.91 130.67 77.95 162.98 15.15"/><polyline class="cls-4" points="63.87 148.97 105.58 67.79 131.98 109.84 164.29 47.03"/><polyline class="cls-4" points="162.98 15.16 204.69 -66.02 231.09 -23.98 263.4 -86.78"/><polyline class="cls-4" points="96.17 221.93 137.88 140.75 164.28 182.8 196.59 119.99"/><polyline class="cls-4" points="195.28 88.12 237 6.94 263.39 48.98 295.7 -13.82"/><polyline class="cls-4" points="196.59 120 238.31 38.82 264.7 80.86 297.01 18.06"/><polyline class="cls-4" points="228.84 192.78 270.55 111.61 296.95 153.65 329.26 90.85"/><polyline class="cls-4" points="230.15 224.67 271.87 143.49 298.26 185.53 330.57 122.73"/></g></g></g><g id="Capa_2" data-name="Capa 2"><path class="cls-6" d="M51,30.65a9.06,9.06,0,0,0-1.9-1.36A36,36,0,0,0,45,27.22a39.58,39.58,0,0,0-5.33-1.89,21.27,21.27,0,0,0-5.78-.81Q26,24.51,26,29.84a4.21,4.21,0,0,0,.86,2.71,7.49,7.49,0,0,0,2.53,1.94,23.13,23.13,0,0,0,4.2,1.58q2.53.73,5.87,1.63a77.23,77.23,0,0,1,8.31,2.75A22.45,22.45,0,0,1,54,44.15a15.07,15.07,0,0,1,4,5.37,18.72,18.72,0,0,1,1.4,7.59,19,19,0,0,1-2,9.17,17.08,17.08,0,0,1-5.37,6,22.67,22.67,0,0,1-7.68,3.34,38.37,38.37,0,0,1-8.94,1,50,50,0,0,1-7.23-.54,52.48,52.48,0,0,1-7.22-1.58A57.35,57.35,0,0,1,14.1,72.1,38,38,0,0,1,8,68.76l6.5-12.91a12.49,12.49,0,0,0,2.35,1.72,35,35,0,0,0,4.92,2.53,49.8,49.8,0,0,0,6.55,2.26,27.31,27.31,0,0,0,7.32,1q7.86,0,7.86-4.79a4,4,0,0,0-1.17-3,11.06,11.06,0,0,0-3.25-2.12,35.61,35.61,0,0,0-4.92-1.76q-2.84-.81-6.19-1.81A53.23,53.23,0,0,1,20.29,47a20.21,20.21,0,0,1-5.38-3.66,13.3,13.3,0,0,1-3.16-4.79,17.67,17.67,0,0,1-1-6.32,20.14,20.14,0,0,1,1.89-8.94,19.38,19.38,0,0,1,5.15-6.55,22.45,22.45,0,0,1,7.54-4,30,30,0,0,1,9.08-1.35A34.39,34.39,0,0,1,41,12a49.73,49.73,0,0,1,6.23,1.63,45,45,0,0,1,5.55,2.26q2.57,1.27,4.74,2.53Z"/><path class="cls-6" d="M113.12,63V76H68.06V11.87h44.25v13H82.87V37.33h25.29v12H82.87V63Z"/><path class="cls-6" d="M208.2,11.87h13.36L245,76H229.78l-5-14.36h-20L200,76H184.81Zm14.18,39.55-7.5-22.67L207.2,51.42Z"/><path class="cls-6" d="M251.28,76V11.87h27.37a18.8,18.8,0,0,1,8.44,1.89,21.61,21.61,0,0,1,6.59,5,23.76,23.76,0,0,1,4.34,7,20.67,20.67,0,0,1,1.58,7.86,22.45,22.45,0,0,1-1.49,8.13,23.18,23.18,0,0,1-4.15,7,19.58,19.58,0,0,1-6.46,4.88,19.28,19.28,0,0,1-8.4,1.81h-13V76Zm14.81-33.6h12.1a5.73,5.73,0,0,0,4.52-2.26q1.89-2.26,1.89-6.59a11.45,11.45,0,0,0-.59-3.88,8,8,0,0,0-1.58-2.71,6.09,6.09,0,0,0-2.26-1.58,6.91,6.91,0,0,0-2.53-.5H266.09Z"/><polygon class="cls-7" points="140.83 75.82 123.43 75.82 123.43 18.43 140.83 27.63 140.83 75.82"/><polygon class="cls-8" points="161.14 75.82 143.73 75.82 143.73 10.79 161.14 18.5 161.14 75.82"/><polygon class="cls-9" points="181.62 75.82 164.22 75.82 164.22 3.81 181.62 13.3 181.62 75.82"/><polygon class="cls-6" points="127.01 81.12 121.31 79.49 134.69 32.61 155.61 54.38 172.85 6.21 178.43 8.21 157.97 65.38 137.56 44.15 127.01 81.12"/><path class="cls-6" d="M15.28,94.07a3.62,3.62,0,0,0-.53-.39,6.62,6.62,0,0,0-.93-.49,8.15,8.15,0,0,0-1.19-.4,5.19,5.19,0,0,0-1.31-.17A2.94,2.94,0,0,0,9.55,93,1.44,1.44,0,0,0,9,94.27a1.25,1.25,0,0,0,.22.76,1.88,1.88,0,0,0,.63.53,5.3,5.3,0,0,0,1,.42c.42.12.91.26,1.46.39q1.08.29,2,.62a5.36,5.36,0,0,1,1.49.83A3.45,3.45,0,0,1,16.73,99a4,4,0,0,1,.33,1.71,4.27,4.27,0,0,1-.45,2,3.73,3.73,0,0,1-1.2,1.36,5.25,5.25,0,0,1-1.74.76,8.75,8.75,0,0,1-2.07.24,11.1,11.1,0,0,1-3.28-.5,10.15,10.15,0,0,1-2.9-1.41l1.27-2.47a4,4,0,0,0,.67.49,10.7,10.7,0,0,0,1.15.6,9.08,9.08,0,0,0,1.47.51,6.67,6.67,0,0,0,1.66.21Q14,102.53,14,101a1.25,1.25,0,0,0-.27-.81,2.3,2.3,0,0,0-.77-.58,7.44,7.44,0,0,0-1.2-.46l-1.58-.46a13.45,13.45,0,0,1-1.84-.63,4.85,4.85,0,0,1-1.3-.81,3.07,3.07,0,0,1-.78-1.08A3.75,3.75,0,0,1,6,94.73a4.56,4.56,0,0,1,.42-2,4,4,0,0,1,1.15-1.45,5.21,5.21,0,0,1,1.71-.88,7,7,0,0,1,2.09-.3,8.15,8.15,0,0,1,2.86.49,10.67,10.67,0,0,1,2.28,1.15Z"/><path class="cls-6" d="M19,92.55V89.79h2.78v2.76Zm0,12.38V94.07h2.78v10.87Z"/><path class="cls-6" d="M28.35,105.14a8.45,8.45,0,0,1-2.68-.43,6.54,6.54,0,0,1-2.24-1.25l1-1.74a8.89,8.89,0,0,0,1.94,1.07,5.17,5.17,0,0,0,1.88.36,2.38,2.38,0,0,0,1.31-.31,1,1,0,0,0,.48-.89.89.89,0,0,0-.56-.85,12.11,12.11,0,0,0-1.82-.62q-1.06-.29-1.8-.56a4.62,4.62,0,0,1-1.2-.61,2.09,2.09,0,0,1-.66-.79,2.52,2.52,0,0,1-.21-1.07A3.38,3.38,0,0,1,24.13,96a3.25,3.25,0,0,1,.9-1.13,4.16,4.16,0,0,1,1.36-.71,5.5,5.5,0,0,1,1.69-.25,7.26,7.26,0,0,1,2.29.35,5.59,5.59,0,0,1,2,1.14L31.21,97a6.53,6.53,0,0,0-1.61-.91,4.4,4.4,0,0,0-1.54-.29,2.24,2.24,0,0,0-1.18.29,1,1,0,0,0-.48.93.9.9,0,0,0,.11.48,1,1,0,0,0,.36.33,3.56,3.56,0,0,0,.65.28q.41.14,1,.28,1.12.29,1.92.58a5.22,5.22,0,0,1,1.31.66,2.37,2.37,0,0,1,.75.86,2.65,2.65,0,0,1,.24,1.17,3,3,0,0,1-1.18,2.52A5.08,5.08,0,0,1,28.35,105.14Z"/><path class="cls-6" d="M41.06,104.38a12.77,12.77,0,0,1-1.37.5,5.78,5.78,0,0,1-1.7.25A4,4,0,0,1,36.9,105a2.39,2.39,0,0,1-.89-.47,2.28,2.28,0,0,1-.61-.83,3,3,0,0,1-.23-1.23V96.2H33.74V94.07h1.43V90.54H38v3.53h2.28V96.2H38v5.31a1,1,0,0,0,.3.82,1.15,1.15,0,0,0,.74.24,2.53,2.53,0,0,0,.85-.15l.66-.25Z"/><path class="cls-6" d="M47.29,105.14a6,6,0,0,1-2.36-.45,5.33,5.33,0,0,1-3-3,5.75,5.75,0,0,1-.4-2.14A6.06,6.06,0,0,1,42,97.38a5.31,5.31,0,0,1,1.14-1.8,5.42,5.42,0,0,1,1.82-1.23,6,6,0,0,1,2.4-.46,5.89,5.89,0,0,1,2.38.46,5.44,5.44,0,0,1,1.78,1.22,5.22,5.22,0,0,1,1.12,1.78A5.93,5.93,0,0,1,53,99.46q0,.27,0,.52a2,2,0,0,1-.05.42h-8.4a3.17,3.17,0,0,0,.31,1.14,2.81,2.81,0,0,0,1.53,1.39,2.93,2.93,0,0,0,1,.19,3.2,3.2,0,0,0,1.57-.4,2.14,2.14,0,0,0,1-1.07l2.39.66a4.83,4.83,0,0,1-1.92,2A5.94,5.94,0,0,1,47.29,105.14Zm2.82-6.55a2.9,2.9,0,0,0-.9-2,2.83,2.83,0,0,0-3.85,0,2.86,2.86,0,0,0-.61.85,3,3,0,0,0-.28,1.1Z"/><path class="cls-6" d="M71.56,104.94H68.78v-6.1a3.24,3.24,0,0,0-.44-1.91,1.45,1.45,0,0,0-1.23-.6,2.33,2.33,0,0,0-1.56.63,3.47,3.47,0,0,0-1,1.65v6.33H61.72v-6.1a3.24,3.24,0,0,0-.44-1.91,1.46,1.46,0,0,0-1.24-.6A2.36,2.36,0,0,0,58.5,97a3.38,3.38,0,0,0-1,1.64v6.35H54.67V94.07h2.51v2a4.17,4.17,0,0,1,1.65-1.63,4.94,4.94,0,0,1,2.4-.57,3.08,3.08,0,0,1,2.12.66,3,3,0,0,1,1,1.64A4.69,4.69,0,0,1,66,94.47a4.53,4.53,0,0,1,2.32-.59,3.23,3.23,0,0,1,1.64.37,2.7,2.7,0,0,1,1,1,4.09,4.09,0,0,1,.49,1.37,9,9,0,0,1,.13,1.56Z"/><path class="cls-6" d="M77,105.14a4.13,4.13,0,0,1-1.47-.26,3.54,3.54,0,0,1-1.18-.73,3.37,3.37,0,0,1-.78-1.09,3.29,3.29,0,0,1-.28-1.37,3,3,0,0,1,.34-1.42,3.26,3.26,0,0,1,1-1.11A4.76,4.76,0,0,1,76,98.46a6.38,6.38,0,0,1,1.87-.26,8.11,8.11,0,0,1,1.42.12,6,6,0,0,1,1.23.35v-.62a2.18,2.18,0,0,0-.61-1.66,2.54,2.54,0,0,0-1.81-.58,4.78,4.78,0,0,0-1.7.31,7.92,7.92,0,0,0-1.7.91l-.85-1.76a8,8,0,0,1,4.52-1.39A5.31,5.31,0,0,1,82,95a4.22,4.22,0,0,1,1.3,3.33v3.38a1,1,0,0,0,.16.62.68.68,0,0,0,.51.21v2.36a6.26,6.26,0,0,1-1.22.15,1.86,1.86,0,0,1-1.21-.35,1.52,1.52,0,0,1-.53-.93l-.06-.6a4.79,4.79,0,0,1-1.76,1.45A5,5,0,0,1,77,105.14Zm.79-2a3.61,3.61,0,0,0,1.34-.25,2.43,2.43,0,0,0,1-.66,1,1,0,0,0,.46-.79v-1.24a6.85,6.85,0,0,0-1.08-.3,5.77,5.77,0,0,0-1.12-.11,3,3,0,0,0-1.76.49,1.46,1.46,0,0,0-.68,1.23,1.49,1.49,0,0,0,.54,1.17A2,2,0,0,0,77.74,103.11Z"/><path class="cls-6" d="M101.37,102.43v2.51H91.14V90.21h10v2.51H94v3.55h6.2v2.32H94v3.84Z"/><path class="cls-6" d="M107.32,105.14a8.45,8.45,0,0,1-2.68-.43,6.54,6.54,0,0,1-2.24-1.25l1-1.74a8.89,8.89,0,0,0,1.94,1.07,5.17,5.17,0,0,0,1.88.36,2.38,2.38,0,0,0,1.31-.31,1,1,0,0,0,.48-.89.89.89,0,0,0-.56-.85,12.11,12.11,0,0,0-1.82-.62q-1.06-.29-1.8-.56a4.62,4.62,0,0,1-1.2-.61,2.09,2.09,0,0,1-.66-.79,2.52,2.52,0,0,1-.21-1.07A3.38,3.38,0,0,1,103.1,96a3.25,3.25,0,0,1,.9-1.13,4.16,4.16,0,0,1,1.36-.71,5.5,5.5,0,0,1,1.69-.25,7.26,7.26,0,0,1,2.29.35,5.59,5.59,0,0,1,2,1.14L110.18,97a6.53,6.53,0,0,0-1.61-.91,4.4,4.4,0,0,0-1.54-.29,2.24,2.24,0,0,0-1.18.29,1,1,0,0,0-.48.93.9.9,0,0,0,.11.48,1,1,0,0,0,.36.33,3.56,3.56,0,0,0,.65.28q.41.14,1,.28,1.12.29,1.92.58a5.22,5.22,0,0,1,1.31.66,2.37,2.37,0,0,1,.75.86,2.65,2.65,0,0,1,.24,1.17,3,3,0,0,1-1.18,2.52A5.08,5.08,0,0,1,107.32,105.14Z"/><path class="cls-6" d="M120,104.38a12.77,12.77,0,0,1-1.37.5,5.78,5.78,0,0,1-1.7.25,4,4,0,0,1-1.09-.14,2.39,2.39,0,0,1-.89-.47,2.28,2.28,0,0,1-.61-.83,3,3,0,0,1-.23-1.23V96.2h-1.43V94.07h1.43V90.54h2.78v3.53h2.28V96.2h-2.28v5.31a1,1,0,0,0,.3.82,1.15,1.15,0,0,0,.74.24,2.53,2.53,0,0,0,.85-.15l.66-.25Z"/><path class="cls-6" d="M124.45,105.14a4.13,4.13,0,0,1-1.47-.26,3.54,3.54,0,0,1-1.18-.73,3.37,3.37,0,0,1-.78-1.09,3.29,3.29,0,0,1-.28-1.37,3,3,0,0,1,.34-1.42,3.26,3.26,0,0,1,1-1.11,4.76,4.76,0,0,1,1.46-.71,6.38,6.38,0,0,1,1.87-.26,8.11,8.11,0,0,1,1.42.12,6,6,0,0,1,1.23.35v-.62a2.18,2.18,0,0,0-.61-1.66,2.54,2.54,0,0,0-1.81-.58,4.78,4.78,0,0,0-1.7.31,7.92,7.92,0,0,0-1.7.91l-.85-1.76a8,8,0,0,1,4.52-1.39A5.31,5.31,0,0,1,129.5,95a4.22,4.22,0,0,1,1.3,3.33v3.38a1,1,0,0,0,.16.62.68.68,0,0,0,.51.21v2.36a6.26,6.26,0,0,1-1.22.15,1.86,1.86,0,0,1-1.21-.35,1.52,1.52,0,0,1-.53-.93l-.06-.6a4.79,4.79,0,0,1-1.76,1.45A5,5,0,0,1,124.45,105.14Zm.79-2a3.61,3.61,0,0,0,1.34-.25,2.43,2.43,0,0,0,1-.66,1,1,0,0,0,.46-.79v-1.24a6.85,6.85,0,0,0-1.08-.3,5.77,5.77,0,0,0-1.12-.11,3,3,0,0,0-1.76.49,1.46,1.46,0,0,0-.68,1.23,1.49,1.49,0,0,0,.54,1.17A2,2,0,0,0,125.24,103.11Z"/><path class="cls-6" d="M137.9,105.14a5,5,0,0,1-2.08-.43,4.9,4.9,0,0,1-1.64-1.2,5.64,5.64,0,0,1-1.07-1.8,6.28,6.28,0,0,1-.38-2.21,6.51,6.51,0,0,1,.36-2.2,5.78,5.78,0,0,1,1-1.78,4.6,4.6,0,0,1,1.53-1.2,4.37,4.37,0,0,1,1.95-.44,4.13,4.13,0,0,1,2.17.58,4.22,4.22,0,0,1,1.5,1.51V89.79H144v11.95a1,1,0,0,0,.15.62.65.65,0,0,0,.5.21v2.36a6.39,6.39,0,0,1-1.18.15,1.93,1.93,0,0,1-1.22-.37,1.37,1.37,0,0,1-.54-1l-.06-.68a3.93,3.93,0,0,1-1.63,1.57A4.62,4.62,0,0,1,137.9,105.14Zm.73-2.36a2.61,2.61,0,0,0,.81-.13,2.86,2.86,0,0,0,.77-.39,3.36,3.36,0,0,0,.63-.58,2.44,2.44,0,0,0,.43-.73V98.36a3,3,0,0,0-.47-.84,3.51,3.51,0,0,0-.68-.66,3.69,3.69,0,0,0-.81-.45,2.34,2.34,0,0,0-.84-.16,2.52,2.52,0,0,0-1.15.27,2.73,2.73,0,0,0-.9.74,3.52,3.52,0,0,0-.58,1.07,3.81,3.81,0,0,0-.21,1.25,3.4,3.4,0,0,0,.23,1.26,3.3,3.3,0,0,0,.62,1,2.83,2.83,0,0,0,.94.68A2.91,2.91,0,0,0,138.62,102.78Z"/><path class="cls-6" d="M146.77,104.94V94.07h2.78v10.87Zm2.1-12.14-1.78-.54,1.12-2.47h2.59Z"/><path class="cls-6" d="M156.17,105.14a8.45,8.45,0,0,1-2.68-.43,6.54,6.54,0,0,1-2.24-1.25l1-1.74a8.89,8.89,0,0,0,1.94,1.07,5.17,5.17,0,0,0,1.88.36,2.38,2.38,0,0,0,1.31-.31,1,1,0,0,0,.48-.89.89.89,0,0,0-.56-.85,12.11,12.11,0,0,0-1.82-.62q-1.06-.29-1.8-.56a4.62,4.62,0,0,1-1.2-.61,2.09,2.09,0,0,1-.66-.79,2.52,2.52,0,0,1-.21-1.07,3.38,3.38,0,0,1,.32-1.49,3.25,3.25,0,0,1,.9-1.13,4.16,4.16,0,0,1,1.36-.71,5.5,5.5,0,0,1,1.69-.25,7.26,7.26,0,0,1,2.29.35,5.59,5.59,0,0,1,2,1.14L159,97a6.53,6.53,0,0,0-1.61-.91,4.4,4.4,0,0,0-1.54-.29,2.24,2.24,0,0,0-1.18.29,1,1,0,0,0-.48.93.9.9,0,0,0,.11.48,1,1,0,0,0,.36.33,3.56,3.56,0,0,0,.65.28q.41.14,1,.28,1.12.29,1.92.58a5.22,5.22,0,0,1,1.31.66,2.37,2.37,0,0,1,.75.86,2.65,2.65,0,0,1,.24,1.17,3,3,0,0,1-1.18,2.52A5.08,5.08,0,0,1,156.17,105.14Z"/><path class="cls-6" d="M168.89,104.38a12.77,12.77,0,0,1-1.37.5,5.78,5.78,0,0,1-1.7.25,4,4,0,0,1-1.09-.14,2.39,2.39,0,0,1-.89-.47,2.28,2.28,0,0,1-.61-.83,3,3,0,0,1-.23-1.23V96.2h-1.43V94.07H163V90.54h2.78v3.53h2.28V96.2h-2.28v5.31a1,1,0,0,0,.3.82,1.15,1.15,0,0,0,.74.24,2.53,2.53,0,0,0,.85-.15l.66-.25Z"/><path class="cls-6" d="M170.34,92.55V89.79h2.78v2.76Zm0,12.38V94.07h2.78v10.87Z"/><path class="cls-6" d="M174.94,99.5a5.93,5.93,0,0,1,.39-2.16,5.27,5.27,0,0,1,1.14-1.78,5.53,5.53,0,0,1,1.8-1.22,6,6,0,0,1,2.39-.46,5.71,5.71,0,0,1,3,.77,4.89,4.89,0,0,1,1.88,2l-2.72.83a2.45,2.45,0,0,0-.93-.92,2.75,2.75,0,0,0-2.41-.08,2.73,2.73,0,0,0-.9.66,3.06,3.06,0,0,0-.6,1,3.86,3.86,0,0,0-.22,1.33,3.73,3.73,0,0,0,.23,1.33,3.35,3.35,0,0,0,.61,1,2.68,2.68,0,0,0,.9.67,2.59,2.59,0,0,0,1.1.24,2.66,2.66,0,0,0,1.38-.37,2.11,2.11,0,0,0,.88-.91l2.72.83a4.56,4.56,0,0,1-1.85,2,5.8,5.8,0,0,1-3.09.79,6,6,0,0,1-2.39-.46,5.4,5.4,0,0,1-3-3A5.84,5.84,0,0,1,174.94,99.5Z"/><path class="cls-6" d="M192.24,105.14a6,6,0,0,1-2.39-.46,5.35,5.35,0,0,1-1.79-1.23,5.46,5.46,0,0,1-1.13-1.8,5.86,5.86,0,0,1-.39-2.14,5.92,5.92,0,0,1,.39-2.16,5.45,5.45,0,0,1,1.13-1.79,5.32,5.32,0,0,1,1.79-1.23,6,6,0,0,1,2.39-.46,5.88,5.88,0,0,1,2.38.46,5.36,5.36,0,0,1,1.78,1.23,5.45,5.45,0,0,1,1.13,1.79,5.92,5.92,0,0,1,.39,2.16,5.86,5.86,0,0,1-.39,2.14,5.55,5.55,0,0,1-1.12,1.8,5.24,5.24,0,0,1-1.79,1.23A6,6,0,0,1,192.24,105.14Zm-2.84-5.62a3.78,3.78,0,0,0,.22,1.32,3.23,3.23,0,0,0,.6,1,2.68,2.68,0,0,0,.9.67,2.76,2.76,0,0,0,2.24,0,2.72,2.72,0,0,0,.9-.67,3.22,3.22,0,0,0,.6-1,3.86,3.86,0,0,0,.22-1.33,3.81,3.81,0,0,0-.22-1.31,3.23,3.23,0,0,0-.6-1,2.7,2.7,0,0,0-.9-.67,2.64,2.64,0,0,0-1.12-.24,2.54,2.54,0,0,0-1.12.25,2.76,2.76,0,0,0-.9.68,3.18,3.18,0,0,0-.6,1A3.81,3.81,0,0,0,189.4,99.52Z"/><path class="cls-6" d="M207.9,95.5v9.44H205V90.21h2.22l7.67,9.67V90.23h2.86v14.71h-2.32Z"/><path class="cls-6" d="M223.46,105.14a4.13,4.13,0,0,1-1.47-.26,3.54,3.54,0,0,1-1.18-.73,3.37,3.37,0,0,1-.78-1.09,3.29,3.29,0,0,1-.28-1.37,3,3,0,0,1,.34-1.42,3.26,3.26,0,0,1,1-1.11,4.76,4.76,0,0,1,1.46-.71,6.38,6.38,0,0,1,1.87-.26,8.11,8.11,0,0,1,1.42.12,6,6,0,0,1,1.23.35v-.62a2.18,2.18,0,0,0-.61-1.66,2.54,2.54,0,0,0-1.81-.58,4.78,4.78,0,0,0-1.7.31,7.92,7.92,0,0,0-1.7.91l-.85-1.76a8,8,0,0,1,4.52-1.39A5.31,5.31,0,0,1,228.52,95a4.22,4.22,0,0,1,1.3,3.33v3.38a1,1,0,0,0,.16.62.68.68,0,0,0,.51.21v2.36a6.26,6.26,0,0,1-1.22.15,1.86,1.86,0,0,1-1.21-.35,1.52,1.52,0,0,1-.53-.93l-.06-.6a4.79,4.79,0,0,1-1.76,1.45A5,5,0,0,1,223.46,105.14Zm.79-2a3.61,3.61,0,0,0,1.34-.25,2.43,2.43,0,0,0,1-.66,1,1,0,0,0,.46-.79v-1.24a6.85,6.85,0,0,0-1.08-.3,5.77,5.77,0,0,0-1.12-.11,3,3,0,0,0-1.76.49,1.46,1.46,0,0,0-.68,1.23,1.49,1.49,0,0,0,.54,1.17A2,2,0,0,0,224.25,103.11Z"/><path class="cls-6" d="M231.72,99.5a5.93,5.93,0,0,1,.39-2.16,5.27,5.27,0,0,1,1.14-1.78,5.53,5.53,0,0,1,1.8-1.22,6,6,0,0,1,2.39-.46,5.71,5.71,0,0,1,3,.77,4.89,4.89,0,0,1,1.88,2l-2.72.83a2.45,2.45,0,0,0-.93-.92,2.75,2.75,0,0,0-2.41-.08,2.73,2.73,0,0,0-.9.66,3.06,3.06,0,0,0-.6,1,3.86,3.86,0,0,0-.22,1.33,3.73,3.73,0,0,0,.23,1.33,3.35,3.35,0,0,0,.61,1,2.68,2.68,0,0,0,.9.67,2.59,2.59,0,0,0,1.1.24,2.66,2.66,0,0,0,1.38-.37,2.11,2.11,0,0,0,.88-.91l2.72.83a4.56,4.56,0,0,1-1.85,2,5.8,5.8,0,0,1-3.09.79,6,6,0,0,1-2.39-.46,5.4,5.4,0,0,1-3-3A5.84,5.84,0,0,1,231.72,99.5Z"/><path class="cls-6" d="M244.1,92.55V89.79h2.78v2.76Zm0,12.38V94.07h2.78v10.87Z"/><path class="cls-6" d="M254.41,105.14a6,6,0,0,1-2.39-.46,5.35,5.35,0,0,1-1.79-1.23,5.46,5.46,0,0,1-1.13-1.8,5.86,5.86,0,0,1-.39-2.14,5.92,5.92,0,0,1,.39-2.16,5.45,5.45,0,0,1,1.13-1.79A5.32,5.32,0,0,1,252,94.34a6,6,0,0,1,2.39-.46,5.88,5.88,0,0,1,2.38.46,5.36,5.36,0,0,1,1.78,1.23,5.45,5.45,0,0,1,1.13,1.79,5.92,5.92,0,0,1,.39,2.16,5.86,5.86,0,0,1-.39,2.14,5.55,5.55,0,0,1-1.12,1.8,5.24,5.24,0,0,1-1.79,1.23A6,6,0,0,1,254.41,105.14Zm-2.84-5.62a3.78,3.78,0,0,0,.22,1.32,3.23,3.23,0,0,0,.6,1,2.68,2.68,0,0,0,.9.67,2.76,2.76,0,0,0,2.24,0,2.72,2.72,0,0,0,.9-.67,3.22,3.22,0,0,0,.6-1,3.86,3.86,0,0,0,.22-1.33,3.81,3.81,0,0,0-.22-1.31,3.23,3.23,0,0,0-.6-1,2.7,2.7,0,0,0-.9-.67,2.64,2.64,0,0,0-1.12-.24,2.54,2.54,0,0,0-1.12.25,2.76,2.76,0,0,0-.9.68,3.18,3.18,0,0,0-.6,1A3.81,3.81,0,0,0,251.57,99.52Z"/><path class="cls-6" d="M272.06,104.94h-2.78v-6.1a3.17,3.17,0,0,0-.46-1.91,1.5,1.5,0,0,0-1.26-.6,2.36,2.36,0,0,0-.85.17,3.13,3.13,0,0,0-.82.47,3.8,3.8,0,0,0-.7.72,2.85,2.85,0,0,0-.46.91v6.35H262V94.07h2.51v2a4.12,4.12,0,0,1,1.74-1.62,5.59,5.59,0,0,1,2.57-.58,3.27,3.27,0,0,1,1.66.37,2.71,2.71,0,0,1,1,1,4.09,4.09,0,0,1,.49,1.37,9.15,9.15,0,0,1,.13,1.56Z"/><path class="cls-6" d="M277.46,105.14a4.13,4.13,0,0,1-1.47-.26,3.54,3.54,0,0,1-1.18-.73,3.37,3.37,0,0,1-.78-1.09,3.29,3.29,0,0,1-.28-1.37,3,3,0,0,1,.34-1.42,3.26,3.26,0,0,1,1-1.11,4.76,4.76,0,0,1,1.46-.71,6.38,6.38,0,0,1,1.87-.26,8.11,8.11,0,0,1,1.42.12,6,6,0,0,1,1.23.35v-.62a2.18,2.18,0,0,0-.61-1.66,2.54,2.54,0,0,0-1.81-.58,4.78,4.78,0,0,0-1.7.31,7.92,7.92,0,0,0-1.7.91l-.85-1.76a8,8,0,0,1,4.52-1.39A5.31,5.31,0,0,1,282.51,95a4.22,4.22,0,0,1,1.3,3.33v3.38a1,1,0,0,0,.16.62.68.68,0,0,0,.51.21v2.36a6.26,6.26,0,0,1-1.22.15,1.86,1.86,0,0,1-1.21-.35,1.52,1.52,0,0,1-.53-.93l-.06-.6a4.79,4.79,0,0,1-1.76,1.45A5,5,0,0,1,277.46,105.14Zm.79-2a3.61,3.61,0,0,0,1.34-.25,2.43,2.43,0,0,0,1-.66,1,1,0,0,0,.46-.79v-1.24a6.85,6.85,0,0,0-1.08-.3,5.77,5.77,0,0,0-1.12-.11,3,3,0,0,0-1.76.49,1.46,1.46,0,0,0-.68,1.23,1.49,1.49,0,0,0,.54,1.17A2,2,0,0,0,278.25,103.11Z"/><path class="cls-6" d="M286.38,89.79h2.78v11.66a1.37,1.37,0,0,0,.29.93,1,1,0,0,0,.83.33,2.08,2.08,0,0,0,.55-.08,3.88,3.88,0,0,0,.57-.21l.37,2.12a5.37,5.37,0,0,1-1.31.42,7.19,7.19,0,0,1-1.35.15,2.78,2.78,0,0,1-2-.7,2.63,2.63,0,0,1-.71-2Z"/><path class="cls-6" d="M23.37,127.57a5,5,0,0,1-2.08-.43,4.9,4.9,0,0,1-1.64-1.2,5.64,5.64,0,0,1-1.07-1.8,6.28,6.28,0,0,1-.38-2.21,6.51,6.51,0,0,1,.36-2.2,5.78,5.78,0,0,1,1-1.78,4.6,4.6,0,0,1,1.53-1.2,4.37,4.37,0,0,1,1.95-.44,4.13,4.13,0,0,1,2.17.58,4.22,4.22,0,0,1,1.5,1.51v-6.18h2.78v11.95a1,1,0,0,0,.15.62.65.65,0,0,0,.5.21v2.36a6.39,6.39,0,0,1-1.18.15,1.93,1.93,0,0,1-1.22-.37,1.37,1.37,0,0,1-.54-1l-.06-.68A3.93,3.93,0,0,1,25.52,127,4.62,4.62,0,0,1,23.37,127.57Zm.73-2.36a2.61,2.61,0,0,0,.81-.13,2.86,2.86,0,0,0,.77-.39,3.36,3.36,0,0,0,.63-.58,2.44,2.44,0,0,0,.43-.73v-2.59a3,3,0,0,0-.47-.84,3.51,3.51,0,0,0-.68-.66,3.69,3.69,0,0,0-.81-.45,2.34,2.34,0,0,0-.84-.16,2.52,2.52,0,0,0-1.15.27,2.73,2.73,0,0,0-.9.74,3.52,3.52,0,0,0-.58,1.07,3.81,3.81,0,0,0-.21,1.25,3.4,3.4,0,0,0,.23,1.26,3.3,3.3,0,0,0,.62,1,2.83,2.83,0,0,0,.94.68A2.91,2.91,0,0,0,24.1,125.21Z"/><path class="cls-6" d="M37.29,127.57a6,6,0,0,1-2.36-.45,5.33,5.33,0,0,1-3-3,5.75,5.75,0,0,1-.4-2.14A6.06,6.06,0,0,1,32,119.8,5.31,5.31,0,0,1,33.1,118a5.42,5.42,0,0,1,1.82-1.23,6,6,0,0,1,2.4-.46,5.89,5.89,0,0,1,2.38.46A5.44,5.44,0,0,1,41.47,118a5.22,5.22,0,0,1,1.12,1.78,5.93,5.93,0,0,1,.39,2.12q0,.27,0,.52a2,2,0,0,1-.05.42h-8.4a3.17,3.17,0,0,0,.31,1.14,2.81,2.81,0,0,0,1.53,1.39,2.93,2.93,0,0,0,1,.19,3.2,3.2,0,0,0,1.57-.4,2.14,2.14,0,0,0,1-1.07l2.39.66a4.83,4.83,0,0,1-1.92,2A5.94,5.94,0,0,1,37.29,127.57ZM40.11,121a2.9,2.9,0,0,0-.9-2,2.83,2.83,0,0,0-3.85,0,2.86,2.86,0,0,0-.61.85,3,3,0,0,0-.28,1.1Z"/><path class="cls-6" d="M49.92,127.36V112.64h6.24a4.18,4.18,0,0,1,1.88.43,4.88,4.88,0,0,1,1.48,1.12,5.32,5.32,0,0,1,1,1.58,4.76,4.76,0,0,1,.35,1.77,5.14,5.14,0,0,1-.33,1.82,5,5,0,0,1-.94,1.57,4.6,4.6,0,0,1-1.45,1.1,4.2,4.2,0,0,1-1.87.41H52.78v4.94Zm2.86-7.45H56.1a1.64,1.64,0,0,0,1.32-.64,2.66,2.66,0,0,0,.53-1.74,2.85,2.85,0,0,0-.17-1,2.41,2.41,0,0,0-.43-.76,1.77,1.77,0,0,0-.63-.47,1.87,1.87,0,0,0-.74-.16h-3.2Z"/><path class="cls-6" d="M69,118.9a5.49,5.49,0,0,0-2.26.49,2.86,2.86,0,0,0-1.43,1.4v6.58H62.57V116.49h2.55v2.32a5.05,5.05,0,0,1,.68-1,5.31,5.31,0,0,1,.85-.78,4,4,0,0,1,.92-.51,2.56,2.56,0,0,1,.9-.18h.34l.22,0Z"/><path class="cls-6" d="M75.08,127.57a6,6,0,0,1-2.39-.46,5.35,5.35,0,0,1-1.79-1.23,5.46,5.46,0,0,1-1.13-1.8,5.86,5.86,0,0,1-.39-2.14,5.92,5.92,0,0,1,.39-2.16A5.45,5.45,0,0,1,70.91,118a5.32,5.32,0,0,1,1.79-1.23,6,6,0,0,1,2.39-.46,5.88,5.88,0,0,1,2.38.46A5.36,5.36,0,0,1,79.24,118a5.45,5.45,0,0,1,1.13,1.79,5.92,5.92,0,0,1,.39,2.16,5.86,5.86,0,0,1-.39,2.14,5.55,5.55,0,0,1-1.12,1.8,5.24,5.24,0,0,1-1.79,1.23A6,6,0,0,1,75.08,127.57Zm-2.84-5.62a3.78,3.78,0,0,0,.22,1.32,3.23,3.23,0,0,0,.6,1,2.68,2.68,0,0,0,.9.67,2.76,2.76,0,0,0,2.24,0,2.72,2.72,0,0,0,.9-.67,3.22,3.22,0,0,0,.6-1,3.86,3.86,0,0,0,.22-1.33,3.81,3.81,0,0,0-.22-1.31,3.23,3.23,0,0,0-.6-1,2.7,2.7,0,0,0-.9-.67,2.64,2.64,0,0,0-1.12-.24,2.54,2.54,0,0,0-1.12.25,2.76,2.76,0,0,0-.9.68,3.18,3.18,0,0,0-.6,1A3.81,3.81,0,0,0,72.24,121.95Z"/><path class="cls-6" d="M81.95,121.93a5.93,5.93,0,0,1,.39-2.16A5.27,5.27,0,0,1,83.48,118a5.53,5.53,0,0,1,1.8-1.22,6,6,0,0,1,2.39-.46,5.71,5.71,0,0,1,3,.77,4.89,4.89,0,0,1,1.88,2l-2.72.83a2.45,2.45,0,0,0-.93-.92,2.75,2.75,0,0,0-2.41-.08,2.73,2.73,0,0,0-.9.66,3.06,3.06,0,0,0-.6,1,3.86,3.86,0,0,0-.22,1.33,3.73,3.73,0,0,0,.23,1.33,3.35,3.35,0,0,0,.61,1,2.68,2.68,0,0,0,.9.67,2.59,2.59,0,0,0,1.1.24,2.66,2.66,0,0,0,1.38-.37,2.11,2.11,0,0,0,.88-.91l2.72.83a4.56,4.56,0,0,1-1.85,2,5.8,5.8,0,0,1-3.09.79,6,6,0,0,1-2.39-.46,5.4,5.4,0,0,1-3-3A5.84,5.84,0,0,1,81.95,121.93Z"/><path class="cls-6" d="M97.65,127.57a3.08,3.08,0,0,1-2.55-1.08,5,5,0,0,1-.87-3.19v-6.8H97v6.2q0,2.51,1.8,2.51a2.86,2.86,0,0,0,1.57-.49,3.52,3.52,0,0,0,1.24-1.48v-6.74h2.78v7.68a1,1,0,0,0,.16.62.69.69,0,0,0,.51.21v2.36a5.8,5.8,0,0,1-.7.1l-.51,0a2,2,0,0,1-1.21-.34,1.34,1.34,0,0,1-.55-.94l-.06-.87a4.63,4.63,0,0,1-1.87,1.68A5.62,5.62,0,0,1,97.65,127.57Z"/><path class="cls-6" d="M113.63,118.9a5.49,5.49,0,0,0-2.26.49,2.86,2.86,0,0,0-1.43,1.4v6.58h-2.78V116.49h2.55v2.32a5.05,5.05,0,0,1,.68-1,5.31,5.31,0,0,1,.85-.78,4,4,0,0,1,.92-.51,2.56,2.56,0,0,1,.9-.18h.34l.22,0Z"/><path class="cls-6" d="M118,127.57a4.13,4.13,0,0,1-1.47-.26,3.54,3.54,0,0,1-1.18-.73,3.37,3.37,0,0,1-.78-1.09,3.29,3.29,0,0,1-.28-1.37,3,3,0,0,1,.34-1.42,3.26,3.26,0,0,1,1-1.11,4.76,4.76,0,0,1,1.46-.71,6.38,6.38,0,0,1,1.87-.26,8.11,8.11,0,0,1,1.42.12,6,6,0,0,1,1.23.35v-.62a2.18,2.18,0,0,0-.61-1.66,2.54,2.54,0,0,0-1.81-.58,4.78,4.78,0,0,0-1.7.31,7.92,7.92,0,0,0-1.7.91l-.85-1.76a8,8,0,0,1,4.52-1.39,5.31,5.31,0,0,1,3.64,1.15,4.22,4.22,0,0,1,1.3,3.33v3.38a1,1,0,0,0,.16.62.68.68,0,0,0,.51.21v2.36a6.26,6.26,0,0,1-1.22.15,1.86,1.86,0,0,1-1.21-.35,1.52,1.52,0,0,1-.53-.93l-.06-.6a4.79,4.79,0,0,1-1.76,1.45A5,5,0,0,1,118,127.57Zm.79-2a3.61,3.61,0,0,0,1.34-.25,2.43,2.43,0,0,0,1-.66,1,1,0,0,0,.46-.79v-1.24a6.85,6.85,0,0,0-1.08-.3,5.77,5.77,0,0,0-1.12-.11,3,3,0,0,0-1.76.49,1.46,1.46,0,0,0-.68,1.23,1.49,1.49,0,0,0,.54,1.17A2,2,0,0,0,118.79,125.54Z"/><path class="cls-6" d="M126.26,121.93a5.93,5.93,0,0,1,.39-2.16,5.27,5.27,0,0,1,1.14-1.78,5.53,5.53,0,0,1,1.8-1.22,6,6,0,0,1,2.39-.46,5.71,5.71,0,0,1,3,.77,4.89,4.89,0,0,1,1.88,2l-2.72.83a2.45,2.45,0,0,0-.93-.92,2.75,2.75,0,0,0-2.41-.08,2.73,2.73,0,0,0-.9.66,3.06,3.06,0,0,0-.6,1,3.86,3.86,0,0,0-.22,1.33,3.73,3.73,0,0,0,.23,1.33,3.35,3.35,0,0,0,.61,1,2.68,2.68,0,0,0,.9.67,2.59,2.59,0,0,0,1.1.24,2.66,2.66,0,0,0,1.38-.37,2.11,2.11,0,0,0,.88-.91l2.72.83a4.56,4.56,0,0,1-1.85,2,5.8,5.8,0,0,1-3.09.79,6,6,0,0,1-2.39-.46,5.4,5.4,0,0,1-3-3A5.84,5.84,0,0,1,126.26,121.93Z"/><path class="cls-6" d="M138.64,115v-2.76h2.78V115Zm0,12.38V116.49h2.78v10.87Z"/><path class="cls-6" d="M149,127.57a6,6,0,0,1-2.39-.46,5.35,5.35,0,0,1-1.79-1.23,5.46,5.46,0,0,1-1.13-1.8,5.86,5.86,0,0,1-.39-2.14,5.92,5.92,0,0,1,.39-2.16,5.45,5.45,0,0,1,1.13-1.79,5.32,5.32,0,0,1,1.79-1.23,6,6,0,0,1,2.39-.46,5.88,5.88,0,0,1,2.38.46,5.36,5.36,0,0,1,1.78,1.23,5.45,5.45,0,0,1,1.13,1.79,5.92,5.92,0,0,1,.39,2.16,5.86,5.86,0,0,1-.39,2.14,5.55,5.55,0,0,1-1.12,1.8,5.24,5.24,0,0,1-1.79,1.23A6,6,0,0,1,149,127.57Zm-2.84-5.62a3.78,3.78,0,0,0,.22,1.32,3.23,3.23,0,0,0,.6,1,2.68,2.68,0,0,0,.9.67,2.76,2.76,0,0,0,2.24,0,2.72,2.72,0,0,0,.9-.67,3.22,3.22,0,0,0,.6-1,3.86,3.86,0,0,0,.22-1.33,3.81,3.81,0,0,0-.22-1.31,3.23,3.23,0,0,0-.6-1,2.7,2.7,0,0,0-.9-.67,2.64,2.64,0,0,0-1.12-.24,2.54,2.54,0,0,0-1.12.25,2.76,2.76,0,0,0-.9.68,3.18,3.18,0,0,0-.6,1A3.81,3.81,0,0,0,146.11,121.95Zm3.55-6.72-1.79-.54,1.12-2.47h2.59Z"/><path class="cls-6" d="M166.61,127.36h-2.78v-6.1a3.17,3.17,0,0,0-.46-1.91,1.5,1.5,0,0,0-1.26-.6,2.36,2.36,0,0,0-.85.17,3.13,3.13,0,0,0-.82.47,3.8,3.8,0,0,0-.7.72,2.85,2.85,0,0,0-.46.91v6.35H156.5V116.49H159v2a4.12,4.12,0,0,1,1.74-1.62,5.59,5.59,0,0,1,2.57-.58,3.27,3.27,0,0,1,1.66.37,2.71,2.71,0,0,1,1,1,4.09,4.09,0,0,1,.49,1.37,9.15,9.15,0,0,1,.13,1.56Z"/><path class="cls-6" d="M178.51,127.57a5,5,0,0,1-2.08-.43,4.9,4.9,0,0,1-1.64-1.2,5.64,5.64,0,0,1-1.07-1.8,6.28,6.28,0,0,1-.38-2.21,6.51,6.51,0,0,1,.36-2.2,5.78,5.78,0,0,1,1-1.78,4.6,4.6,0,0,1,1.53-1.2,4.37,4.37,0,0,1,1.95-.44,4.13,4.13,0,0,1,2.17.58,4.22,4.22,0,0,1,1.5,1.51v-6.18h2.78v11.95a1,1,0,0,0,.15.62.65.65,0,0,0,.5.21v2.36a6.39,6.39,0,0,1-1.18.15,1.93,1.93,0,0,1-1.22-.37,1.37,1.37,0,0,1-.54-1l-.06-.68a3.93,3.93,0,0,1-1.63,1.57A4.62,4.62,0,0,1,178.51,127.57Zm.73-2.36a2.61,2.61,0,0,0,.81-.13,2.86,2.86,0,0,0,.77-.39,3.36,3.36,0,0,0,.63-.58,2.44,2.44,0,0,0,.43-.73v-2.59a3,3,0,0,0-.47-.84,3.51,3.51,0,0,0-.68-.66,3.69,3.69,0,0,0-.81-.45,2.34,2.34,0,0,0-.84-.16,2.52,2.52,0,0,0-1.15.27,2.73,2.73,0,0,0-.9.74,3.52,3.52,0,0,0-.58,1.07,3.81,3.81,0,0,0-.21,1.25,3.4,3.4,0,0,0,.23,1.26,3.3,3.3,0,0,0,.62,1,2.83,2.83,0,0,0,.94.68A2.91,2.91,0,0,0,179.24,125.21Z"/><path class="cls-6" d="M192.43,127.57a6,6,0,0,1-2.36-.45,5.33,5.33,0,0,1-3-3,5.75,5.75,0,0,1-.4-2.14,6.06,6.06,0,0,1,.39-2.19,5.31,5.31,0,0,1,1.14-1.8,5.42,5.42,0,0,1,1.82-1.23,6,6,0,0,1,2.4-.46,5.89,5.89,0,0,1,2.38.46,5.44,5.44,0,0,1,1.78,1.22,5.22,5.22,0,0,1,1.12,1.78,5.93,5.93,0,0,1,.39,2.12q0,.27,0,.52a2,2,0,0,1-.05.42h-8.4A3.17,3.17,0,0,0,190,124a2.81,2.81,0,0,0,1.53,1.39,2.93,2.93,0,0,0,1,.19,3.2,3.2,0,0,0,1.57-.4,2.14,2.14,0,0,0,1-1.07l2.39.66a4.83,4.83,0,0,1-1.92,2A5.94,5.94,0,0,1,192.43,127.57Zm2.82-6.55a2.9,2.9,0,0,0-.9-2,2.83,2.83,0,0,0-3.85,0,2.86,2.86,0,0,0-.61.85,3,3,0,0,0-.28,1.1Z"/><path class="cls-6" d="M203.76,124.36a4.33,4.33,0,0,0,1,.46,4.59,4.59,0,0,0,1.58.25,2.75,2.75,0,0,0,1.39-.3,1.89,1.89,0,0,0,.79-.92,5,5,0,0,0,.35-1.54q.08-.92.08-2.17v-7.49h2.86v7.49a24.35,24.35,0,0,1-.18,3.06,6.13,6.13,0,0,1-.75,2.35,3.85,3.85,0,0,1-1.65,1.52,6.58,6.58,0,0,1-2.9.54,5.5,5.5,0,0,1-3.19-.91Z"/><path class="cls-6" d="M217.74,127.57a3.08,3.08,0,0,1-2.55-1.08,5,5,0,0,1-.87-3.19v-6.8h2.78v6.2q0,2.51,1.8,2.51a2.86,2.86,0,0,0,1.57-.49,3.52,3.52,0,0,0,1.24-1.48v-6.74h2.78v7.68a1,1,0,0,0,.16.62.69.69,0,0,0,.51.21v2.36a5.8,5.8,0,0,1-.7.1l-.51,0a2,2,0,0,1-1.21-.34,1.34,1.34,0,0,1-.55-.94l-.06-.87a4.63,4.63,0,0,1-1.87,1.68A5.62,5.62,0,0,1,217.74,127.57Z"/><path class="cls-6" d="M231.35,127.57a8.45,8.45,0,0,1-2.68-.43,6.54,6.54,0,0,1-2.24-1.25l1-1.74a8.89,8.89,0,0,0,1.94,1.07,5.17,5.17,0,0,0,1.88.36,2.38,2.38,0,0,0,1.31-.31,1,1,0,0,0,.48-.89.89.89,0,0,0-.56-.85,12.11,12.11,0,0,0-1.82-.62q-1.06-.29-1.8-.56a4.62,4.62,0,0,1-1.2-.61,2.09,2.09,0,0,1-.66-.79,2.52,2.52,0,0,1-.21-1.07,3.38,3.38,0,0,1,.32-1.49,3.25,3.25,0,0,1,.9-1.13,4.16,4.16,0,0,1,1.36-.71,5.5,5.5,0,0,1,1.69-.25,7.26,7.26,0,0,1,2.29.35,5.59,5.59,0,0,1,2,1.14l-1.12,1.68a6.53,6.53,0,0,0-1.61-.91,4.4,4.4,0,0,0-1.54-.29,2.24,2.24,0,0,0-1.18.29,1,1,0,0,0-.48.93.9.9,0,0,0,.11.48,1,1,0,0,0,.36.33,3.56,3.56,0,0,0,.65.28q.41.14,1,.28,1.12.29,1.92.58a5.22,5.22,0,0,1,1.31.66,2.37,2.37,0,0,1,.75.86,2.65,2.65,0,0,1,.24,1.17,3,3,0,0,1-1.18,2.52A5.08,5.08,0,0,1,231.35,127.57Z"/><path class="cls-6" d="M244.06,126.8a12.77,12.77,0,0,1-1.37.5,5.78,5.78,0,0,1-1.7.25,4,4,0,0,1-1.09-.14,2.39,2.39,0,0,1-.89-.47,2.28,2.28,0,0,1-.61-.83,3,3,0,0,1-.23-1.23v-6.24h-1.43v-2.14h1.43V113H241v3.53h2.28v2.14H241v5.31a1,1,0,0,0,.3.82,1.15,1.15,0,0,0,.74.24,2.53,2.53,0,0,0,.85-.15l.66-.25Z"/><path class="cls-6" d="M245.51,115v-2.76h2.78V115Zm0,12.38V116.49h2.78v10.87Z"/><path class="cls-6" d="M250.12,121.93a5.93,5.93,0,0,1,.39-2.16,5.27,5.27,0,0,1,1.14-1.78,5.53,5.53,0,0,1,1.8-1.22,6,6,0,0,1,2.39-.46,5.71,5.71,0,0,1,3,.77,4.89,4.89,0,0,1,1.88,2l-2.72.83a2.45,2.45,0,0,0-.93-.92,2.75,2.75,0,0,0-2.41-.08,2.73,2.73,0,0,0-.9.66,3.06,3.06,0,0,0-.6,1,3.86,3.86,0,0,0-.22,1.33,3.73,3.73,0,0,0,.23,1.33,3.35,3.35,0,0,0,.61,1,2.68,2.68,0,0,0,.9.67,2.59,2.59,0,0,0,1.1.24,2.66,2.66,0,0,0,1.38-.37,2.11,2.11,0,0,0,.88-.91l2.72.83a4.56,4.56,0,0,1-1.85,2,5.8,5.8,0,0,1-3.09.79,6,6,0,0,1-2.39-.46,5.4,5.4,0,0,1-3-3A5.84,5.84,0,0,1,250.12,121.93Z"/><path class="cls-6" d="M262.5,115v-2.76h2.78V115Zm0,12.38V116.49h2.78v10.87Z"/><path class="cls-6" d="M270.76,127.57a4.13,4.13,0,0,1-1.47-.26,3.54,3.54,0,0,1-1.18-.73,3.37,3.37,0,0,1-.78-1.09,3.29,3.29,0,0,1-.28-1.37,3,3,0,0,1,.34-1.42,3.26,3.26,0,0,1,1-1.11,4.76,4.76,0,0,1,1.46-.71,6.38,6.38,0,0,1,1.87-.26,8.11,8.11,0,0,1,1.42.12,6,6,0,0,1,1.23.35v-.62a2.18,2.18,0,0,0-.61-1.66,2.54,2.54,0,0,0-1.81-.58,4.78,4.78,0,0,0-1.7.31,7.92,7.92,0,0,0-1.7.91l-.85-1.76a8,8,0,0,1,4.52-1.39,5.31,5.31,0,0,1,3.64,1.15,4.22,4.22,0,0,1,1.3,3.33v3.38a1,1,0,0,0,.16.62.68.68,0,0,0,.51.21v2.36a6.26,6.26,0,0,1-1.22.15,1.86,1.86,0,0,1-1.21-.35,1.52,1.52,0,0,1-.53-.93l-.06-.6a4.79,4.79,0,0,1-1.76,1.45A5,5,0,0,1,270.76,127.57Zm.79-2a3.61,3.61,0,0,0,1.34-.25,2.43,2.43,0,0,0,1-.66,1,1,0,0,0,.46-.79v-1.24a6.85,6.85,0,0,0-1.08-.3,5.77,5.77,0,0,0-1.12-.11,3,3,0,0,0-1.76.49,1.46,1.46,0,0,0-.68,1.23,1.49,1.49,0,0,0,.54,1.17A2,2,0,0,0,271.55,125.54Z"/></g></svg>